<svg width="90" height="90" viewBox="0 0 90 90" fill="none" xmlns="http://www.w3.org/2000/svg">
<path fill-rule="evenodd" clip-rule="evenodd" d="M45 0.96875C23.5981 0.96875 5.70862 16.3138 1.78125 36.5938C1.56551 37.6897 2.27906 38.753 3.375 38.9688C4.47094 39.1845 5.53426 38.4709 5.75 37.375C9.31869 18.9472 25.5038 5.03125 45 5.03125C67.1151 5.03125 84.9688 22.8849 84.9688 45C84.9688 67.1151 67.1151 84.9688 45 84.9688C22.8849 84.9688 5.03125 67.1151 5.03125 45C5.03125 43.8782 4.12183 42.9688 3 42.9688C1.87817 42.9688 0.96875 43.8782 0.96875 45C0.96875 69.2768 20.7232 89.0312 45 89.0312C69.2768 89.0312 89.0312 69.2768 89.0312 45C89.0312 20.7232 69.2768 0.96875 45 0.96875ZM41.8125 9C41.0979 9.03335 40.4553 9.44548 40.127 10.0811C39.7986 10.7167 39.8344 11.4792 40.2207 12.0813C40.6071 12.6834 41.2854 13.0336 42 13H48C48.7213 13.0102 49.3922 12.6312 49.7558 12.0083C50.1194 11.3853 50.1194 10.6147 49.7558 9.99175C49.3922 9.36876 48.7213 8.9898 48 9H42C41.9375 8.99707 41.875 8.99707 41.8125 9ZM29.5938 12.3125C29.8689 12.1474 30.1797 12.051 30.5 12.0312C31.4364 11.969 32.2902 12.5661 32.5529 13.467C32.8157 14.3679 32.4168 15.3304 31.5938 15.7812L26.4062 18.7812C25.4484 19.3335 24.2242 19.0047 23.6719 18.0469C23.1196 17.089 23.4484 15.8648 24.4062 15.3125L29.5938 12.3125ZM59.25 12.0312C58.3604 12.0842 57.6131 12.7194 57.4174 13.5888C57.2218 14.4583 57.625 15.3523 58.4062 15.7812L63.5938 18.7812C64.2134 19.1385 64.9765 19.1381 65.5958 18.7801C66.215 18.4221 66.5962 17.761 66.5958 17.0457C66.5953 16.3305 66.2134 15.6698 65.5938 15.3125L60.4062 12.3125C60.0583 12.1036 59.655 12.0055 59.25 12.0312ZM15.3125 24.4062C15.6304 23.8249 16.2155 23.4387 16.875 23.375C17.63 23.2998 18.3625 23.6583 18.7664 24.3005C19.1704 24.9428 19.1761 25.7584 18.7812 26.4062L15.7812 31.5938C15.229 32.5516 14.0047 32.8804 13.0469 32.3281C12.089 31.7758 11.7602 30.5516 12.3125 29.5938L15.3125 24.4062ZM72.8438 23.375C72.1387 23.406 71.5022 23.8062 71.1687 24.4282C70.8353 25.0502 70.8543 25.8019 71.2188 26.4062L74.2188 31.5938C74.771 32.5516 75.9953 32.8804 76.9531 32.3281C77.911 31.7758 78.2398 30.5516 77.6875 29.5938L74.6875 24.4062C74.3194 23.7395 73.6046 23.3397 72.8438 23.375ZM28.127 26.0811C28.4553 25.4455 29.0979 25.0334 29.8125 25C29.875 24.9971 29.9375 24.9971 30 25H54.3125C61.8035 25 68 30.7643 68 38C68 45.2357 61.8035 51 54.3125 51H39V56H50C50.7213 55.9898 51.3922 56.3688 51.7558 56.9917C52.1194 57.6147 52.1194 58.3853 51.7558 59.0083C51.3922 59.6312 50.7213 60.0102 50 60H39V67C39.0102 67.7213 38.6312 68.3922 38.0083 68.7558C37.3853 69.1194 36.6147 69.1194 35.9917 68.7558C35.3688 68.3922 34.9898 67.7213 35 67V60H30C29.2854 60.0336 28.6071 59.6834 28.2207 59.0813C27.8344 58.4792 27.7986 57.7167 28.127 57.0811C28.4553 56.4455 29.0979 56.0334 29.8125 56C29.875 55.9971 29.9375 55.9971 30 56H35V51H30C29.2787 51.0102 28.6078 50.6312 28.2442 50.0083C27.8806 49.3853 27.8806 48.6147 28.2442 47.9917C28.6078 47.3688 29.2787 46.9898 30 47H35V29H30C29.2854 29.0336 28.6071 28.6834 28.2207 28.0813C27.8344 27.4792 27.7986 26.7167 28.127 26.0811ZM39 29H54.3125C59.7851 29 64 33.0477 64 38C64 42.9523 59.7851 47 54.3125 47H39V29ZM9 42C8.97771 40.9636 9.75086 40.082 10.7812 39.9688C10.8437 39.9658 10.9063 39.9658 10.9688 39.9688C11.51 39.9603 12.0316 40.1716 12.4144 40.5544C12.7972 40.9371 13.0085 41.4587 13 42V48C13.0102 48.7213 12.6312 49.3922 12.0083 49.7558C11.3853 50.1194 10.6147 50.1194 9.99175 49.7558C9.36876 49.3922 8.9898 48.7213 9 48V42ZM78.7812 39.9688C77.7509 40.082 76.9777 40.9636 77 42V48C76.9898 48.7213 77.3688 49.3922 77.9917 49.7558C78.6147 50.1194 79.3853 50.1194 80.0082 49.7558C80.6312 49.3922 81.0102 48.7213 81 48V42C81.0085 41.4587 80.7972 40.9371 80.4144 40.5544C80.0316 40.1716 79.51 39.9603 78.9688 39.9688C78.9063 39.9658 78.8437 39.9658 78.7812 39.9688ZM12.2707 58.4153C12.6116 57.7914 13.2581 57.3953 13.9688 57.375C14.7185 57.3517 15.4182 57.7498 15.7812 58.4062L18.7812 63.5938C19.1385 64.2134 19.1381 64.9765 18.7801 65.5958C18.4221 66.215 17.761 66.5962 17.0457 66.5958C16.3305 66.5953 15.6698 66.2134 15.3125 65.5938L12.3125 60.4062C11.9457 59.7972 11.9298 59.0392 12.2707 58.4153ZM75.7812 57.375C75.1218 57.4387 74.5366 57.8249 74.2188 58.4062L71.2188 63.5938C70.8615 64.2134 70.8619 64.9765 71.2199 65.5958C71.5779 66.215 72.239 66.5962 72.9543 66.5958C73.6695 66.5953 74.3302 66.2134 74.6875 65.5938L77.6875 60.4062C78.0823 59.7584 78.0766 58.9428 77.6727 58.3005C77.2688 57.6583 76.5362 57.2998 75.7812 57.375ZM23.4174 72.4951C23.6131 71.6256 24.3604 70.9905 25.25 70.9375C25.655 70.9118 26.0583 71.0099 26.4062 71.2188L31.5938 74.2188C32.5516 74.771 32.8804 75.9953 32.3281 76.9531C31.7758 77.911 30.5516 78.2398 29.5938 77.6875L24.4062 74.6875C23.625 74.2586 23.2218 73.3646 23.4174 72.4951ZM64.5 70.9375C64.1797 70.9572 63.8689 71.0537 63.5938 71.2188L58.4062 74.2188C57.7866 74.576 57.4047 75.2367 57.4042 75.952C57.4038 76.6672 57.785 77.3284 58.4042 77.6863C59.0235 78.0443 59.7866 78.0448 60.4062 77.6875L65.5938 74.6875C66.4168 74.2366 66.8157 73.2742 66.5529 72.3732C66.2902 71.4723 65.4364 70.8752 64.5 70.9375ZM40.127 78.0811C40.4553 77.4455 41.0979 77.0334 41.8125 77C41.875 76.9971 41.9375 76.9971 42 77H48C48.7213 76.9898 49.3922 77.3688 49.7558 77.9918C50.1194 78.6147 50.1194 79.3853 49.7558 80.0083C49.3922 80.6312 48.7213 81.0102 48 81H42C41.2854 81.0336 40.6071 80.6834 40.2207 80.0813C39.8344 79.4792 39.7986 78.7167 40.127 78.0811Z" fill="black"/>
</svg>
