<svg width="70" height="80" viewBox="0 0 70 80" fill="none" xmlns="http://www.w3.org/2000/svg">
<path fill-rule="evenodd" clip-rule="evenodd" d="M34.7951 79.3022C34.8634 79.3102 34.9318 79.3151 35.0002 79.3151C35.0685 79.3151 35.1369 79.3102 35.2052 79.3022C64.8374 75.6577 69.3442 16.0996 69.5217 13.5655C69.5607 12.9861 69.2922 12.4292 68.8136 12.0967C68.3335 11.7642 67.7118 11.7029 67.1795 11.9418C50.7358 19.2211 36.4731 0.825894 36.3315 0.640279C35.7 -0.189338 34.3003 -0.189338 33.6688 0.640279C33.5272 0.827508 19.2661 19.2147 2.82243 11.9418C2.2902 11.7029 1.66846 11.7642 1.18832 12.0967C0.7098 12.4292 0.441246 12.9861 0.480308 13.5655C0.657717 16.0996 5.16292 75.6577 34.7951 79.3022ZM35.0002 75.995C11.5269 72.8476 5.25733 27.3882 4.04964 15.9349C18.6688 20.5091 31.0321 8.61364 35.0002 4.19924C38.9683 8.61526 51.3397 20.5011 65.9523 15.9349C64.7463 27.3882 58.4865 72.846 35.0002 75.995Z" fill="black"/>
<path fill-rule="evenodd" clip-rule="evenodd" d="M15.8145 39.6484C15.8145 50.1396 24.4212 58.6747 35.0007 58.6747C45.5801 58.6747 54.1868 50.1396 54.1868 39.6484C54.1868 29.1571 45.5801 20.6221 35.0007 20.6221C24.4212 20.6221 15.8145 29.1571 15.8145 39.6484ZM19.1478 39.6484C19.1478 30.9794 26.2588 23.9276 35.0007 23.9276C43.7425 23.9276 50.8535 30.9794 50.8535 39.6484C50.8535 48.3174 43.7425 55.3691 35.0007 55.3691C26.2588 55.3691 19.1478 48.3174 19.1478 39.6484Z" fill="black"/>
<path d="M32.1411 46.5259C31.744 46.5259 31.3484 46.387 31.0311 46.1062L25.4614 41.1802C24.7746 40.5733 24.7143 39.5274 25.3279 38.8462C25.9415 38.1651 26.9946 38.1086 27.6815 38.7139L32.115 42.636L42.2941 33.2149C42.9695 32.5918 44.0226 32.6274 44.6509 33.2956C45.2775 33.9638 45.2417 35.0097 44.5695 35.6327L33.2788 46.082C32.9581 46.3774 32.5496 46.5259 32.1411 46.5259Z" fill="black"/>
</svg>
