<svg width="30" height="23" viewBox="0 0 30 23" fill="none" xmlns="http://www.w3.org/2000/svg">
<path fill-rule="evenodd" clip-rule="evenodd" d="M23.9922 2.13067L21.6911 4.47953C25.5554 4.78789 28.771 7.57172 29.6296 11.3521C30.4881 15.1324 28.7904 19.0321 25.4383 20.9794C22.0863 22.9266 17.8577 22.4696 14.9991 19.8511C12.1409 22.4686 7.91368 22.9257 4.56208 20.9797C1.21048 19.0337 -0.488182 15.1359 0.368131 11.3561C1.22444 7.57626 4.43714 4.79108 8.30019 4.47953L6.02292 2.20226C5.89673 2.07601 5.8893 1.8738 6.00587 1.73863L7.11042 0.443171C7.17519 0.367442 7.26986 0.323846 7.36951 0.323853H10.69C10.7862 0.32408 10.8778 0.364939 10.9422 0.436353L12.0638 1.66703C12.0719 1.67761 12.0787 1.68904 12.0843 1.70113C12.1024 1.72212 12.1163 1.74643 12.1252 1.77272C12.1284 1.79419 12.1284 1.81601 12.1252 1.83749C12.1268 1.85677 12.1268 1.87616 12.1252 1.89544C12.1251 1.93497 12.1182 1.97419 12.1047 2.01135C12.0909 2.04695 12.07 2.0794 12.0434 2.10681C12.0445 2.11472 12.0445 2.12276 12.0434 2.13067L9.74564 4.47953C11.7044 4.6341 13.5544 5.44207 14.9991 6.77385C16.4427 5.44481 18.2897 4.63714 20.2456 4.47953L17.9684 2.20226C17.8422 2.07601 17.8348 1.8738 17.9513 1.73863L19.0593 0.460216C19.1241 0.384487 19.2187 0.340891 19.3184 0.340898H22.6729C22.7691 0.341125 22.8607 0.381985 22.9252 0.453398L24.0263 1.66703C24.0502 1.67726 24.0502 1.70113 24.0502 1.70113C24.0658 1.72379 24.0795 1.74774 24.0911 1.77272C24.0927 1.79428 24.0927 1.81593 24.0911 1.83749C24.0927 1.85677 24.0927 1.87616 24.0911 1.89544C24.09 1.93518 24.0819 1.9744 24.0672 2.01135C24.0533 2.04614 24.0337 2.07839 24.0093 2.10681L23.9922 2.13067ZM18.9672 2.23635L20.9718 4.2409L22.9388 2.23635H18.9672ZM19.4752 1.02272H22.4991L22.9934 1.56817H19.0081L19.4752 1.02272ZM16.5433 8.14311L16.4991 8.18181L16.3627 8.31476L16.4718 8.52272L16.6456 8.79544L16.8263 9.1159C16.8775 9.20794 16.915 9.27953 16.9729 9.39203C17.0309 9.50453 17.0922 9.6409 17.1331 9.73294C17.1487 9.768 17.1633 9.80208 17.1781 9.83648L17.1781 9.83652C17.202 9.89242 17.2263 9.94919 17.2559 10.0125C17.2949 10.0961 17.3362 10.2093 17.3686 10.2982L17.3686 10.2982L17.3888 10.3534L17.4031 10.3917L17.4031 10.3918L17.4031 10.3918L17.4032 10.392C17.4302 10.4647 17.4527 10.5252 17.4877 10.6329C17.5128 10.7105 17.5367 10.8009 17.5577 10.8805L17.5577 10.8806L17.5578 10.8807C17.5709 10.9305 17.5829 10.976 17.5934 11.0114C17.6206 11.1034 17.6343 11.1545 17.6684 11.2875C17.6947 11.39 17.7189 11.5229 17.7365 11.619L17.7428 11.6538L17.7502 11.6932C17.7559 11.7227 17.7634 11.7519 17.771 11.7811L17.771 11.7811C17.7862 11.8394 17.8013 11.8977 17.8013 11.9591C17.8056 11.9859 17.8101 12.0128 17.8146 12.0397C17.8352 12.1629 17.8559 12.2866 17.8559 12.4125C17.8797 12.4875 17.8797 12.5625 17.8797 12.6375C17.907 12.8591 17.907 13.0943 17.907 13.3193C17.907 13.5443 17.8968 13.7727 17.8797 14.0011C17.8771 14.0314 17.873 14.0611 17.8688 14.0905V14.0905C17.8623 14.1374 17.8559 14.1835 17.8559 14.2295C17.852 14.2647 17.8482 14.2997 17.8445 14.3346L17.8445 14.3347L17.8445 14.3348L17.8445 14.3349C17.832 14.4519 17.8197 14.5674 17.8013 14.6829C17.794 14.7306 17.7867 14.7664 17.7778 14.8099C17.7701 14.8475 17.7612 14.8907 17.7502 14.9523C17.7296 15.0669 17.6989 15.2095 17.6777 15.3078L17.6776 15.308L17.6684 15.3511C17.6552 15.4126 17.642 15.4586 17.6252 15.5173L17.6252 15.5173L17.6251 15.5173L17.6251 15.5175L17.6251 15.5176C17.6158 15.5499 17.6054 15.586 17.5934 15.6307L17.5839 15.6658L17.5839 15.6659L17.5838 15.666L17.5838 15.6661C17.5518 15.7845 17.5155 15.919 17.4877 16.0057L17.4732 16.0512C17.4487 16.1283 17.426 16.2001 17.3888 16.2886C17.3598 16.3578 17.3279 16.4417 17.2987 16.5181L17.2987 16.5182C17.2834 16.5584 17.2688 16.5966 17.2559 16.6295C17.2312 16.6923 17.208 16.7433 17.1805 16.8039L17.1804 16.804L17.1804 16.804C17.1661 16.8355 17.1506 16.8695 17.1331 16.9091C17.0881 17.0113 17.0324 17.1267 16.9895 17.2156L16.9893 17.2159L16.9729 17.25C16.9521 17.2932 16.9328 17.3282 16.9118 17.3662C16.8881 17.4091 16.8623 17.4558 16.8297 17.5227C16.7684 17.6489 16.6968 17.7716 16.6422 17.8636C16.5877 17.9557 16.5331 18.0409 16.4752 18.1295L16.3627 18.3102L16.5093 18.4602L16.7377 18.6545C16.8001 18.7035 16.8726 18.7555 16.9373 18.8017L16.9376 18.8019L16.9377 18.802C16.9719 18.8265 17.0038 18.8493 17.0309 18.8693C17.1093 18.9273 17.1672 18.9682 17.2695 19.0364C17.3659 19.1006 17.4865 19.1709 17.5685 19.2187L17.5686 19.2188L17.5687 19.2189L17.5831 19.2273L17.609 19.2425L17.6375 19.2595L17.638 19.2598L17.6381 19.2598C17.6933 19.2927 17.7439 19.323 17.832 19.367C17.9479 19.425 18.0877 19.4898 18.1729 19.5273C18.2013 19.5398 18.2278 19.5511 18.2544 19.5625C18.3074 19.5852 18.3604 19.6079 18.4286 19.6398C18.5309 19.6875 18.6843 19.742 18.7695 19.7693C18.8028 19.78 18.8299 19.7896 18.858 19.7996L18.858 19.7996L18.858 19.7996L18.8581 19.7996L18.8581 19.7996C18.9019 19.8152 18.9484 19.8317 19.0252 19.8545C19.1136 19.8808 19.2271 19.9071 19.3152 19.9275L19.3153 19.9275L19.3154 19.9275C19.353 19.9362 19.386 19.9439 19.4104 19.95C19.4354 19.9562 19.4604 19.9628 19.4854 19.9694L19.4857 19.9695C19.5427 19.9844 19.6002 19.9995 19.6593 20.0114C19.7678 20.032 19.8783 20.0468 19.9893 20.0617L19.9897 20.0617L20.0278 20.0669L20.0956 20.0761C20.1252 20.0789 20.1542 20.0847 20.1833 20.0904C20.2247 20.0986 20.2664 20.1068 20.3104 20.1068C20.5286 20.1375 20.7502 20.1375 20.9718 20.1375C24.7374 20.1375 27.79 17.0849 27.79 13.3193C27.79 9.55373 24.7374 6.50113 20.9718 6.50113C20.7509 6.50049 20.5301 6.51187 20.3104 6.53522L20.0956 6.56249C20.0602 6.56744 20.0247 6.57219 19.9893 6.57693C19.8783 6.59179 19.7678 6.60659 19.6593 6.62726C19.6066 6.6378 19.5709 6.64703 19.5215 6.65979L19.5214 6.65981L19.5213 6.65982L19.5213 6.65983L19.5213 6.65984C19.4908 6.66771 19.4551 6.67693 19.407 6.68863C19.3739 6.69668 19.3406 6.7045 19.3072 6.71232C19.2133 6.73433 19.1191 6.75642 19.0286 6.78408L18.7661 6.87272C18.7095 6.89464 18.6411 6.91949 18.5762 6.94309L18.576 6.94317L18.5759 6.94319L18.5758 6.94323L18.5757 6.94327C18.5196 6.96365 18.4662 6.98308 18.4252 6.99885C18.3798 7.01631 18.3451 7.03287 18.3057 7.05174C18.268 7.06972 18.226 7.08981 18.1661 7.11476C18.0434 7.1659 17.9104 7.22726 17.8252 7.27158C17.7591 7.30597 17.7073 7.33625 17.638 7.37677L17.5729 7.41476C17.4672 7.47613 17.3513 7.54431 17.2661 7.59885C17.1809 7.6534 17.1127 7.69772 17.0172 7.76931C16.9677 7.80647 16.9154 7.84639 16.8651 7.88477L16.8651 7.8848L16.8645 7.88526C16.8181 7.92064 16.7734 7.9547 16.7343 7.98408C16.668 8.0338 16.6062 8.08799 16.5434 8.14303L16.5434 8.14308L16.5433 8.14311ZM14.1706 12.842V12.692C14.1706 12.6128 14.1822 12.5335 14.1937 12.4542C14.1975 12.4278 14.2013 12.4014 14.2047 12.375C14.2123 12.3166 14.2177 12.2874 14.2222 12.2631C14.2259 12.2435 14.229 12.2271 14.232 12.2011C14.2388 12.1432 14.2661 12.0068 14.2866 11.9114L14.3275 11.7341C14.3417 11.6678 14.3591 11.6033 14.3765 11.5392L14.3765 11.5392L14.3765 11.5391L14.3765 11.5391L14.3765 11.5391L14.3765 11.5391C14.3841 11.5108 14.3918 11.4827 14.3991 11.4545L14.4502 11.2841C14.4809 11.1852 14.515 11.0864 14.5491 10.9909L14.5691 10.9344L14.5691 10.9344C14.5844 10.891 14.5883 10.8801 14.6036 10.8443C14.6417 10.7387 14.6875 10.6356 14.7321 10.535L14.7321 10.5349L14.7536 10.4864L14.7843 10.4148C14.8456 10.2852 14.9138 10.1557 14.9854 10.0261C15.057 10.1557 15.1252 10.2852 15.1866 10.4148L15.2172 10.4864L15.2387 10.5349C15.2834 10.6355 15.3291 10.7387 15.3672 10.8443C15.3835 10.8821 15.3975 10.9221 15.4112 10.9608L15.4112 10.9609L15.4112 10.9609L15.4112 10.9609L15.4112 10.9609L15.4112 10.9609L15.4218 10.9909C15.4388 11.0386 15.49 11.1852 15.5206 11.2841L15.5718 11.4545C15.5791 11.4827 15.5867 11.5108 15.5943 11.5391C15.6117 11.6032 15.6292 11.6678 15.6434 11.7341L15.6843 11.9114C15.7047 12.0068 15.7218 12.1023 15.7388 12.2011C15.746 12.2424 15.7471 12.2695 15.7481 12.2912C15.7494 12.3214 15.7502 12.3413 15.7661 12.375C15.7849 12.4149 15.7891 12.5001 15.7933 12.5838L15.7933 12.5839C15.7951 12.6217 15.797 12.6592 15.8002 12.692V12.842V13.3125V13.7829V13.9329C15.8002 14.0122 15.7887 14.0915 15.7772 14.1707C15.7733 14.1971 15.7695 14.2236 15.7661 14.25C15.7586 14.3084 15.7531 14.3376 15.7486 14.3619C15.7449 14.3815 15.7419 14.3979 15.7388 14.4239C15.732 14.4818 15.7047 14.6182 15.6843 14.7136L15.6434 14.8909C15.6229 14.9864 15.5991 15.0784 15.5718 15.1704L15.5206 15.3443C15.49 15.4398 15.4559 15.5352 15.4218 15.6307C15.4072 15.6714 15.3989 15.6959 15.3925 15.7147L15.3925 15.7147C15.384 15.74 15.379 15.7548 15.3672 15.7841C15.3229 15.9 15.2718 16.0159 15.2206 16.125C15.2072 16.1502 15.1958 16.1764 15.1866 16.2034C15.1218 16.3329 15.057 16.4625 14.9854 16.592C14.9138 16.4625 14.8491 16.333 14.7843 16.2035L14.7843 16.2034C14.775 16.1764 14.7636 16.1502 14.7502 16.125C14.6991 16.0091 14.6479 15.8932 14.6036 15.7841C14.5831 15.7329 14.5661 15.6818 14.5491 15.6307C14.5428 15.6119 14.532 15.5813 14.5192 15.5452L14.5192 15.5452L14.5192 15.5451C14.4972 15.4829 14.4696 15.4047 14.4502 15.3443L14.3991 15.1704C14.3718 15.0784 14.3479 14.9864 14.3275 14.8909L14.3172 14.7136C14.2968 14.6182 14.2797 14.5227 14.2627 14.4239C14.2556 14.3825 14.2544 14.3555 14.2535 14.3338C14.2522 14.3036 14.2513 14.2837 14.2354 14.25C14.2166 14.2101 14.2124 14.1249 14.2083 14.0412C14.2064 14.0033 14.2045 13.9658 14.2013 13.9329V13.7829V13.3125C14.2013 13.2428 14.1932 13.1731 14.1852 13.1034C14.1751 13.0163 14.165 12.9292 14.1706 12.842ZM13.1888 9.07158C13.2468 8.9659 13.3081 8.85681 13.3729 8.75113V8.76135L13.3998 8.71642L13.3998 8.71641C13.4463 8.63932 13.4943 8.55955 13.54 8.45113L13.6491 8.27385L13.4922 8.13067L13.2638 7.93635C13.1684 7.86135 13.0559 7.77953 12.9741 7.72158C12.8922 7.66363 12.8343 7.62272 12.732 7.55453C12.6592 7.50603 12.5761 7.45752 12.5035 7.41515L12.5035 7.41514C12.4741 7.39796 12.4464 7.38179 12.4218 7.36703C12.4021 7.35525 12.3845 7.34436 12.3675 7.33389C12.3107 7.29891 12.2613 7.26845 12.1695 7.22385C12.1023 7.19121 12.0297 7.15857 11.9639 7.12898L11.9638 7.12895L11.9637 7.12889C11.9127 7.10597 11.8658 7.08488 11.8286 7.06703C11.7844 7.04582 11.7439 7.02826 11.7008 7.00963L11.7008 7.00961C11.6608 6.99232 11.6187 6.97409 11.5695 6.95113C11.4672 6.9034 11.3479 6.86249 11.2286 6.82499L10.9729 6.73635C10.8845 6.71007 10.771 6.68379 10.6828 6.66338L10.6828 6.66336L10.6827 6.66335C10.6451 6.65465 10.6121 6.64701 10.5877 6.6409C10.5609 6.6342 10.5341 6.62532 10.5072 6.61639C10.4519 6.59805 10.3962 6.57953 10.3388 6.57953C10.2303 6.55886 10.1198 6.54407 10.0089 6.52921L10.0088 6.52921L10.0088 6.52921L10.0088 6.5292L10.0088 6.5292C9.97338 6.52446 9.93792 6.51971 9.90246 6.51476L9.68769 6.48749C9.46802 6.46414 9.24724 6.45276 9.02633 6.4534C5.26075 6.4534 2.20814 9.506 2.20814 13.2716C2.20814 17.0372 5.26075 20.0898 9.02633 20.0898C9.24792 20.0898 9.46951 20.0795 9.68769 20.0591C9.71418 20.0555 9.73983 20.0506 9.76507 20.0458C9.81129 20.037 9.85616 20.0284 9.90246 20.0284C9.93792 20.0235 9.97338 20.0187 10.0088 20.014L10.0089 20.0139L10.0089 20.0139C10.1199 19.9991 10.2303 19.9843 10.3388 19.9636C10.3785 19.9557 10.4071 19.9477 10.4395 19.9388L10.4395 19.9388C10.4765 19.9285 10.5185 19.9168 10.5877 19.9023C10.7172 19.875 10.8877 19.8307 10.9729 19.8068C11.0359 19.7892 11.0895 19.7697 11.1559 19.7456L11.1564 19.7454L11.1568 19.7453L11.1582 19.7448C11.181 19.7365 11.2053 19.7276 11.232 19.7182C11.3377 19.6807 11.4843 19.6261 11.5729 19.592C11.6183 19.5746 11.653 19.558 11.6924 19.5392C11.7301 19.5212 11.7721 19.5011 11.832 19.4761C11.9547 19.425 12.0877 19.3636 12.1729 19.3193C12.219 19.2954 12.2581 19.2724 12.301 19.2472L12.301 19.2472L12.3011 19.2471L12.3012 19.2471L12.3012 19.2471C12.3376 19.2257 12.3767 19.2027 12.4252 19.1761C12.5309 19.1182 12.6331 19.0568 12.7354 18.992L12.9775 18.8216C13.0763 18.7534 13.1888 18.6682 13.2672 18.6068C13.3254 18.5613 13.3817 18.512 13.4375 18.4632L13.4375 18.4631L13.4676 18.4369L13.4956 18.4125L13.6525 18.2693C13.6343 18.2421 13.6215 18.2196 13.6079 18.1955L13.6079 18.1955C13.5907 18.1653 13.5722 18.1326 13.54 18.0852C13.482 18 13.4445 17.942 13.3763 17.8261C13.3082 17.7102 13.2468 17.5978 13.1855 17.4853L13.1854 17.4852L13.0422 17.2193C12.9843 17.1136 12.9161 16.967 12.8786 16.8784C12.8575 16.8286 12.8397 16.7875 12.8191 16.7398L12.819 16.7396L12.8189 16.7393C12.8028 16.7022 12.785 16.6612 12.7627 16.6091C12.726 16.5235 12.6894 16.4204 12.659 16.335L12.6589 16.335L12.6589 16.3349C12.647 16.3012 12.636 16.2703 12.6263 16.2443L12.6039 16.1843C12.5802 16.1216 12.5589 16.065 12.5275 15.9682C12.4896 15.8515 12.4489 15.7 12.4241 15.6077L12.4241 15.6076L12.4241 15.6076L12.4241 15.6076L12.4184 15.5864C12.3945 15.4977 12.3809 15.4466 12.3468 15.3136C12.3205 15.2111 12.2962 15.0782 12.2787 14.9821L12.2786 14.9818C12.2734 14.9534 12.2689 14.9282 12.265 14.9079C12.2592 14.8779 12.2515 14.8483 12.2438 14.8188L12.2438 14.8188L12.2438 14.8188L12.2438 14.8187L12.2437 14.8187C12.2287 14.7611 12.2138 14.704 12.2138 14.6454L12.2054 14.5936L12.2011 14.5678C12.1803 14.4428 12.1593 14.3163 12.1593 14.192C12.1354 14.117 12.1354 14.042 12.1354 13.9636C12.1081 13.742 12.1081 13.5034 12.1081 13.2818C12.1081 13.0602 12.1184 12.8318 12.1354 12.6C12.1379 12.5724 12.1418 12.5447 12.1458 12.5169V12.5169V12.5169V12.5169C12.1525 12.4692 12.1593 12.4211 12.1593 12.3716C12.1636 12.3332 12.1678 12.2946 12.1719 12.256L12.1719 12.2559L12.1719 12.2559L12.1719 12.2558L12.1719 12.2558V12.2558C12.184 12.1434 12.1961 12.0306 12.2138 11.9216C12.2213 11.8711 12.2288 11.8349 12.238 11.7906L12.238 11.7906C12.2455 11.7542 12.2542 11.7122 12.265 11.6523C12.2888 11.5193 12.3263 11.342 12.3468 11.25C12.3618 11.1825 12.3768 11.1297 12.3971 11.0579L12.3972 11.0579C12.4046 11.0318 12.4127 11.0032 12.4218 10.9704L12.4358 10.9196L12.4511 10.8634L12.4512 10.8633L12.4512 10.8632C12.4777 10.7659 12.5052 10.6646 12.5275 10.5954L12.5446 10.5412C12.5681 10.4665 12.5906 10.395 12.6263 10.3125C12.6557 10.2447 12.6881 10.1589 12.7175 10.0809L12.7175 10.0809C12.7325 10.0413 12.7467 10.0037 12.7593 9.97158C12.7808 9.91677 12.8012 9.87207 12.8244 9.82135L12.8244 9.82131C12.8416 9.78372 12.8602 9.74282 12.882 9.69203C12.9152 9.61458 12.9541 9.53426 12.9895 9.46132L12.9895 9.4613L12.9895 9.46126L12.9895 9.46124C13.0086 9.42184 13.0267 9.3846 13.0422 9.35113C13.0809 9.2678 13.1196 9.19747 13.1674 9.11065L13.1674 9.11061L13.1674 9.11059L13.1888 9.07158ZM7.52633 1.02272H10.54L11.0343 1.56817H7.05928L7.52633 1.02272ZM9.02633 4.25453L10.9934 2.24658L7.02178 2.23635L9.02633 4.25453ZM9.02633 21.5079C4.50763 21.5079 0.844509 17.8448 0.844509 13.3261C0.844509 8.80743 4.50763 5.14431 9.02633 5.14431C11.1743 5.13888 13.2366 5.98612 14.7604 7.49999C15.0724 7.80512 15.3597 8.13457 15.6195 8.48522C16.6555 9.88619 17.2126 11.5837 17.2081 13.3261C17.2081 13.5375 17.2081 13.7454 17.1843 13.9568C17.1843 14.025 17.1843 14.0932 17.1604 14.1614C17.1604 14.2719 17.1434 14.3803 17.1261 14.4899L17.126 14.4904C17.1215 14.5192 17.1169 14.5482 17.1127 14.5773C17.1127 14.6281 17.0998 14.6803 17.087 14.7321C17.0801 14.7603 17.0732 14.7883 17.0684 14.8159C17.0547 14.8943 17.0206 15.0648 16.9934 15.1841C16.9762 15.259 16.9632 15.307 16.9507 15.3527C16.9434 15.3797 16.9362 15.4059 16.9286 15.4364C16.9081 15.5182 16.8638 15.6682 16.8297 15.7773C16.7991 15.8753 16.7767 15.9347 16.7503 16.0051L16.7503 16.0051L16.7411 16.0295C16.7265 16.0685 16.708 16.1207 16.6878 16.1776L16.6877 16.1779C16.6656 16.2402 16.6415 16.3081 16.6184 16.3704C16.5835 16.4642 16.5613 16.5138 16.5352 16.5721L16.5127 16.6227C16.4752 16.7079 16.4172 16.8341 16.3661 16.9364C16.315 17.0386 16.2809 17.1034 16.2366 17.1852C16.2001 17.2526 16.1474 17.3453 16.0976 17.4331L16.0975 17.4332L16.0661 17.4886C16.0081 17.5909 15.9706 17.6489 15.9195 17.7273C15.8867 17.7776 15.8777 17.79 15.8701 17.8006L15.8701 17.8006L15.8701 17.8006C15.8659 17.8065 15.862 17.8118 15.8547 17.8227L15.7729 17.7273C15.6911 17.6284 15.6127 17.5295 15.5343 17.4239L15.4116 17.2568L15.49 17.117C15.5343 17.0455 15.5751 16.9739 15.616 16.9024L15.6161 16.9023C15.657 16.8307 15.7047 16.7318 15.7456 16.6466C15.7634 16.6097 15.7798 16.5773 15.7955 16.5463L15.7955 16.5462C15.8161 16.5056 15.8354 16.4675 15.8547 16.425L15.9672 16.1591C15.9979 16.0841 16.0286 16.0091 16.0559 15.9341C16.0831 15.8591 16.1206 15.75 16.1513 15.6545C16.1628 15.6188 16.1729 15.5893 16.182 15.5624L16.182 15.5623C16.1973 15.5174 16.2101 15.4798 16.2229 15.4329L16.2318 15.4004C16.2523 15.3255 16.2807 15.222 16.3013 15.1364C16.3136 15.0854 16.3232 15.048 16.332 15.0139C16.3402 14.9819 16.3476 14.9528 16.3559 14.9182C16.3659 14.8762 16.377 14.8109 16.3887 14.7427C16.3969 14.6945 16.4054 14.6449 16.4138 14.6011L16.4199 14.5697L16.4199 14.5696C16.4357 14.4884 16.4418 14.4571 16.4479 14.3932C16.451 14.3604 16.4577 14.3085 16.465 14.2516L16.465 14.2515L16.4651 14.2513C16.4737 14.1839 16.4833 14.1095 16.4888 14.0523C16.4888 13.9909 16.4888 13.9329 16.5059 13.875C16.5059 13.7868 16.5109 13.6977 16.516 13.6082C16.5212 13.5179 16.5263 13.4271 16.5263 13.3364C16.5263 13.1557 16.5263 12.917 16.4991 12.7091C16.4116 11.6418 16.0953 10.6058 15.5718 9.67158C15.4797 9.51135 15.3843 9.35794 15.282 9.20453C15.1477 8.99969 15.0032 8.80171 14.8491 8.61135C14.692 8.41624 14.5248 8.22961 14.3479 8.05226C11.9597 5.62513 8.2361 5.11143 5.27992 6.80126C2.32373 8.49109 0.876895 11.9603 1.75647 15.2499C2.63604 18.5394 5.62126 20.8236 9.02633 20.8125C9.26837 20.8125 9.51042 20.8125 9.75246 20.7784L9.98769 20.7443C10.1479 20.7239 10.3047 20.7034 10.4616 20.6727C10.5254 20.6727 10.5892 20.6531 10.6541 20.633C10.6829 20.6242 10.7118 20.6153 10.7411 20.6079C10.7704 20.6006 10.8076 20.592 10.8492 20.5825C10.9431 20.5608 11.059 20.534 11.1536 20.5057L11.44 20.4102L11.4401 20.4102C11.5696 20.3659 11.6991 20.3216 11.8218 20.2704C11.9445 20.2193 12.0161 20.1886 12.1081 20.1443C12.1416 20.1282 12.1827 20.1094 12.2271 20.0891L12.2272 20.089C12.3052 20.0534 12.3936 20.0129 12.4695 19.9739C12.549 19.9329 12.6043 19.9011 12.6596 19.8693C12.6873 19.8534 12.715 19.8375 12.7456 19.8204C12.8377 19.7693 12.9741 19.6875 13.0866 19.6159C13.1991 19.5443 13.2672 19.4966 13.3559 19.4318L13.3864 19.4095C13.4714 19.3475 13.5785 19.2694 13.6695 19.1966L13.6696 19.1965C13.7718 19.1147 13.84 19.0602 13.9218 18.9886C13.9643 18.9514 13.9902 18.9317 14.0121 18.9151C14.0322 18.8998 14.0489 18.8872 14.0718 18.8659L14.1843 18.9954L14.3991 19.2409L14.515 19.3739C13.0154 20.7428 11.0568 21.4995 9.02633 21.4943V21.5079ZM15.2241 19.1557C16.7499 20.6661 18.8112 21.5117 20.9581 21.5079L20.9718 21.4943C25.4905 21.4943 29.1536 17.8312 29.1536 13.3125C29.1536 8.79379 25.4905 5.13067 20.9718 5.13067C18.9423 5.12535 16.9848 5.88209 15.4866 7.25113L15.6059 7.38749C15.6297 7.41477 15.6578 7.44659 15.6858 7.47842C15.7419 7.54205 15.7979 7.60567 15.8206 7.63294C15.8346 7.64964 15.8496 7.66633 15.8649 7.68325C15.887 7.70781 15.9096 7.73285 15.9297 7.75908C15.9527 7.73779 15.9693 7.72516 15.9895 7.70984C16.0113 7.69327 16.0372 7.67356 16.0797 7.63635C16.1615 7.56477 16.2297 7.51022 16.332 7.42842L16.332 7.4284C16.4343 7.34658 16.54 7.26817 16.6491 7.18976L16.9116 7.00908C17.0241 6.93749 17.1604 6.85567 17.2525 6.80453C17.2831 6.78749 17.3108 6.77158 17.3384 6.75567C17.3937 6.72385 17.4491 6.69204 17.5286 6.65113C17.6479 6.58976 17.7945 6.51817 17.89 6.47726C17.9244 6.46251 17.9539 6.44908 17.9837 6.43555C18.0365 6.41156 18.0901 6.38723 18.1729 6.35453C18.3025 6.3034 18.432 6.25908 18.5616 6.21476L18.8445 6.11931C18.933 6.09275 19.0431 6.06763 19.1346 6.04674C19.1841 6.03545 19.2281 6.02541 19.2604 6.01703C19.2875 6.01002 19.3146 6.00152 19.3416 5.99303C19.4066 5.97265 19.4716 5.95226 19.5366 5.95226C19.6871 5.92281 19.8408 5.90278 19.9916 5.88313L20.0104 5.88067L20.2456 5.84658C20.4877 5.81249 20.7297 5.81249 20.9718 5.81249C24.3677 5.81983 27.3349 8.10801 28.2051 11.3905C29.0754 14.673 27.6315 18.1306 24.6852 19.8194C21.739 21.5081 18.0257 21.0065 15.6331 18.5966C15.2837 18.245 14.9708 17.8589 14.6991 17.4443C13.9976 16.3844 13.5787 15.1628 13.482 13.8954C13.4581 13.7045 13.4581 13.4932 13.4581 13.3125C13.4581 13.2221 13.4633 13.1327 13.4684 13.0432C13.4735 12.9537 13.4786 12.8642 13.4786 12.7739C13.4956 12.7125 13.4956 12.6545 13.4956 12.5932C13.502 12.5441 13.509 12.4826 13.5158 12.4236C13.5236 12.3555 13.5311 12.2906 13.5366 12.2523C13.5384 12.239 13.5401 12.227 13.5417 12.2157C13.5486 12.1656 13.554 12.127 13.5706 12.0409C13.5791 11.997 13.5876 11.9485 13.5959 11.9014C13.6075 11.8349 13.6186 11.7711 13.6286 11.7273C13.6304 11.7194 13.6321 11.7118 13.6338 11.7044C13.648 11.6416 13.6587 11.5941 13.6831 11.5057C13.6988 11.449 13.7155 11.3856 13.7309 11.3276C13.7422 11.2845 13.7528 11.2445 13.7616 11.2125C13.7784 11.1506 13.7953 11.1004 13.8179 11.033C13.8227 11.0187 13.8278 11.0036 13.8331 10.9875C13.8638 10.8954 13.9013 10.7864 13.9286 10.7114C13.9559 10.6364 13.9797 10.575 14.0172 10.4864C14.0344 10.4457 14.0538 10.4022 14.0726 10.3598C14.0949 10.3097 14.1165 10.2611 14.1331 10.2204C14.1505 10.178 14.1689 10.1422 14.1891 10.103C14.2046 10.0729 14.221 10.0408 14.2388 10.0023C14.2701 9.93456 14.3093 9.86088 14.3428 9.79796C14.3531 9.7785 14.3629 9.76008 14.3718 9.74317C14.3992 9.69078 14.4285 9.64022 14.4582 9.58881C14.4692 9.56997 14.4801 9.55101 14.4911 9.53181L14.5729 9.39203L14.4468 9.21817C14.3718 9.1159 14.2934 9.01703 14.2116 8.91817L14.1297 8.82953L14.0616 8.9284C14.0295 8.97873 14.0052 9.01985 13.9741 9.07237C13.9588 9.0981 13.942 9.12658 13.9218 9.16022C13.9142 9.17281 13.9065 9.18572 13.8986 9.19883C13.8425 9.2921 13.7804 9.39529 13.7445 9.46703C13.7309 9.4943 13.7188 9.5193 13.7066 9.5443C13.6824 9.5943 13.6581 9.6443 13.6218 9.71249C13.5783 9.79408 13.5326 9.89521 13.4968 9.97431C13.4878 9.99436 13.4794 10.013 13.4718 10.0295C13.4664 10.0413 13.4613 10.0523 13.4564 10.063C13.427 10.1265 13.4041 10.1762 13.3661 10.2784C13.3352 10.3616 13.3026 10.4531 13.2754 10.5297C13.2635 10.563 13.2527 10.5935 13.2434 10.6193C13.235 10.6426 13.2271 10.6639 13.2194 10.6848C13.1989 10.7401 13.1795 10.7923 13.1547 10.8716C13.1206 10.9807 13.0763 11.1273 13.0559 11.2125C13.0475 11.2472 13.0398 11.2752 13.0316 11.3044C13.0198 11.3469 13.0073 11.3921 12.9911 11.4648C12.9638 11.5875 12.9297 11.7511 12.9161 11.8329C12.9112 11.8626 12.904 11.8917 12.8969 11.9208C12.8843 11.972 12.8718 12.0228 12.8718 12.075C12.868 12.1005 12.8639 12.1261 12.8598 12.1519C12.8421 12.2637 12.8241 12.3773 12.8241 12.4909C12.8002 12.5591 12.8002 12.6273 12.8002 12.6954C12.7763 12.9034 12.7763 13.1148 12.7763 13.3261C12.7728 15.0684 13.3298 16.7656 14.365 18.167C14.6263 18.5175 14.9134 18.848 15.2241 19.1557Z" fill="black"/>
</svg>
