<svg width="50" height="50" viewBox="0 0 50 50" fill="none" xmlns="http://www.w3.org/2000/svg">
<path fill-rule="evenodd" clip-rule="evenodd" d="M0 25C0 11.1928 11.1922 0 25 0C38.8072 0 50 11.1928 50 25C50 38.8072 38.8072 50 25 50C11.1922 50 0 38.8072 0 25ZM2.77778 25C2.77778 37.2533 12.7467 47.2222 25 47.2222C37.2533 47.2222 47.2222 37.2533 47.2222 25C47.2222 12.7467 37.2533 2.77778 25 2.77778C12.7467 2.77778 2.77778 12.7467 2.77778 25Z" fill="white"/>
<path fill-rule="evenodd" clip-rule="evenodd" d="M18.8763 13.4178H28.6163C31.1991 13.4178 33.143 14.0756 34.4469 15.3911C35.7507 16.7061 36.403 18.5495 36.403 20.9195C36.403 23.2906 35.7507 25.1328 34.4469 26.4483C33.143 27.7645 31.1991 28.4222 28.6163 28.4222H22.2541V31.1339H31.3763V33.9778H22.2541V38.805H18.8763V33.9783H15.543V31.1345H18.8763V28.4228H15.543V25.5783H18.8763V13.4178ZM27.478 25.5783C29.398 25.5783 30.8024 25.1811 31.6913 24.3867C32.5807 23.5928 33.0246 22.4372 33.0246 20.92C33.0246 19.4039 32.5807 18.2483 31.6913 17.4539C30.8024 16.6595 29.398 16.2622 27.478 16.2622H22.2541V25.5783H27.478Z" fill="white"/>
</svg>
