<svg width="50" height="50" viewBox="0 0 50 50" fill="none" xmlns="http://www.w3.org/2000/svg">
<path fill-rule="evenodd" clip-rule="evenodd" d="M24.9999 0.48053C31.7705 0.48053 37.8999 3.22497 42.3377 7.6622C46.7749 12.0994 49.5194 18.2294 49.5194 25C49.5194 31.77 46.7755 37.9016 42.3382 42.3383C37.9005 46.775 31.771 49.5194 24.9999 49.5194C18.2288 49.5194 12.0988 46.7755 7.66158 42.3383C3.22547 37.9016 0.480469 31.77 0.480469 25C0.480469 18.2294 3.22547 12.0994 7.66214 7.6622C12.0994 3.22497 18.2294 0.48053 24.9999 0.48053ZM25.0527 23.1961C24.6377 23.1961 24.2549 23.3305 23.9449 23.5589L16.6366 19.3805L15.8982 20.6711L23.1966 24.8428C23.1871 24.9155 23.1838 24.99 23.1838 25.0655C23.1838 26.0978 24.021 26.9344 25.0532 26.9344C26.0855 26.9344 26.9232 26.0978 26.9232 25.0655C26.9232 24.8122 26.8721 24.5711 26.7821 24.3511L37.7977 13.9316C36.0821 12.2033 34.7999 11.0183 32.5744 9.90109C30.7571 8.98997 28.7755 8.40609 26.7238 8.19609L26.611 9.30275C28.5316 9.49997 30.3816 10.0444 32.0766 10.895C33.4871 11.6022 34.7927 12.5228 35.9438 13.6322L34.226 15.2583C33.3121 14.3928 32.2827 13.6628 31.1705 13.0872C29.9532 12.4572 28.641 12.0133 27.276 11.7783L27.0882 12.8772C28.3416 13.0933 29.5449 13.5 30.6605 14.0766C31.6566 14.5933 32.5844 15.2483 33.4155 16.0272L31.6444 17.7033C31.1866 17.2866 30.6916 16.9155 30.1677 16.5928C29.5144 16.1911 28.8105 15.865 28.0727 15.6228L27.7277 16.6822C28.3788 16.895 29.0016 17.1844 29.5844 17.5428C30.026 17.8139 30.4438 18.125 30.831 18.4722L25.7149 23.3172C25.5088 23.2383 25.2855 23.1961 25.0527 23.1961ZM15.8132 7.97775L14.3388 5.42275C17.1988 3.8622 20.4388 2.90942 23.8849 2.73942V7.65442H26.116V2.73942C29.5627 2.90942 32.8016 3.8622 35.6627 5.42275L34.1871 7.97775L35.1505 8.53164L36.6238 5.97942C38.1299 6.9022 39.5188 7.99775 40.761 9.23997C42.0021 10.4828 43.0982 11.8711 44.0216 13.3772L41.4694 14.8505L42.0227 15.8133L44.5771 14.3389C46.1377 17.1994 47.0899 20.4389 47.2605 23.8844H42.346V26.1161H47.2605C47.0899 29.5628 46.1377 32.8027 44.5771 35.6628L42.0227 34.1872L41.4694 35.1505L44.0216 36.6239C43.0982 38.1311 42.0021 39.5189 40.761 40.7611C39.5188 42.0033 38.1299 43.0983 36.6238 44.0216L35.1505 41.4683L34.1871 42.0228L35.6627 44.5761C32.801 46.1378 29.5621 47.09 26.116 47.2605V42.3472H23.8849V47.2605C20.4394 47.09 17.1999 46.1378 14.3394 44.5761L15.8138 42.0228L14.851 41.4683L13.3777 44.0216C11.871 43.0983 10.4827 42.0033 9.23991 40.7611C7.99825 39.5189 6.90214 38.1311 5.97936 36.6239L8.53214 35.1505L7.97825 34.1872L5.42325 35.6628C3.86214 32.8022 2.90991 29.5622 2.73936 26.1161H7.6538V23.8844H2.7388C2.90936 20.4389 3.86158 17.1989 5.42269 14.3389L7.97769 15.8133L8.53158 14.8505L5.9788 13.3772C6.90158 11.8711 7.99769 10.4828 9.23936 9.23997C10.4827 7.99775 11.871 6.90164 13.3771 5.97942L14.8505 8.53164L15.8132 7.97775Z" fill="white"/>
</svg>
