<svg width="36" height="25" viewBox="0 0 36 25" fill="none" xmlns="http://www.w3.org/2000/svg">
<path fill-rule="evenodd" clip-rule="evenodd" d="M34.735 2.77496C34.9593 3.01324 35.2601 3.16538 35.5849 3.20496C35.7594 3.22977 35.8892 3.37877 35.8899 3.55496V6.14496C35.8889 6.19149 35.8787 6.23736 35.86 6.27996L35.075 8.14996C35.1351 11.0617 35.2253 14.8997 35.2729 16.9254C35.2926 17.7625 35.305 18.2901 35.305 18.315C35.3077 18.4108 35.2714 18.5037 35.2046 18.5725C35.1377 18.6412 35.0459 18.68 34.95 18.68H34.5149C34.5249 21.26 34.6399 22.43 34.735 22.64C34.8042 22.772 34.8827 22.899 34.97 23.02C35.22 23.39 35.5 23.81 35.2999 24.185C35.0955 24.4617 34.7556 24.6039 34.415 24.555H3.24495C2.90434 24.6039 2.56439 24.4617 2.35995 24.185C2.15995 23.81 2.43995 23.39 2.68995 23.02C2.77719 22.899 2.85572 22.772 2.92495 22.64C3.02495 22.425 3.14495 21.255 3.14495 18.68H2.70995C2.61404 18.68 2.52219 18.6412 2.45532 18.5725C2.38845 18.5037 2.35225 18.4108 2.35495 18.315C2.35495 18.3023 2.36114 18.035 2.37167 17.5806L2.37167 17.5802C2.38617 16.9542 2.40888 15.9735 2.43495 14.815L2.42023 14.8036C2.18943 14.6268 0.444199 13.2893 0.21995 11.315C-5.00377e-05 9.20996 1.99995 4.73995 2.56995 3.97496C2.59615 3.94105 2.62835 3.91223 2.66495 3.88996C2.75495 2.70496 3.08495 2.44496 3.75495 2.20496C4.16995 2.05996 8.07995 2.07496 15.6349 2.15496L18.8349 2.18496L22.035 2.15496L24.7299 2.12496C25.115 1.59996 26.495 0.0899552 29.68 0.204955C33.06 0.319955 33.7099 1.27496 34.4599 2.37996L34.6549 2.65996C34.6841 2.69652 34.7108 2.73493 34.735 2.77496ZM33.4049 2.13996C32.8299 1.45996 32.0049 0.989955 29.6549 0.909955C27.5 0.834955 26.2699 1.57496 25.6849 2.10996C29.8099 2.07496 32.3649 2.07496 33.4049 2.13996ZM2.55996 9.59661L2.55997 9.59657C2.6018 7.87304 2.63995 6.30135 2.63995 5.33496L2.63495 5.30996C2.41995 5.76496 2.16995 6.33496 1.93495 6.97996C1.56995 8.67996 1.41995 10.765 2.50995 11.72C2.52572 11.0076 2.54313 10.2903 2.55994 9.59755L2.55995 9.59711L2.55996 9.59676L2.55996 9.59661ZM0.92495 11.235C0.897699 10.8467 0.922926 10.4565 0.99995 10.075C1.05343 11.0979 1.61688 12.0258 2.49995 12.545L2.45495 13.9C1.65197 13.2154 1.11125 12.2736 0.92495 11.235ZM34.3849 23.43C34.2752 23.2712 34.1782 23.104 34.095 22.93C33.915 22.54 33.82 21.1 33.8149 18.68H23.9399V19.45C23.9399 19.646 23.781 19.805 23.5849 19.805H14.085C13.8889 19.805 13.7299 19.646 13.7299 19.45V18.68H3.84995C3.83995 21.1 3.74995 22.54 3.56995 22.93C3.48678 23.1041 3.38981 23.2713 3.27995 23.43C3.18691 23.5622 3.10337 23.7009 3.02995 23.845C3.10314 23.8514 3.17676 23.8514 3.24995 23.845H34.415C34.4881 23.8514 34.5618 23.8514 34.6349 23.845C34.5615 23.7009 34.478 23.5622 34.3849 23.43ZM18.5 17.47H23.2299V17.97H14.4399V17.47H18.5ZM23.2299 18.68H18.5H14.4399V19.095H23.2299V18.68ZM23.94 17.96V17.12C23.94 16.9239 23.781 16.765 23.5849 16.765H14.085C13.8889 16.765 13.7299 16.9239 13.7299 17.12V17.975H3.06995C3.11995 15.935 3.35495 5.94995 3.35495 4.47496C3.35495 3.07197 3.51328 3.01704 3.91599 2.87733C3.93666 2.87016 3.95798 2.86277 3.97995 2.85496C4.53995 2.71996 11.755 2.79996 15.625 2.85496L18.5 2.88496H19.195L22.0499 2.85496L22.5248 2.85004H22.5248C26.4849 2.80894 33.1567 2.7397 33.6849 2.85496C34.1499 3.01996 34.3249 3.08496 34.3249 4.47996C34.3249 4.97996 34.3499 6.34495 34.3849 8.07495C34.4346 10.4226 34.5018 13.3886 34.5503 15.5267L34.5503 15.5271L34.5504 15.5314C34.575 16.6196 34.5948 17.4928 34.6049 17.96H23.94ZM35.0499 6.40495L35.1899 6.07495L35.1699 6.08496V3.84996L34.9749 3.78496C35 3.99996 35 4.19995 35 4.49996C35 4.65617 35.0081 4.92083 35.0187 5.26641C35.0285 5.58452 35.0404 5.97119 35.0499 6.40495Z" fill="black"/>
</svg>
