<svg width="22" height="35" viewBox="0 0 22 35" fill="none" xmlns="http://www.w3.org/2000/svg">
<path fill-rule="evenodd" clip-rule="evenodd" d="M19.191 15.8201C19.191 15.6243 19.35 15.4653 19.5458 15.4653C20.5181 15.4653 21.3087 16.1516 21.3087 16.9954V17.7788C21.3087 18.6219 20.5181 19.3089 19.5458 19.3089C19.35 19.3089 19.191 19.1499 19.191 18.9541V17.7419H18.5665C18.4529 20.6275 16.9825 23.1646 14.7697 24.733V32.868C14.7697 33.8466 13.9742 34.6422 12.9955 34.6422H6.16488C5.18695 34.6422 4.39069 33.8466 4.39069 32.868V24.7337C2.08707 23.1007 0.576172 20.4203 0.576172 17.3878C0.576172 14.3554 2.08707 11.6742 4.39069 10.0419V1.90762C4.39069 0.929681 5.18695 0.133423 6.16488 0.133423H12.9955C13.9742 0.133423 14.7697 0.929681 14.7697 1.90762V10.0412C16.9832 11.6096 18.4537 14.1474 18.5665 17.0323H19.191V15.8201ZM12.9962 0.8431H6.16559C5.57798 0.8431 5.10108 1.32 5.10037 1.90691V3.54839H9.22572V1.8331C9.22572 1.63723 9.38469 1.47826 9.58056 1.47826C9.77643 1.47826 9.9354 1.63723 9.9354 1.8331V3.54839H14.0608V1.90762C14.0608 1.32071 13.5831 0.8431 12.9962 0.8431ZM5.10108 4.25807H14.0608V9.58775C12.74 8.82555 11.2121 8.38271 9.58056 8.38271C7.94901 8.38271 6.42178 8.82555 5.10037 9.58775V4.25807H5.10108ZM12.9962 33.9318C13.5831 33.9318 14.0608 33.4542 14.0608 32.8673H14.0615V25.1865C12.74 25.9479 11.2128 26.3908 9.58127 26.3908C7.94972 26.3908 6.42178 25.9479 5.10108 25.1865V32.8673C5.10108 33.4542 5.57869 33.9318 6.16559 33.9318H12.9962ZM9.58056 25.6818C5.0074 25.6818 1.28585 21.961 1.28585 17.3871C1.28585 12.8132 5.0074 9.0931 9.58056 9.0931C14.1537 9.0931 17.8753 12.8139 17.8753 17.3871C17.8753 21.9603 14.1537 25.6818 9.58056 25.6818ZM19.9007 18.5481C20.3066 18.4339 20.599 18.1337 20.599 17.7788V16.9961C20.599 16.6405 20.3066 16.341 19.9007 16.2268V18.5481Z" fill="black"/>
<path fill-rule="evenodd" clip-rule="evenodd" d="M9.58121 29.4289C8.99572 29.4289 8.51953 28.9527 8.51953 28.3672C8.51953 27.7818 8.99572 27.3063 9.58121 27.3063C10.1667 27.3063 10.6429 27.7825 10.6429 28.3672C10.6429 28.9527 10.1667 29.4289 9.58121 29.4289ZM9.58121 28.7192C9.77495 28.7192 9.93321 28.561 9.93321 28.3672C9.93321 28.1728 9.77566 28.016 9.58121 28.016C9.38676 28.016 9.22921 28.1735 9.22921 28.3672C9.22921 28.561 9.38747 28.7192 9.58121 28.7192Z" fill="black"/>
<path fill-rule="evenodd" clip-rule="evenodd" d="M8.51953 31.7148C8.51953 31.1293 8.99572 30.6531 9.58121 30.6531C10.1667 30.6531 10.6429 31.1293 10.6429 31.7148C10.6429 32.2995 10.1667 32.7757 9.58121 32.7757C8.99572 32.7757 8.51953 32.2995 8.51953 31.7148ZM9.22921 31.7155C9.22921 31.9092 9.38747 32.0668 9.58121 32.0668C9.77495 32.0668 9.93321 31.9092 9.93321 31.7155C9.93321 31.5217 9.77566 31.3635 9.58121 31.3635C9.38676 31.3635 9.22921 31.5217 9.22921 31.7155Z" fill="black"/>
<path fill-rule="evenodd" clip-rule="evenodd" d="M14.9384 12.0102C14.9422 12.0123 14.946 12.0144 14.9493 12.0177C14.9528 12.0208 14.9551 12.0248 14.9573 12.0289C14.9591 12.0321 14.9609 12.0354 14.9635 12.0383C16.3282 13.4115 17.1734 15.3021 17.1734 17.3871C17.1734 19.4722 16.3282 21.3627 14.9628 22.7367C14.9604 22.7394 14.9585 22.7426 14.9566 22.7459C14.9544 22.7495 14.9523 22.7532 14.9493 22.7565C14.9459 22.7604 14.9417 22.7627 14.9375 22.765C14.9348 22.7665 14.932 22.768 14.9294 22.77C13.5562 24.1355 11.6649 24.9807 9.57988 24.9807C7.49555 24.9807 5.60497 24.1355 4.23104 22.7707C4.22784 22.7679 4.2243 22.7658 4.22075 22.7636C4.2172 22.7615 4.21365 22.7594 4.21046 22.7565C4.20693 22.7534 4.2047 22.7494 4.20246 22.7454C4.20064 22.7421 4.19881 22.7388 4.19626 22.736C2.83155 21.3627 1.98633 19.4714 1.98633 17.3871C1.98633 15.3028 2.83155 13.4122 4.19555 12.039C4.19819 12.036 4.20007 12.0326 4.20196 12.0291C4.20413 12.0252 4.20633 12.0211 4.20975 12.0177C4.21316 12.0143 4.21719 12.0121 4.22118 12.0099C4.22464 12.008 4.22807 12.0062 4.23104 12.0035C5.60497 10.6388 7.49555 9.79358 9.57988 9.79358C11.6642 9.79358 13.5548 10.6388 14.9287 12.0035C14.9315 12.0063 14.9349 12.0082 14.9384 12.0102ZM16.446 17.742H15.5681C15.3716 17.742 15.2147 17.583 15.2147 17.3871C15.2147 17.1913 15.3737 17.0323 15.5696 17.0323H16.4474C16.3637 15.4015 15.7136 13.9225 14.686 12.7842L14.0665 13.4037C13.9969 13.4725 13.9061 13.5073 13.8152 13.5073C13.7244 13.5073 13.6336 13.4733 13.564 13.4037C13.4256 13.2653 13.4256 13.0404 13.564 12.902L14.1836 12.2831C13.0452 11.2555 11.5663 10.6055 9.93613 10.5217V11.3996C9.93613 11.5955 9.77717 11.7544 9.5813 11.7544C9.38542 11.7544 9.22646 11.5955 9.22646 11.3996V10.5217C7.59633 10.6055 6.11736 11.2555 4.97904 12.2831L5.59788 12.902C5.73626 13.0404 5.73626 13.2653 5.59788 13.4037C5.52833 13.4725 5.43749 13.5073 5.34665 13.5073C5.25581 13.5073 5.16497 13.4733 5.09542 13.4037L4.47659 12.7849C3.44897 13.9232 2.79891 15.4022 2.71517 17.0323H3.59304C3.78891 17.0323 3.94788 17.1913 3.94788 17.3871C3.94788 17.583 3.78891 17.742 3.59304 17.742H2.71517C2.79891 19.3721 3.44897 20.8511 4.47659 21.9894L5.09542 21.3698C5.23381 21.2315 5.45878 21.2315 5.59717 21.3698C5.73555 21.5082 5.73555 21.7332 5.59717 21.8716L4.97762 22.4911C6.11665 23.5187 7.59562 24.1688 9.22575 24.2525V23.3747C9.22575 23.1788 9.38472 23.0198 9.58059 23.0198C9.77646 23.0198 9.93542 23.1788 9.93542 23.3747V24.2525C11.5656 24.1688 13.0445 23.5187 14.1828 22.4911L13.5633 21.8716C13.4249 21.7332 13.4249 21.5082 13.5633 21.3698C13.7017 21.2315 13.9267 21.2315 14.065 21.3698L14.6846 21.9894C15.7122 20.8511 16.3623 19.3721 16.446 17.742Z" fill="black"/>
<path fill-rule="evenodd" clip-rule="evenodd" d="M10.2563 16.2807L12.4719 13.9494C12.6089 13.8075 12.8324 13.8018 12.9736 13.9374C13.1163 14.0722 13.1213 14.2972 12.9864 14.4391L10.7374 16.8052C10.8269 16.9812 10.8815 17.177 10.8815 17.3878C10.8815 18.106 10.2982 18.6894 9.57996 18.6894C8.86248 18.6894 8.27841 18.106 8.27841 17.3878C8.27841 17.2828 8.29473 17.182 8.31815 17.0841L6.65325 16.1288C6.48293 16.0309 6.42403 15.8145 6.52196 15.6441C6.61919 15.4738 6.83564 15.4149 7.00667 15.5128L8.66448 16.4638C8.90009 16.2303 9.22299 16.0856 9.57996 16.0856C9.82835 16.0856 10.059 16.1594 10.2563 16.2807ZM8.98809 17.3871C8.98809 17.7136 9.25351 17.979 9.57996 17.979C9.90641 17.979 10.1718 17.7136 10.1718 17.3871C10.1718 17.0607 9.90641 16.7952 9.57996 16.7952C9.25351 16.7952 8.98809 17.0607 8.98809 17.3871Z" fill="black"/>
</svg>
