<svg width="50" height="50" viewBox="0 0 50 50" fill="none" xmlns="http://www.w3.org/2000/svg">
<path d="M24.9989 49.4898C24.4354 49.4898 23.9785 49.0334 23.9785 48.4694V1.5306C23.9785 0.967085 24.4354 0.510193 24.9989 0.510193C25.5624 0.510193 26.0193 0.967085 26.0193 1.5306V48.4694C26.0193 49.0334 25.5624 49.4898 24.9989 49.4898Z" fill="white"/>
<path fill-rule="evenodd" clip-rule="evenodd" d="M6.24645 11.494C12.4686 13.3605 18.7345 14.2942 24.9999 14.2942C31.2654 14.2942 37.5313 13.3605 43.7534 11.494L45.1874 11.0635L44.2621 9.88619C39.5806 3.92766 32.5598 0.510193 24.9999 0.510193C17.4401 0.510193 10.4193 3.92766 5.73774 9.88619L4.8125 11.0635L6.24645 11.494ZM41.6678 9.96989C30.5997 13.0122 19.4002 13.0122 8.33211 9.96989C12.5921 5.23606 18.5845 2.55101 24.9999 2.55101C31.4154 2.55101 37.4078 5.23606 41.6678 9.96989Z" fill="white"/>
<path fill-rule="evenodd" clip-rule="evenodd" d="M0.509766 26.0204H49.4894V25C49.4894 19.465 47.6817 14.2389 44.2618 9.88619L43.8323 9.33911L43.1661 9.53891C31.1115 13.1562 18.8876 13.1562 6.83301 9.53891L6.16685 9.33911L5.73736 9.88619C2.3174 14.2389 0.509766 19.465 0.509766 25V26.0204ZM47.4261 23.9796H2.573C2.77031 19.5133 4.26256 15.2976 6.92518 11.6938C18.922 15.1606 31.0772 15.1606 43.0739 11.6938C45.7366 15.2976 47.2288 19.5133 47.4261 23.9796Z" fill="white"/>
<path fill-rule="evenodd" clip-rule="evenodd" d="M5.73774 40.1138C10.4188 46.0718 17.4396 49.4898 24.9999 49.4898C32.5598 49.4898 39.5811 46.0728 44.2621 40.1148L45.1874 38.9369L43.7534 38.5065C31.3112 34.7726 18.6921 34.7716 6.24695 38.5055L4.8125 38.9359L5.73774 40.1138ZM24.9999 47.449C18.584 47.449 12.5916 44.7634 8.33211 40.0291C19.4011 36.9878 30.6017 36.9888 41.6678 40.0301C37.4083 44.7634 31.4159 47.449 24.9999 47.449Z" fill="white"/>
<path fill-rule="evenodd" clip-rule="evenodd" d="M43.1661 40.4615L43.8323 40.6608L44.2618 40.1148C47.6817 35.7611 49.4894 30.5345 49.4894 25V23.9796H0.509766V25C0.509766 30.5355 2.3174 35.7611 5.73736 40.1138L6.16685 40.6598L6.83251 40.4605C18.8886 36.8423 31.113 36.8453 43.1661 40.4615ZM43.0739 38.3071C37.0751 36.5732 31.0368 35.7063 24.9981 35.7063C18.9613 35.7063 12.9231 36.5722 6.92518 38.3061C4.26256 34.7028 2.77031 30.4866 2.573 26.0204H47.4261C47.2288 30.4866 45.7366 34.7028 43.0739 38.3071Z" fill="white"/>
<path fill-rule="evenodd" clip-rule="evenodd" d="M10.7598 25C10.7598 38.7327 17.0142 49.4898 24.9991 49.4898C32.984 49.4898 39.2385 38.7327 39.2385 25C39.2385 11.2673 32.984 0.510193 24.9991 0.510193C17.0142 0.510193 10.7598 11.2673 10.7598 25ZM12.8006 25C12.8006 12.6216 18.2728 2.55101 24.9991 2.55101C31.7255 2.55101 37.1977 12.6216 37.1977 25C37.1977 37.3784 31.7255 47.449 24.9991 47.449C18.2728 47.449 12.8006 37.3784 12.8006 25Z" fill="white"/>
</svg>
