<svg width="16" height="10" viewBox="0 0 16 10" fill="none" xmlns="http://www.w3.org/2000/svg">
<path fill-rule="evenodd" clip-rule="evenodd" d="M8.54356 9.58685C9.07616 9.58685 9.07617 8.81937 9.07617 8.52164C9.07617 7.98904 9.60877 7.45644 10.1414 7.45644C10.674 7.45644 11.5874 8.36985 12.2718 9.05425C12.8044 9.58685 12.8044 9.58685 13.337 9.58685H14.9348C14.9348 9.58685 16 9.54637 16 8.52164C16 8.18877 15.6352 7.62421 14.4022 6.39123C13.337 5.32603 12.7905 5.87621 14.4022 3.72822C15.3838 2.42015 16.098 1.23511 15.9755 0.893175C15.8583 0.566689 13.1282 0.046869 12.8044 0.532603C11.7392 2.13041 11.5437 2.52187 11.2066 3.19562C10.674 4.26082 10.6212 4.79342 10.1414 4.79342C9.65723 4.79342 9.60877 3.75964 9.60877 3.19562C9.60877 1.43483 9.86388 0.189607 9.07617 0H7.47836C6.62087 0 5.88055 0.532603 5.88055 0.532603C5.88055 0.532603 5.21959 1.04816 5.34795 1.06521C5.50666 1.08651 6.41315 0.844708 6.41315 1.59781V2.66301C6.41315 2.66301 6.41794 4.79342 5.88055 4.79342C5.34795 4.79342 4.28274 2.66301 3.21754 1.06521C2.79944 0.438332 2.68493 0.532603 2.15233 0.532603C1.58138 0.532603 1.08766 0.554972 0.554521 0.554972C0.0219186 0.554972 -0.0462545 0.89424 0.0219186 1.06521C1.08712 3.72822 1.85247 5.40059 3.87636 7.50757C5.73248 9.44038 6.97238 9.54318 8.01096 9.58685C8.27726 9.59803 8.01096 9.58685 8.54356 9.58685" fill="white"/>
</svg>
