<svg width="90" height="93" viewBox="0 0 90 93" fill="none" xmlns="http://www.w3.org/2000/svg">
<path d="M74.8418 79.4999L76.1549 81.0549C80.8902 77.0797 84.8871 72.3746 88.0306 67.0725L86.2772 66.0376C83.2497 71.1439 79.4036 75.6728 74.8418 79.4999Z" fill="black"/>
<path d="M23.1062 17.3736L21.7139 15.8899C16.7216 20.5529 13.2213 26.5341 11.5938 33.1868L13.5705 33.6691C15.1059 27.3992 18.4023 21.764 23.1062 17.3736Z" fill="black"/>
<path d="M34.6201 10.1867L33.7852 8.33423C32.2324 9.02848 30.736 9.8298 29.334 10.7165L30.4237 12.4316C31.7434 11.5979 33.1563 10.842 34.6201 10.1867Z" fill="black"/>
<path d="M60.7188 86.4781L61.3867 88.3932C62.9959 87.8374 64.5573 87.1702 66.0287 86.4121L65.0941 84.6062C63.7083 85.3221 62.2368 85.9493 60.7188 86.4781Z" fill="black"/>
<path d="M15.1953 78.2875C19.9393 83.2067 25.9834 86.6153 32.6737 88.1422L33.1281 86.1633C26.8248 84.7229 21.1331 81.5144 16.6624 76.8784L15.1953 78.2875Z" fill="black"/>
<path fill-rule="evenodd" clip-rule="evenodd" d="M76.354 73.1185C84.6133 65.114 89.1643 54.393 89.1643 42.9281C89.1643 19.7354 70.2426 0.867188 46.9879 0.867188C32.7126 0.867188 19.5119 7.98926 11.6776 19.9181L13.38 21.0309C20.8391 9.67623 33.4012 2.89913 46.9879 2.89913C69.1214 2.89913 87.129 20.8557 87.129 42.9281C87.129 51.9447 84.1286 60.4564 78.6625 67.4455L78.4923 66.1359C77.5955 60.2455 74.2308 56.426 68.5153 54.7899C63.1164 53.1256 57.0332 51.1759 56.4206 50.8568C56.104 50.5692 55.8752 48.9558 55.9272 47.4505C57.8367 45.3763 59.2312 42.7367 59.6844 39.9434C60.7276 39.6125 61.7176 38.5571 62.2836 37.1134C62.803 35.7898 62.8431 34.4986 62.4788 33.5491C65.1625 27.1386 64.3395 19.2617 60.7232 16.8059C59.0338 13.4525 55.9521 10.9955 52.0138 9.87413C47.246 8.51373 41.8959 9.30532 37.7125 11.9904C25.6894 19.7019 30.5667 32.0665 31.419 33.9838C31.2108 34.876 31.3008 35.9823 31.7421 37.1145C32.3071 38.5603 33.2993 39.6157 34.3467 39.9456C34.7946 42.715 36.1652 45.3342 38.0487 47.4018C38.1105 48.919 37.8817 50.566 37.5867 50.8395C36.9437 51.178 30.8617 53.1278 25.4834 54.7856C19.7537 56.4228 16.3836 60.2412 15.4673 66.1597L15.3025 67.4379C11.0465 61.9649 8.27708 55.4852 7.29251 48.6194L11.748 51.5944L12.8812 49.9052L5.65733 45.0865L0.822266 52.2919L2.516 53.4198L5.32118 49.2391C6.67118 58.1325 10.847 66.4246 17.3031 72.8092L17.6132 73.1239C24.258 79.5452 32.8829 83.5918 42.0162 84.6624L41.8124 87.1398L47.0031 92.7901L52.0258 87.1323L51.8241 84.684C61.016 83.6264 69.6885 79.5733 76.354 73.1185ZM76.4743 66.4192L76.8864 69.5747L76.7207 69.7596C76.142 70.4056 75.563 71.0519 74.9335 71.664C68.6064 77.7933 60.3795 81.6442 51.6538 82.6574L49.9308 61.7898L54.7182 65.5173L59.3429 54.021C62.3801 55.0181 66.2805 56.2281 67.9341 56.7375C72.9047 58.1606 75.7012 61.3377 76.4743 66.4192ZM46.8567 51.7447C44.4766 51.7447 42.0976 50.7855 40.0482 49.2239C39.9842 49.955 39.8389 50.7119 39.5743 51.3478L45.9535 58.352H48.0224L54.4005 51.3478C54.1391 50.7206 53.9971 49.9788 53.9309 49.2575C51.8946 50.7985 49.534 51.7447 47.1712 51.7447H46.8567ZM57.4095 53.3743L53.8355 62.2515L49.9655 59.2377L55.8285 52.798C56.2005 52.9483 56.7394 53.1429 57.4095 53.3743ZM51.4532 11.8271C47.2395 10.6279 42.5107 11.3254 38.8131 13.6969C29.2558 19.8273 31.6565 29.0029 32.8688 32.1887C33.2927 32.0427 33.7417 32.0233 34.1808 32.153V31.5842C34.1808 26.115 41.3666 25.9188 46.1203 25.7891L46.1215 25.789L47.5355 25.7523C53.7856 25.5922 55.7906 25.4365 56.362 23.2185L56.6027 22.281L57.5537 22.4767C58.3193 22.6335 58.9677 23.0866 59.4253 23.7863C60.8859 26.015 60.2158 30.5612 59.923 32.1336C60.2407 32.0514 60.5573 32.0644 60.8631 32.1206C62.9852 26.387 61.9453 19.8522 59.4209 18.388L59.1488 18.229L59.0132 17.9446C57.609 14.9891 54.9231 12.8155 51.4532 11.8271ZM36.1565 37.7698L35.0266 38.0207C34.8076 38.0207 34.0962 37.547 33.6387 36.3759C33.129 35.0717 33.3968 34.185 33.5324 34.0887C33.6441 34.0887 33.9997 34.2553 34.3879 34.77L36.2194 37.1977V31.5842C36.2194 28.6623 39.8703 27.9918 46.1779 27.821L47.5887 27.7831C53.0505 27.6436 56.3837 27.5582 57.8129 25.0537C58.6142 26.5665 58.264 30.1935 57.8346 32.1985L57.8129 37.1977L59.6443 34.77C60.0314 34.2553 60.3849 34.0887 60.476 34.0822C60.6625 34.2055 60.8631 35.1615 60.386 36.3737C59.9262 37.547 59.2214 38.0207 59.0002 38.0207L57.8703 37.7687L57.763 38.9172C57.2458 44.4669 52.0995 49.7127 47.1712 49.7127H46.8567C41.9241 49.7127 36.7778 44.4669 36.2671 38.9182L36.1565 37.7698ZM44.0103 59.2377L38.1452 52.798C37.7732 52.9483 37.2354 53.1429 36.5664 53.3722L40.1403 62.2515L44.0103 59.2377ZM19.3384 71.9592L19.0305 71.651C18.3462 70.9903 17.7076 70.2863 17.0754 69.5812L17.4831 66.443C18.2736 61.3334 21.0744 58.1573 26.0635 56.7321C27.7052 56.2249 31.5979 55.0191 34.6319 54.0221L39.2566 65.5184L43.89 61.9087L42.18 82.6358C33.6571 81.6182 25.6015 77.8831 19.3384 71.9592ZM43.9149 86.4185L46.9738 89.7514L49.9221 86.4294L47.7687 60.3829H46.063L43.9149 86.4185Z" fill="black"/>
</svg>
