<svg width="191" height="75" viewBox="0 0 191 75" fill="none" xmlns="http://www.w3.org/2000/svg">
<path fill-rule="evenodd" clip-rule="evenodd" d="M0.0793438 35.7759C0.0793438 35.6459 0.313344 35.6199 0.599344 35.6199C0.989344 35.6199 2.00334 35.7499 2.75734 35.7499C3.66734 35.7499 4.55134 35.6459 5.09734 35.6459C5.40934 35.6459 5.51334 35.7239 5.51334 35.8019C5.51334 35.8539 5.35734 35.9579 5.14934 36.0099C4.29134 36.1919 4.16134 36.5039 4.05734 37.4659C4.03134 37.8299 3.95334 41.2099 3.95334 43.7319C3.92734 46.2279 3.95334 50.1539 4.10934 51.0639C4.13534 51.3239 4.31734 51.4279 4.44734 51.4539C4.62934 51.4799 7.09934 51.4539 9.64734 51.4539C9.90734 51.4539 10.0893 51.3759 10.1413 50.5439C10.1933 49.7899 10.2973 47.2419 10.2713 43.7319L10.2453 38.0899C10.2453 36.4779 10.0113 36.2439 9.04934 36.0099C8.76334 35.9579 8.63334 35.8539 8.63334 35.7759C8.63334 35.6459 8.84134 35.6199 9.12734 35.6199C9.54334 35.6199 10.5313 35.7499 11.3113 35.7499C12.2213 35.7499 13.0793 35.6459 13.6513 35.6459C13.9373 35.6459 14.0413 35.7239 14.0413 35.8019C14.0413 35.8539 13.9113 35.9579 13.6773 36.0099C12.8453 36.1919 12.6893 36.5039 12.6113 37.4659C12.5853 37.8299 12.5073 41.3919 12.5073 43.7319C12.4813 46.2279 12.4813 50.1019 12.6113 51.0119C12.6633 51.2719 12.8713 51.4539 13.0013 51.4539C15.7833 51.4539 18.3573 51.4279 18.4873 51.4019C18.5913 51.3759 18.7213 51.1679 18.7473 50.9599C18.7993 50.5439 18.8253 46.5659 18.8253 44.0439C18.8253 41.7819 18.7993 38.8439 18.7733 38.2459C18.7213 36.4519 18.4873 36.1919 17.4733 36.0359C17.3173 36.0099 17.1093 35.9059 17.1093 35.7759C17.1093 35.6979 17.2393 35.6459 17.4733 35.6459C18.2793 35.6459 19.1893 35.7759 20.0733 35.7759C20.9053 35.7759 21.8413 35.6459 22.1793 35.6459C22.4133 35.6459 22.6473 35.6719 22.6473 35.7759C22.6473 35.9059 22.5173 35.9839 22.2573 36.0619C21.2433 36.2699 21.1133 36.6599 21.1133 37.9599C21.1133 38.5839 21.0873 42.5359 21.1133 44.3039C21.1393 46.0719 21.1133 49.2959 21.1653 49.8419C21.1913 51.2199 21.2953 51.4279 22.4133 51.6619C22.6993 51.7399 22.8033 51.8179 22.8033 51.9219C22.8033 52.0259 22.6213 52.1039 22.3613 52.1039C21.6333 52.1039 20.5413 51.9999 19.9173 51.9999H2.78334C2.13334 51.9999 0.937344 52.1039 0.547344 52.1039C0.287344 52.1039 0.0273438 52.0259 0.0273438 51.9479C0.0273438 51.8179 0.261344 51.7399 0.521344 51.6879C1.45734 51.5059 1.53534 51.1159 1.58734 50.4399C1.63934 49.6599 1.74334 47.8139 1.74334 43.7319L1.71734 38.0899C1.69134 36.4779 1.48334 36.2439 0.495344 36.0099C0.209344 35.9579 0.0793438 35.8539 0.0793438 35.7759ZM27.6133 51.4539C28.7053 51.4539 29.7193 50.9339 30.9413 49.0099C31.0193 48.9319 31.0193 48.6719 30.9673 48.5159C30.3953 47.1379 26.7033 39.7539 25.4553 37.2839C25.0913 36.6339 24.7013 36.1659 23.9993 36.0619C23.6873 36.0359 23.5313 35.9319 23.5313 35.8279C23.5313 35.6979 23.6873 35.6459 23.9473 35.6459C24.3633 35.6459 25.7153 35.7499 26.4433 35.7499C27.3013 35.7499 28.2373 35.6459 28.7053 35.6459C29.0953 35.6459 29.1473 35.7499 29.1473 35.8279C29.1473 35.9319 28.9393 36.0619 28.7053 36.0879C27.6653 36.2959 27.6913 36.6599 28.0293 37.3879C29.0693 39.7539 31.5653 44.5899 32.3973 46.1499C32.4753 46.2799 32.5273 46.2019 32.5793 46.1239C33.5673 44.3299 35.0493 40.9499 35.8033 39.0519C36.1933 38.0639 36.4013 37.3879 36.4013 36.9979C36.4273 36.4519 36.1153 36.2439 35.2313 36.0359C34.9713 35.9839 34.8413 35.8799 34.8413 35.8019C34.8413 35.6979 34.9453 35.6199 35.3613 35.6199C35.8553 35.6199 36.7133 35.7499 37.4673 35.7499C38.0393 35.7499 38.6113 35.6459 39.2093 35.6459C39.4953 35.6459 39.6253 35.7499 39.6253 35.8279C39.6253 35.9059 39.5213 35.9839 39.1573 36.0879C37.9353 36.3739 37.5973 36.7899 36.7393 38.5839C35.4393 41.6259 33.5933 45.4999 31.8253 48.6459C30.4213 51.1679 28.9133 52.9359 27.4573 52.9359C27.0153 52.9359 26.7553 52.8319 26.5213 52.7019C26.1313 52.4159 25.9753 51.7919 25.9753 51.4019C26.0013 51.2719 26.1053 51.1419 26.1833 51.1679C26.5213 51.2719 27.0413 51.4539 27.6133 51.4539ZM40.3273 35.9059C40.3273 35.8019 40.5093 35.7239 40.7693 35.7239C41.2373 35.7499 42.6673 35.7239 43.2653 35.6459C44.0973 35.5419 45.1373 35.4379 45.9953 35.4379C48.9593 35.4379 51.2473 36.7119 51.2473 39.5979C51.2473 40.6119 50.6493 41.5739 50.1293 41.9899C49.6613 42.3279 49.2193 42.6139 48.7773 42.7959C48.6213 42.8739 48.6993 42.9779 48.8033 43.0039C49.8173 43.3939 50.4413 43.8099 51.0133 44.2779C51.8453 44.9799 52.3913 46.0719 52.3913 47.4239C52.3913 49.4259 51.2733 50.8039 49.4533 51.6099C48.9333 51.8439 47.8933 52.1559 46.2033 52.1559C45.7613 52.1559 45.1113 52.1559 44.0713 52.1039C42.9533 52.0779 42.4073 52.0779 41.8093 52.0779H40.5613C40.1973 52.0779 40.0153 51.9999 40.0153 51.8959C40.0153 51.7659 40.1973 51.6879 40.4573 51.6619C41.4453 51.5579 41.8613 51.1159 41.9393 50.1799C42.0173 49.4779 42.0173 45.7599 42.0173 42.8999C42.0173 41.4439 41.9913 38.5319 41.9653 37.4919C41.9133 36.5819 41.7313 36.3739 40.7173 36.1399C40.4313 36.0879 40.3273 35.9839 40.3273 35.9059ZM49.9473 47.7619C49.9473 46.9819 49.7913 45.7079 48.9073 44.7459C47.9453 43.5759 47.1913 43.3419 45.6833 43.3419C45.1633 43.3419 44.6433 43.3679 44.4093 43.3939C44.2533 43.4199 44.1753 43.5759 44.1493 43.7059C44.0713 44.3039 44.1493 47.7619 44.2273 48.6459C44.3313 49.7899 44.4093 50.4919 44.6173 50.7779C44.8773 51.1679 45.5793 51.7139 46.7753 51.7139C47.1653 51.7139 47.6593 51.6099 48.1013 51.3759C49.0113 50.8559 49.9473 49.9199 49.9473 47.7619ZM49.0113 39.7019C49.0113 37.2059 47.3213 35.9059 45.4233 35.9059C45.0333 35.9059 44.5913 35.9579 44.4353 36.0099C44.3573 36.0359 44.2013 36.3219 44.2013 36.3999C44.1493 36.8939 44.1233 40.7159 44.1493 42.4579C44.1753 42.5879 44.2273 42.7959 44.4873 42.8219C44.8773 42.8739 45.8653 42.8739 46.1773 42.8219C47.3993 42.6659 49.0113 41.6259 49.0113 39.7019ZM62.3753 35.3079C62.4533 35.3079 62.5313 35.4119 62.5573 35.5939C62.6353 36.0879 62.8953 36.8679 63.2333 37.7519C64.9233 42.2759 66.5093 46.3319 68.0433 49.7899C68.6933 51.2719 68.9533 51.5059 69.6033 51.6359C69.9153 51.7139 70.0453 51.8179 70.0453 51.8959C70.0453 52.0259 69.7853 52.1039 69.5773 52.1039C69.0053 52.1039 68.5633 51.9999 67.2113 51.9999C66.0933 51.9999 65.1573 52.1299 64.5073 52.1299C64.2213 52.1299 64.0393 52.0519 64.0393 51.9479C64.0393 51.8179 64.2733 51.7139 64.5333 51.6879C65.4953 51.5319 65.7553 51.1159 65.7033 50.5179C65.6253 50.0239 64.7673 47.7359 63.9353 45.5779C63.8573 45.3959 63.6753 45.2659 63.5713 45.2659C62.5573 45.3179 59.4373 45.3179 58.8653 45.3179C58.7353 45.3179 58.5793 45.5779 58.5013 45.7599C58.2413 46.3839 57.5133 48.2559 57.1493 49.5039C56.8893 50.4139 56.8893 50.9339 57.1753 51.2199C57.4093 51.4799 57.7733 51.5579 58.2933 51.6879C58.5533 51.7399 58.6833 51.8439 58.6833 51.9479C58.6833 52.0779 58.4493 52.1299 58.1373 52.1299C57.6433 52.1299 56.6033 51.9999 55.6933 51.9999C55.0433 51.9999 54.5233 52.1299 53.8733 52.1299C53.5873 52.1299 53.4053 52.0779 53.4053 51.9479C53.4053 51.8179 53.6653 51.7659 53.9253 51.7139C55.0953 51.4539 55.3813 51.2199 56.3693 49.0359C57.1493 47.3719 59.4113 41.7299 60.8673 37.9339C60.9713 37.5959 60.9973 37.4139 60.9973 37.2059C60.9973 37.1019 61.0493 36.9719 61.1013 36.9459C61.4653 36.7119 62.0373 36.1139 62.1673 35.5679C62.2193 35.4119 62.2453 35.3079 62.3753 35.3079ZM63.3373 44.4339C63.3633 44.4339 63.4153 44.3039 63.3633 44.1479C62.4013 41.4179 61.6213 39.5979 61.2833 38.7919C61.2053 38.5839 61.1533 38.6619 61.0753 38.8439C60.5293 40.1439 59.4373 43.2379 59.0733 44.2779C59.0473 44.3559 59.0473 44.4859 59.1513 44.4859C59.6713 44.5119 60.3213 44.5119 61.1793 44.5119C62.0893 44.5119 63.1033 44.5119 63.3373 44.4339ZM79.1713 35.3079C79.2493 35.3079 79.3273 35.4119 79.3533 35.5939C79.4314 36.0879 79.6913 36.8679 80.0294 37.7519C81.7193 42.2759 83.3053 46.3319 84.8393 49.7899C85.4893 51.2719 85.7493 51.5059 86.3993 51.6359C86.7113 51.7139 86.8413 51.8179 86.8413 51.8959C86.8413 52.0259 86.5813 52.1039 86.3734 52.1039C85.8013 52.1039 85.3593 51.9999 84.0073 51.9999C82.8893 51.9999 81.9533 52.1299 81.3033 52.1299C81.0173 52.1299 80.8354 52.0519 80.8354 51.9479C80.8354 51.8179 81.0694 51.7139 81.3293 51.6879C82.2914 51.5319 82.5513 51.1159 82.4993 50.5179C81.3293 47.2939 79.4833 42.3799 78.0793 38.7919C78.0014 38.5839 77.9233 38.6619 77.8713 38.8439C76.6753 41.8599 74.9333 46.2539 73.9454 49.5039C73.6853 50.4139 73.6853 50.9339 73.9713 51.2199C74.2053 51.4799 74.5694 51.5579 75.0893 51.6879C75.3493 51.7399 75.4793 51.8439 75.4793 51.9479C75.4793 52.0779 75.2453 52.1299 74.9333 52.1299C74.4393 52.1299 73.3993 51.9999 72.4893 51.9999C71.8393 51.9999 71.3193 52.1299 70.6693 52.1299C70.3833 52.1299 70.2013 52.0779 70.2013 51.9479C70.2013 51.8179 70.4613 51.7659 70.7213 51.7139C71.8913 51.4539 72.1773 51.2199 73.1653 49.0359C73.9454 47.3719 76.2073 41.7299 77.6633 37.9339C77.7673 37.5959 77.7934 37.4139 77.7934 37.2059C77.7934 37.1019 77.8453 36.9719 77.8973 36.9459C78.2613 36.7119 78.8334 36.1139 78.9633 35.5679C79.0154 35.4119 79.0414 35.3079 79.1713 35.3079ZM96.6953 35.2819C101.297 35.2819 105.171 39.2079 105.171 44.0699C105.171 48.2559 102.337 50.8039 100.335 51.6879C99.2693 52.1559 98.0733 52.4679 96.8253 52.4679C92.0933 52.4679 88.2453 48.4899 88.2453 43.7319C88.2453 41.1319 89.1293 38.8179 91.6253 36.9199C92.9773 35.8799 95.0053 35.2819 96.6953 35.2819ZM96.2794 35.6979C94.7713 35.6979 93.2374 36.7639 92.5093 37.6219C91.2873 39.1039 90.7153 41.3919 90.7153 43.5759C90.7153 45.6559 91.4953 47.9439 92.7693 49.5039C94.1733 51.3239 95.7853 51.9739 97.2673 51.9739C98.1773 51.9739 99.1653 51.6879 100.023 50.8819C101.115 49.9459 102.675 47.7879 102.675 44.0699C102.675 41.7559 101.999 39.6499 100.595 37.8559C99.6853 36.7379 98.3333 35.6979 96.2794 35.6979ZM107.251 35.9059C107.251 35.8019 107.433 35.7239 107.693 35.7239C108.161 35.7499 109.591 35.7239 110.189 35.6459C111.021 35.5419 112.061 35.4379 112.919 35.4379C115.883 35.4379 118.171 36.7119 118.171 39.5979C118.171 40.6119 117.573 41.5739 117.053 41.9899C116.585 42.3279 116.143 42.6139 115.701 42.7959C115.545 42.8739 115.623 42.9779 115.727 43.0039C116.741 43.3939 117.365 43.8099 117.937 44.2779C118.769 44.9799 119.315 46.0719 119.315 47.4239C119.315 49.4259 118.197 50.8039 116.377 51.6099C115.857 51.8439 114.817 52.1559 113.127 52.1559C112.685 52.1559 112.035 52.1559 110.995 52.1039C109.877 52.0779 109.331 52.0779 108.733 52.0779H107.485C107.121 52.0779 106.939 51.9999 106.939 51.8959C106.939 51.7659 107.121 51.6879 107.381 51.6619C108.369 51.5579 108.785 51.1159 108.863 50.1799C108.941 49.4779 108.941 45.7599 108.941 42.8999C108.941 41.4439 108.915 38.5319 108.889 37.4919C108.837 36.5819 108.655 36.3739 107.641 36.1399C107.355 36.0879 107.251 35.9839 107.251 35.9059ZM116.871 47.7619C116.871 46.9819 116.715 45.7079 115.831 44.7459C114.869 43.5759 114.115 43.3419 112.607 43.3419C112.087 43.3419 111.567 43.3679 111.333 43.3939C111.177 43.4199 111.099 43.5759 111.073 43.7059C110.995 44.3039 111.073 47.7619 111.151 48.6459C111.255 49.7899 111.333 50.4919 111.541 50.7779C111.801 51.1679 112.503 51.7139 113.699 51.7139C114.089 51.7139 114.583 51.6099 115.025 51.3759C115.935 50.8559 116.871 49.9199 116.871 47.7619ZM115.935 39.7019C115.935 37.2059 114.245 35.9059 112.347 35.9059C111.957 35.9059 111.515 35.9579 111.359 36.0099C111.281 36.0359 111.125 36.3219 111.125 36.3999C111.073 36.8939 111.047 40.7159 111.073 42.4579C111.099 42.5879 111.151 42.7959 111.411 42.8219C111.801 42.8739 112.789 42.8739 113.101 42.8219C114.323 42.6659 115.935 41.6259 115.935 39.7019ZM130.625 35.2819C132.705 35.2819 134.811 36.0359 135.695 36.5039C135.903 36.6339 135.981 36.8159 135.955 36.9719C135.903 37.5699 136.033 38.7399 136.033 38.9999C136.033 39.2599 135.929 39.4159 135.877 39.4159C135.773 39.4159 135.695 39.2859 135.643 39.0779C135.435 38.1939 134.863 37.3619 134.395 36.9979C133.433 36.1399 132.003 35.6979 130.443 35.6979C128.753 35.6979 127.193 36.5559 126.127 37.6479C124.931 38.9479 124.125 41.2879 124.125 43.7579C124.125 45.9939 125.061 48.4899 126.465 50.0239C127.713 51.3759 129.455 51.9219 130.833 51.9219C132.315 51.9219 133.199 51.6099 133.875 51.1939C134.863 50.5959 135.435 49.7379 135.851 48.6719C135.955 48.3599 136.007 48.2559 136.111 48.2559C136.215 48.2559 136.267 48.4899 136.267 48.6459C136.267 49.0619 135.955 50.3359 135.903 50.6479C135.851 50.8299 135.773 51.0119 135.617 51.0899C134.083 51.9479 132.705 52.4679 130.573 52.4679C127.401 52.4679 125.321 51.3239 123.761 49.7379C122.643 48.5939 121.577 46.2539 121.577 43.9919C121.577 40.8979 122.825 38.9479 124.489 37.4399C125.841 36.2179 128.181 35.2819 130.625 35.2819ZM138.373 35.7759C138.373 35.6719 138.529 35.6199 138.737 35.6199C139.361 35.6199 140.427 35.7499 141.103 35.7499C141.883 35.7499 142.481 35.6719 143.339 35.6719C143.651 35.6719 143.729 35.7499 143.729 35.8279C143.729 35.9319 143.521 36.0099 143.287 36.0619C142.247 36.2699 142.143 36.6339 142.143 38.8959C142.143 39.8059 142.117 42.6139 142.117 43.2119C142.117 43.2639 142.169 43.3939 142.247 43.3939C143.599 43.3419 144.275 42.9519 145.211 41.6779C146.043 40.5859 146.693 39.4419 147.525 38.1419C148.799 36.1659 149.709 35.3599 150.931 35.3599C151.555 35.3599 152.023 35.6719 152.023 36.1139C152.023 36.4779 151.841 36.8939 151.607 37.0759C151.555 37.1279 151.373 37.1799 151.269 37.1279C150.983 37.0239 150.645 36.9199 150.203 36.9199C149.319 36.9199 148.747 37.3099 147.967 38.5059C146.589 40.6639 145.731 41.8599 145.133 42.5099C145.081 42.5619 145.107 42.6399 145.133 42.6919C145.731 43.7059 148.149 47.2679 149.527 48.9579C151.503 51.3759 152.127 51.5579 153.323 51.7399C153.661 51.7919 153.817 51.9219 153.375 52.1039C153.167 52.2079 152.387 52.2339 151.945 52.2339C150.307 52.2339 149.371 52.0259 148.045 50.5179C146.927 49.2439 145.575 47.1639 144.353 45.4479C143.339 43.9399 143.001 43.7839 142.221 43.7839C142.169 43.7839 142.143 43.9139 142.117 43.9659C142.117 44.3299 142.117 46.1499 142.143 47.3979C142.143 48.7239 142.169 50.2059 142.247 50.7259C142.299 51.3239 142.637 51.5059 143.313 51.6619C143.703 51.7399 143.833 51.8179 143.833 51.9479C143.833 52.0779 143.599 52.1299 143.339 52.1299C142.741 52.1299 142.247 51.9999 140.973 51.9999C140.089 51.9999 139.153 52.1299 138.763 52.1299C138.425 52.1299 138.295 52.0519 138.295 51.9479C138.295 51.8439 138.373 51.7659 138.789 51.6879C139.517 51.5319 139.777 51.2199 139.829 50.6739C139.907 50.0759 139.985 48.4639 139.985 42.8219C139.985 40.5859 139.933 37.8819 139.907 37.2059C139.829 36.3479 139.465 36.1919 138.763 36.0099C138.555 35.9579 138.373 35.8799 138.373 35.7759ZM154.415 35.7499C154.415 35.6459 154.571 35.6199 154.857 35.6199C155.429 35.6199 156.209 35.7499 157.119 35.7499C157.925 35.7499 158.887 35.6459 159.433 35.6459C159.719 35.6459 159.849 35.6979 159.849 35.8019C159.849 35.8539 159.693 35.9839 159.485 36.0359C158.627 36.1919 158.393 36.6079 158.367 37.5699C158.263 39.0779 158.263 46.7479 158.289 48.4119C158.315 48.5679 158.367 48.5679 158.445 48.4899C158.445 48.4899 166.427 39.4679 167.311 38.4019C167.519 38.1419 167.597 37.9599 167.597 37.6999C167.597 36.5819 167.441 36.3219 166.531 36.0879C166.297 36.0099 166.037 35.9579 166.037 35.8279C166.037 35.7239 166.245 35.6459 166.583 35.6459C166.947 35.6459 168.065 35.7499 168.741 35.7499C169.599 35.7499 170.665 35.6459 171.003 35.6459C171.341 35.6459 171.471 35.6979 171.471 35.8019C171.471 35.9059 171.367 35.9839 170.873 36.1139C170.197 36.2699 169.989 36.3999 169.963 37.7779C169.937 39.1559 169.963 38.7139 169.963 43.2639C169.963 46.5139 170.093 49.3999 170.093 49.7379C170.145 50.9859 170.145 51.3239 171.315 51.6359C171.601 51.7139 171.731 51.7919 171.731 51.9219C171.731 52.0259 171.497 52.0779 171.315 52.0779C170.951 52.0779 169.391 51.9999 168.819 51.9999C168.325 51.9999 166.921 52.0779 166.635 52.0779C166.323 52.0779 166.141 52.0259 166.141 51.8959C166.141 51.7919 166.245 51.7139 166.557 51.6619C167.467 51.4799 167.675 51.1939 167.727 50.2059C167.753 49.3739 167.675 42.0419 167.675 39.0779C167.675 38.9739 167.571 38.8959 167.519 38.9739L158.445 49.2959C158.445 49.2959 158.315 49.4259 158.315 49.6599C158.315 51.1939 158.549 51.4019 159.433 51.6619C159.693 51.7139 159.875 51.7659 159.875 51.8959C159.875 51.9739 159.745 52.0779 159.355 52.0779C159.173 52.0779 157.847 51.9999 156.911 51.9999C156.287 51.9999 155.871 52.1039 155.013 52.1039C154.415 52.1039 154.389 51.9999 154.389 51.8959C154.389 51.7919 154.597 51.7139 154.883 51.6359C155.923 51.3759 155.975 51.2199 156.001 49.4519C156.027 48.5679 156.079 47.3719 156.079 43.6019C156.079 40.7159 156.053 38.9219 156.001 37.9339C155.871 36.4259 155.845 36.2699 154.831 36.0359C154.545 35.9579 154.415 35.8539 154.415 35.7499ZM173.629 35.7499C173.629 35.6459 173.785 35.6199 174.071 35.6199C174.643 35.6199 175.423 35.7499 176.333 35.7499C177.139 35.7499 178.101 35.6459 178.647 35.6459C178.933 35.6459 179.063 35.6979 179.063 35.8019C179.063 35.8539 178.907 35.9839 178.699 36.0359C177.841 36.1919 177.607 36.6079 177.581 37.5699C177.477 39.0779 177.477 46.7479 177.503 48.4119C177.529 48.5679 177.581 48.5679 177.659 48.4899C177.659 48.4899 185.641 39.4679 186.525 38.4019C186.733 38.1419 186.811 37.9599 186.811 37.6999C186.811 36.5819 186.655 36.3219 185.745 36.0879C185.511 36.0099 185.251 35.9579 185.251 35.8279C185.251 35.7239 185.459 35.6459 185.797 35.6459C186.161 35.6459 187.279 35.7499 187.955 35.7499C188.813 35.7499 189.879 35.6459 190.217 35.6459C190.555 35.6459 190.685 35.6979 190.685 35.8019C190.685 35.9059 190.581 35.9839 190.087 36.1139C189.411 36.2699 189.203 36.3999 189.177 37.7779C189.151 39.1559 189.177 38.7139 189.177 43.2639C189.177 46.5139 189.307 49.3999 189.307 49.7379C189.359 50.9859 189.359 51.3239 190.529 51.6359C190.815 51.7139 190.945 51.7919 190.945 51.9219C190.945 52.0259 190.711 52.0779 190.529 52.0779C190.165 52.0779 188.605 51.9999 188.033 51.9999C187.539 51.9999 186.135 52.0779 185.849 52.0779C185.537 52.0779 185.355 52.0259 185.355 51.8959C185.355 51.7919 185.459 51.7139 185.771 51.6619C186.681 51.4799 186.889 51.1939 186.941 50.2059C186.967 49.3739 186.889 42.0419 186.889 39.0779C186.889 38.9739 186.785 38.8959 186.733 38.9739L177.659 49.2959C177.659 49.2959 177.529 49.4259 177.529 49.6599C177.529 51.1939 177.763 51.4019 178.647 51.6619C178.907 51.7139 179.089 51.7659 179.089 51.8959C179.089 51.9739 178.959 52.0779 178.569 52.0779C178.387 52.0779 177.061 51.9999 176.125 51.9999C175.501 51.9999 175.085 52.1039 174.227 52.1039C173.629 52.1039 173.603 51.9999 173.603 51.8959C173.603 51.7919 173.811 51.7139 174.097 51.6359C175.137 51.3759 175.189 51.2199 175.215 49.4519C175.241 48.5679 175.293 47.3719 175.293 43.6019C175.293 40.7159 175.267 38.9219 175.215 37.9339C175.085 36.4259 175.059 36.2699 174.045 36.0359C173.759 35.9579 173.629 35.8539 173.629 35.7499ZM182.131 35.0999C180.805 35.0999 179.661 34.3719 179.661 33.4879C179.661 32.9939 179.973 32.6299 180.441 32.6299C180.883 32.6299 181.117 33.2019 180.961 33.5139C180.883 33.6959 180.753 33.9299 180.753 34.0339C180.753 34.3979 181.481 34.6319 182.365 34.6319C182.885 34.6319 183.405 34.4499 183.535 34.3459C183.795 34.1899 183.743 33.9819 183.613 33.5919C183.483 33.0719 183.821 32.6819 184.263 32.6819C184.575 32.6819 184.861 32.9679 184.861 33.3839C184.861 34.3199 183.613 35.0999 182.131 35.0999Z" fill="white"/>
<path fill-rule="evenodd" clip-rule="evenodd" d="M37.4824 64.824C37.4824 64.68 37.6984 64.632 37.8664 64.632C38.2144 64.632 38.7304 64.668 39.0424 64.668C39.4504 64.668 39.8584 64.632 40.1464 64.632C40.3384 64.632 40.5064 64.692 40.5064 64.836C40.5064 64.932 40.3864 65.04 40.1344 65.076C39.6664 65.172 39.6184 65.256 39.5944 65.688C39.5824 65.964 39.5824 66.48 39.5824 66.828C39.5824 68.076 40.4824 68.256 41.1664 68.256C41.6464 68.256 42.1144 68.196 42.5104 68.028C42.5824 67.992 42.6424 67.884 42.6424 67.8C42.7384 67.464 42.7144 66.096 42.6664 65.688C42.6184 65.304 42.4144 65.184 41.9224 65.076C41.7304 65.04 41.6224 64.932 41.6224 64.824C41.6224 64.728 41.7784 64.632 41.9824 64.632C42.3424 64.632 43.0264 64.668 43.3504 64.668C43.7584 64.668 44.1664 64.62 44.5024 64.62C44.6824 64.62 44.8384 64.692 44.8384 64.836C44.8384 64.932 44.7304 65.028 44.5264 65.064C44.0104 65.196 43.8544 65.292 43.8304 65.58C43.8064 65.856 43.7704 66.9 43.7704 68.52C43.7704 70.332 43.8184 70.752 43.8184 70.896C43.8304 71.364 44.1184 71.46 44.6224 71.592C44.8144 71.64 44.9104 71.736 44.9104 71.82C44.9104 71.976 44.7184 72.036 44.4784 72.036C44.2864 72.036 43.3504 72 42.9664 72C42.6904 72 42.1024 72.036 41.8744 72.036C41.6584 72.036 41.5024 71.952 41.5024 71.832C41.5024 71.7 41.6344 71.616 41.7904 71.58C42.4984 71.4 42.6184 71.352 42.6424 70.596C42.6664 70.224 42.7024 68.952 42.6544 68.568C42.6424 68.508 42.5944 68.448 42.5344 68.472C42.0064 68.748 41.1544 68.928 40.6144 68.928C39.9904 68.928 39.2344 68.796 38.8264 68.244C38.6104 67.968 38.5144 67.536 38.5144 66.996C38.5144 66.996 38.5024 66.228 38.4904 65.664C38.4904 65.28 38.2504 65.184 37.7704 65.064C37.5784 65.028 37.4824 64.92 37.4824 64.824ZM50.7104 64.452C50.8304 64.452 50.8904 64.788 51.1664 65.592C51.7784 67.332 52.7984 69.936 53.0744 70.668C53.3264 71.292 53.4104 71.352 54.0704 71.58C54.3344 71.664 54.4304 71.796 54.4304 71.928C54.4304 72 54.3104 72.06 54.1424 72.06C53.5064 72.06 53.0504 72 52.4624 72C51.9224 72 51.9224 72.024 51.5384 72.024C51.3104 72.024 51.2024 71.952 51.2024 71.868C51.2024 71.772 51.2624 71.64 51.4784 71.58C52.0424 71.412 52.0904 71.328 51.9704 70.896C51.8864 70.56 51.5744 69.756 51.4304 69.396C51.4064 69.324 51.2624 69.228 51.1184 69.228C50.8784 69.216 49.4384 69.216 49.0664 69.252C49.0064 69.252 48.8984 69.36 48.8744 69.42C48.7064 69.912 48.3824 70.824 48.3824 71.076C48.3824 71.232 48.4064 71.4 48.9824 71.58C49.1384 71.628 49.2464 71.676 49.2464 71.772C49.2584 71.892 49.1144 72.036 48.8384 72.036C48.7064 72.036 48.1904 72 47.8424 72C47.4344 72 47.2184 72.06 46.7624 72.06C46.5464 72.06 46.3664 72.012 46.3544 71.88C46.3544 71.76 46.4624 71.64 46.7144 71.58C47.3144 71.424 47.5184 71.172 47.6384 70.908C48.0104 70.116 49.2704 66.948 49.8584 65.388C49.8944 65.292 49.9304 65.148 49.9424 65.052C49.9424 65.016 50.0024 64.932 50.0264 64.92C50.1584 64.824 50.3384 64.692 50.4584 64.584C50.5304 64.512 50.6624 64.452 50.7104 64.452ZM51.0944 68.604C51.1304 68.604 51.1664 68.532 51.1424 68.484C50.9984 67.884 50.3504 66.288 50.2664 66.096C50.2304 66.012 50.1344 66.036 50.1104 66.096C49.8464 66.744 49.4984 67.692 49.2344 68.484C49.2224 68.532 49.2344 68.592 49.3184 68.604C49.5344 68.628 50.8784 68.64 51.0944 68.604ZM60.2424 64.452C60.8064 64.452 61.3224 64.572 61.7184 64.68C62.0184 64.764 62.4024 64.896 62.4984 64.896C62.5584 64.896 62.6784 65.016 62.6784 65.088C62.6784 65.304 62.7384 66.024 62.7384 66.324C62.7384 66.66 62.6064 66.792 62.4624 66.792C62.3424 66.792 62.2704 66.612 62.2224 66.444C62.1144 65.94 61.8744 65.556 61.3944 65.292C61.0224 65.076 60.4824 64.968 59.9784 64.968C59.4024 64.968 58.6344 65.244 58.1784 65.676C57.5304 66.276 57.1704 67.308 57.1704 68.16C57.1704 68.94 57.5064 69.996 57.8784 70.452C58.4904 71.22 59.4504 71.652 60.2424 71.652C60.5904 71.652 61.1664 71.496 61.5264 71.328C61.6344 71.268 61.9704 70.956 62.1864 70.56C62.3784 70.176 62.4744 70.02 62.5944 70.02C62.7264 70.02 62.8104 70.2 62.8104 70.428C62.8104 70.536 62.6064 71.304 62.5344 71.556C62.5104 71.628 62.3544 71.784 62.3184 71.808C61.9464 71.988 60.8184 72.216 60.0864 72.216C58.7904 72.216 57.5784 71.808 56.8224 70.968C56.2944 70.392 55.8624 69.48 55.8624 68.412C55.8624 67.044 56.4624 65.952 57.5184 65.22C58.0584 64.848 58.9344 64.452 60.2424 64.452ZM68.9824 64.452C71.2024 64.452 72.9784 66.06 72.9784 68.304C72.9784 69.576 72.3064 70.968 70.9864 71.712C70.4704 72 69.7504 72.216 68.9824 72.216C66.7384 72.216 64.9984 70.476 64.9984 68.364C64.9984 67.428 65.3704 66.42 66.0784 65.7C66.8104 64.968 67.9144 64.452 68.9824 64.452ZM68.7664 64.956C68.1904 64.956 67.5544 65.304 67.1944 65.652C66.6784 66.192 66.3064 67.02 66.3064 68.22C66.3064 69.9 67.4224 71.7 69.2584 71.7C69.7984 71.7 70.3384 71.52 70.7344 71.148C71.2144 70.692 71.6584 69.816 71.6584 68.352C71.6584 66.648 70.5424 64.956 68.7664 64.956ZM80.6744 66.372C80.6744 66.816 80.5304 67.128 80.3024 67.368C80.2064 67.488 79.8584 67.704 79.6184 67.8C79.5944 67.812 79.6304 67.932 79.6904 67.956C80.5424 68.22 81.2504 68.88 81.2504 69.78C81.2504 70.956 80.4704 71.532 79.7744 71.796C79.2824 71.988 78.6704 72.072 78.1424 72.072C77.3864 72.072 76.7504 72.024 76.2704 72.012C75.8624 72 75.6464 72.036 75.4184 72.036C75.2504 72.036 75.0224 71.964 75.0224 71.832C75.0224 71.652 75.1664 71.592 75.4784 71.52C75.9584 71.412 76.2104 71.388 76.2704 70.74C76.2944 70.524 76.3184 70.476 76.3184 67.836C76.3184 67.188 76.3304 66.072 76.2944 65.712C76.2584 65.304 76.1504 65.196 75.4904 65.112C75.3584 65.1 75.1904 65.004 75.1904 64.86C75.1904 64.74 75.3584 64.668 75.6584 64.668H76.2704C76.7024 64.668 77.4464 64.584 78.2504 64.584C79.1264 64.584 79.7144 64.812 80.0264 65.064C80.4464 65.388 80.6744 65.88 80.6744 66.372ZM79.5704 66.468C79.5704 65.748 79.1024 65.064 77.8784 65.064C77.7344 65.064 77.5424 65.1 77.4944 65.124C77.4464 65.148 77.3984 65.196 77.3864 65.316C77.3504 66.12 77.3384 67.476 77.3864 67.716C77.3984 67.788 77.5544 67.836 77.7104 67.836C78.3344 67.836 78.8624 67.728 79.0304 67.644C79.1504 67.572 79.5704 67.224 79.5704 66.468ZM80.0144 69.9C80.0144 68.772 79.1144 68.292 78.0944 68.292C77.9144 68.292 77.5904 68.328 77.5304 68.352C77.5064 68.364 77.4104 68.472 77.3744 68.64C77.3384 68.88 77.3384 70.5 77.4224 70.884C77.5184 71.316 78.2024 71.604 78.4184 71.604C79.0184 71.604 79.6424 71.136 79.7624 70.896C79.8944 70.608 80.0144 70.272 80.0144 69.9ZM87.6144 64.452C89.8344 64.452 91.6104 66.06 91.6104 68.304C91.6104 69.576 90.9384 70.968 89.6184 71.712C89.1024 72 88.3824 72.216 87.6144 72.216C85.3704 72.216 83.6304 70.476 83.6304 68.364C83.6304 67.428 84.0024 66.42 84.7104 65.7C85.4424 64.968 86.5464 64.452 87.6144 64.452ZM87.3984 64.956C86.8224 64.956 86.1864 65.304 85.8264 65.652C85.3104 66.192 84.9384 67.02 84.9384 68.22C84.9384 69.9 86.0544 71.7 87.8904 71.7C88.4304 71.7 88.9704 71.52 89.3664 71.148C89.8464 70.692 90.2904 69.816 90.2904 68.352C90.2904 66.648 89.1744 64.956 87.3984 64.956ZM93.8464 64.812C93.8464 64.704 94.0024 64.62 94.1824 64.62C94.4944 64.62 95.0464 64.668 95.3584 64.668C95.8264 64.668 96.3664 64.632 96.6544 64.632C96.9064 64.632 97.0144 64.74 97.0144 64.836C97.0144 64.98 96.8464 65.052 96.6304 65.088C96.1624 65.184 96.1024 65.34 96.0784 65.784C96.0424 66.396 96.0424 68.244 96.0304 69.696C96.0304 69.78 96.1144 69.792 96.1384 69.768C96.5104 69.456 99.8224 66.528 100.158 66.108C100.194 66.06 100.242 65.988 100.242 65.916C100.17 65.4 100.386 65.316 99.4984 65.1C99.3184 65.052 99.1624 64.932 99.1624 64.836C99.1624 64.692 99.3904 64.632 99.5584 64.632C99.7144 64.632 100.614 64.668 100.902 64.668C101.298 64.668 101.898 64.62 102.042 64.62C102.306 64.62 102.414 64.716 102.414 64.812C102.414 64.908 102.354 64.992 102.102 65.04C101.562 65.172 101.346 65.316 101.346 65.604C101.334 66.18 101.346 66.396 101.346 66.804C101.346 68.208 101.37 70.668 101.382 70.812C101.394 71.232 101.502 71.4 102.198 71.568C102.39 71.616 102.462 71.748 102.462 71.832C102.462 71.988 102.27 72.036 102.03 72.036C101.838 72.036 100.938 72 100.602 72C100.314 72 99.6544 72.036 99.4264 72.036C99.2224 72.036 99.0904 71.952 99.0904 71.832C99.0904 71.7 99.1984 71.64 99.3544 71.604C100.086 71.424 100.206 71.34 100.218 70.584C100.254 69.336 100.278 68.304 100.278 66.936C100.278 66.888 100.194 66.828 100.146 66.876L96.1624 70.5C96.1264 70.536 96.0904 70.632 96.0904 70.656C96.0424 71.184 96.1144 71.352 96.7744 71.532C96.9064 71.568 97.1464 71.676 97.1464 71.82C97.1464 71.988 96.8104 72.036 96.6424 72.036C96.5224 72.036 95.8024 72 95.3944 72C95.1184 72 94.6264 72.06 94.2424 72.06C93.9784 72.06 93.8344 71.988 93.8344 71.832C93.8344 71.724 94.0384 71.64 94.1824 71.604C94.7464 71.448 94.9024 71.352 94.9384 70.848C94.9624 70.464 94.9744 69.72 94.9744 68.088C94.9744 66.852 94.9864 66.024 94.9264 65.616C94.8784 65.28 94.6024 65.208 94.2064 65.088C93.9424 65.004 93.8464 64.932 93.8464 64.812ZM98.2864 63.672C99.1144 63.672 99.3664 63.48 99.3664 63.312C99.3784 63.276 99.1744 63.048 99.1504 62.964C99.0784 62.7 99.3544 62.364 99.7504 62.364C100.038 62.364 100.254 62.616 100.254 62.94C100.254 63.48 99.5584 64.236 98.1904 64.236C96.9664 64.236 96.3184 63.504 96.3184 62.988C96.3184 62.652 96.5944 62.364 96.9304 62.364C97.3504 62.364 97.5304 62.772 97.4704 62.976C97.4464 63.048 97.2424 63.312 97.2424 63.36C97.2424 63.552 97.6624 63.672 98.2864 63.672ZM109.634 72C109.262 72 108.494 72.072 108.338 72.072C108.146 72.072 107.942 72 107.942 71.856C107.942 71.76 108.038 71.652 108.29 71.592C108.83 71.472 108.974 71.328 109.01 71.016C109.046 70.692 109.082 69.9 109.082 68.088C109.082 66.696 109.034 65.88 109.034 65.7C109.022 65.352 108.83 65.22 108.266 65.064C108.098 65.028 107.954 64.956 107.954 64.836C107.954 64.692 108.098 64.62 108.314 64.62C108.518 64.62 109.31 64.668 109.646 64.668C109.934 64.668 110.462 64.632 110.702 64.632C110.906 64.632 111.074 64.728 111.074 64.848C111.074 64.992 110.93 65.04 110.798 65.064C110.21 65.196 110.21 65.184 110.174 66C110.162 66.216 110.162 67.092 110.174 68.136C110.174 69.396 110.186 71.052 110.21 71.16C110.222 71.256 110.33 71.388 110.486 71.412L113.942 71.4C114.038 71.376 114.194 71.28 114.206 71.148C114.218 70.896 114.23 70.188 114.23 69.936C114.23 68.844 114.266 66.24 114.254 65.916C114.242 65.364 114.134 65.256 113.522 65.112C113.282 65.064 113.138 64.968 113.138 64.824C113.138 64.68 113.33 64.632 113.51 64.632C113.594 64.632 114.302 64.668 114.698 64.668C114.974 64.668 115.706 64.62 116.078 64.62C116.33 64.62 116.462 64.68 116.462 64.836C116.462 64.944 116.294 65.028 116.15 65.052C115.598 65.16 115.406 65.244 115.394 65.808C115.382 66.264 115.322 69.288 115.334 69.912C115.334 70.188 115.358 70.728 115.382 71.16C115.382 71.208 115.418 71.4 115.562 71.4C115.79 71.424 116.174 71.436 116.426 71.424C116.438 71.424 116.57 71.508 116.534 71.652C116.438 72.084 116.246 73.044 116.138 73.752C116.126 74.016 115.922 74.28 115.754 74.28C115.598 74.28 115.478 74.088 115.502 73.74C115.514 73.548 115.514 73.452 115.514 73.308C115.514 72.384 115.358 72 114.542 72H109.634ZM120.438 64.668H121.674C122.742 64.668 123.102 64.62 123.39 64.62C123.51 64.62 123.606 64.632 123.666 64.728C123.738 64.848 123.858 65.7 123.858 65.964C123.858 66.084 123.75 66.252 123.654 66.252C123.51 66.252 123.402 66.096 123.138 65.58C122.97 65.244 122.766 65.184 122.706 65.184C122.022 65.184 121.086 65.208 120.918 65.208C120.882 65.208 120.798 65.364 120.786 65.424C120.75 65.76 120.738 66.852 120.738 67.68C120.738 67.776 120.786 68.016 120.894 68.016C121.002 68.016 121.482 68.028 121.674 68.016C122.466 67.98 122.61 67.848 122.742 67.5C122.838 67.248 122.91 67.152 123.03 67.152C123.186 67.152 123.246 67.32 123.222 67.632C123.21 67.764 123.186 67.992 123.186 68.208C123.186 68.472 123.186 68.82 123.21 69.012C123.234 69.324 123.09 69.408 123.018 69.408C122.934 69.408 122.814 69.348 122.73 69.108C122.61 68.76 122.514 68.64 122.262 68.616C121.77 68.58 121.434 68.58 120.894 68.58C120.822 68.58 120.738 68.784 120.738 68.88C120.738 69.996 120.762 70.392 120.774 70.656C120.798 71.004 120.87 71.244 120.918 71.28C121.026 71.376 121.374 71.52 122.298 71.52C122.79 71.52 122.934 71.508 123.21 71.424C123.534 71.328 123.726 71.1 123.99 70.716C124.182 70.392 124.266 70.248 124.41 70.248C124.59 70.248 124.59 70.56 124.542 70.788C124.47 71.136 124.218 71.712 124.17 71.82C124.098 71.988 123.822 72.06 123.774 72.06C123.282 72.06 122.946 72 120.762 72C120.006 72 119.226 72.06 118.71 72.06C118.41 72.06 118.266 72.012 118.266 71.916C118.266 71.772 118.41 71.652 118.662 71.592C119.43 71.412 119.562 71.304 119.598 70.848C119.634 70.524 119.646 70.224 119.646 69.624C119.646 67.776 119.622 65.856 119.586 65.64C119.55 65.268 119.31 65.172 118.83 65.052C118.626 65.004 118.506 64.884 118.506 64.8C118.506 64.656 118.674 64.608 118.83 64.608C119.034 64.608 119.646 64.668 120.438 64.668ZM128.59 67.692C128.59 67.752 128.686 67.848 128.782 67.848C129.958 67.848 131.89 67.824 132.61 67.86C132.646 67.86 132.766 67.752 132.766 67.692C132.766 67.368 132.766 65.796 132.718 65.544C132.718 65.34 132.322 65.196 132.058 65.124C131.662 65.016 131.578 64.932 131.578 64.848C131.578 64.728 131.686 64.632 131.938 64.632C132.43 64.632 132.922 64.668 133.378 64.668C133.846 64.668 134.35 64.62 134.59 64.62C134.83 64.62 134.926 64.716 134.926 64.824C134.926 64.932 134.83 65.004 134.518 65.076C134.026 65.184 133.918 65.352 133.906 65.64C133.882 66.084 133.858 67.152 133.858 68.268C133.858 69.3 133.858 70.32 133.906 70.788C133.966 71.364 134.11 71.412 134.65 71.556C134.914 71.616 135.034 71.736 135.034 71.844C135.034 71.976 134.914 72.036 134.686 72.036C134.458 72.036 133.882 72 133.438 72C132.814 72 132.358 72.036 131.998 72.036C131.71 72.036 131.578 71.952 131.578 71.856C131.578 71.736 131.686 71.628 131.962 71.556C132.586 71.412 132.67 71.28 132.718 70.764C132.766 70.392 132.802 69.396 132.766 68.94C132.742 68.52 132.646 68.496 132.634 68.496C130.834 68.496 128.962 68.496 128.734 68.532C128.65 68.532 128.59 68.652 128.59 68.688C128.59 70.296 128.602 70.716 128.626 70.896C128.686 71.28 128.83 71.4 129.526 71.604C129.67 71.64 129.802 71.76 129.802 71.856C129.802 71.988 129.694 72.036 129.394 72.036C129.046 72.036 128.71 72 128.194 72C127.81 72 127.114 72.06 126.754 72.06C126.49 72.06 126.37 72.012 126.37 71.88C126.37 71.748 126.502 71.652 126.73 71.592C127.342 71.436 127.438 71.268 127.462 70.752C127.498 70.224 127.498 68.748 127.498 67.02C127.498 66.12 127.474 65.688 127.426 65.52C127.378 65.316 127.282 65.22 126.622 65.04C126.49 65.004 126.358 64.932 126.358 64.8C126.358 64.692 126.514 64.62 126.742 64.62C127.438 64.62 127.87 64.668 128.194 64.668C128.566 64.668 128.734 64.632 129.154 64.632C129.346 64.632 129.478 64.704 129.478 64.836C129.478 64.932 129.322 65.028 129.178 65.064C128.782 65.184 128.59 65.316 128.59 65.76C128.59 66.132 128.602 66.924 128.59 67.692ZM138.926 64.668H143.006C143.678 64.668 143.894 64.632 144.002 64.524C144.134 64.416 144.218 64.332 144.29 64.332C144.326 64.332 144.518 64.476 144.518 64.56C144.518 64.644 144.374 65.34 144.374 66.144C144.374 66.312 144.254 66.48 144.122 66.48C143.99 66.48 143.918 66.312 143.894 66.204C143.726 65.448 143.486 65.328 143.162 65.292C142.982 65.268 142.43 65.244 141.41 65.244C141.362 65.244 141.266 65.328 141.254 65.4C141.218 65.724 141.194 67.176 141.194 67.932C141.194 68.664 141.194 69.768 141.242 70.452C141.302 71.316 141.506 71.34 142.106 71.58C142.322 71.664 142.454 71.712 142.454 71.856C142.454 71.952 142.334 72.06 142.094 72.06C141.974 72.06 141.098 72 140.378 72C139.67 72 139.37 72.036 139.046 72.036C138.794 72.036 138.674 71.94 138.674 71.808C138.674 71.712 138.794 71.628 139.01 71.568C139.862 71.34 140.066 71.304 140.066 70.488C140.066 70.236 140.102 68.988 140.102 67.092V65.52C140.102 65.376 140.018 65.244 139.982 65.244C139.682 65.244 138.422 65.232 138.266 65.232C138.086 65.232 137.762 65.376 137.486 66.12C137.414 66.324 137.306 66.456 137.21 66.456C137.018 66.456 136.97 66.288 136.982 66C137.006 65.628 137.102 65.1 137.066 64.536C137.054 64.428 137.27 64.32 137.318 64.32C137.354 64.32 137.426 64.356 137.498 64.428C137.678 64.584 137.81 64.632 138.158 64.644C138.65 64.668 138.542 64.668 138.926 64.668ZM150.966 67.02C150.966 66.48 150.798 65.976 150.558 65.688C150.222 65.28 149.634 65.076 148.998 65.076C148.866 65.076 148.734 65.112 148.686 65.16C148.65 65.196 148.602 65.268 148.602 65.328C148.59 65.568 148.554 66.396 148.554 68.016V70.488C148.554 71.316 148.626 71.424 149.454 71.616C149.622 71.652 149.718 71.724 149.718 71.856C149.718 71.976 149.538 72.048 149.394 72.048C149.034 72.048 148.782 72 148.29 72C147.858 72 147.042 72.072 146.646 72.072C146.478 72.072 146.274 72 146.274 71.88C146.274 71.748 146.358 71.688 146.622 71.616C147.27 71.436 147.27 71.328 147.366 70.692C147.402 70.416 147.474 69.348 147.474 67.212C147.474 66.276 147.474 65.844 147.438 65.568C147.414 65.292 147.15 65.22 146.706 65.1C146.514 65.052 146.382 64.932 146.382 64.812C146.382 64.668 146.478 64.632 146.682 64.632C146.958 64.632 147.702 64.668 147.858 64.668C148.266 64.668 148.77 64.596 149.358 64.596C150.402 64.596 151.122 64.92 151.53 65.34C151.878 65.724 152.118 66.348 152.118 66.924C152.118 67.716 151.746 68.256 151.434 68.556C150.942 69.036 150.174 69.216 149.766 69.216C149.682 69.216 149.478 69.228 149.346 69.132C149.286 69.096 149.154 68.976 149.154 68.916C149.154 68.82 149.238 68.772 149.286 68.76C149.334 68.76 149.49 68.736 149.55 68.724C150.162 68.712 150.966 68.196 150.966 67.02Z" fill="white"/>
<path d="M165.641 11.8511H150.445V8.71083L157.864 6.1333L165.637 8.71083L165.641 11.8511Z" stroke="white"/>
<path d="M41.1961 11.8511H26L26.003 8.71083L33.4246 6.1333L41.1961 8.71083V11.8511Z" stroke="white"/>
<path d="M25.5 11.7666V11.2666H25V11.7666H25.5ZM84.45 11.7666H84.95V11.2666H84.45V11.7666ZM84.45 22.5339V23.0339H84.95V22.5339H84.45ZM25.5 22.5339H25V23.0339H25.5V22.5339ZM26.5 21.5339H26V22.0339H26.5V21.5339ZM26.5 12.7666V12.2666H26V12.7666H26.5ZM83.45 21.5339V22.0339H83.95V21.5339H83.45ZM83.45 12.7666H83.95V12.2666H83.45V12.7666ZM42.0266 14.4039V13.9039H41.5266V14.4039H42.0266ZM45.7566 14.4039H46.2566V13.9039H45.7566V14.4039ZM45.7566 20.8197V21.3197H46.2566V20.8197H45.7566ZM42.0266 20.8197H41.5266V21.3197H42.0266V20.8197ZM43.0266 19.8197H42.5266V20.3197H43.0266V19.8197ZM43.0266 15.4039V14.9039H42.5266V15.4039H43.0266ZM44.7566 19.8197V20.3197H45.2566V19.8197H44.7566ZM44.7566 15.4039H45.2566V14.9039H44.7566V15.4039ZM48.0777 14.4039V13.9039H47.5777V14.4039H48.0777ZM51.8077 14.4039H52.3077V13.9039H51.8077V14.4039ZM51.8077 20.8197V21.3197H52.3077V20.8197H51.8077ZM48.0777 20.8197H47.5777V21.3197H48.0777V20.8197ZM49.0777 19.8197H48.5777V20.3197H49.0777V19.8197ZM49.0777 15.4039V14.9039H48.5777V15.4039H49.0777ZM50.8077 19.8197V20.3197H51.3077V19.8197H50.8077ZM50.8077 15.4039H51.3077V14.9039H50.8077V15.4039ZM54.1304 14.4039V13.9039H53.6304V14.4039H54.1304ZM57.8604 14.4039H58.3604V13.9039H57.8604V14.4039ZM57.8604 20.8197V21.3197H58.3604V20.8197H57.8604ZM54.1304 20.8197H53.6304V21.3197H54.1304V20.8197ZM55.1304 19.8197H54.6304V20.3197H55.1304V19.8197ZM55.1304 15.4039V14.9039H54.6304V15.4039H55.1304ZM56.8604 19.8197V20.3197H57.3604V19.8197H56.8604ZM56.8604 15.4039H57.3604V14.9039H56.8604V15.4039ZM60.183 14.4039V13.9039H59.683V14.4039H60.183ZM63.913 14.4039H64.413V13.9039H63.913V14.4039ZM63.913 20.8197V21.3197H64.413V20.8197H63.913ZM60.183 20.8197H59.683V21.3197H60.183V20.8197ZM61.183 19.8197H60.683V20.3197H61.183V19.8197ZM61.183 15.4039V14.9039H60.683V15.4039H61.183ZM62.913 19.8197V20.3197H63.413V19.8197H62.913ZM62.913 15.4039H63.413V14.9039H62.913V15.4039ZM66.2372 14.4039V13.9039H65.7372V14.4039H66.2372ZM69.9657 14.4039H70.4657V13.9039H69.9657V14.4039ZM69.9657 20.8197V21.3197H70.4657V20.8197H69.9657ZM66.2372 20.8197H65.7372V21.3197H66.2372V20.8197ZM67.2372 19.8197H66.7372V20.3197H67.2372V19.8197ZM67.2372 15.4039V14.9039H66.7372V15.4039H67.2372ZM68.9657 19.8197V20.3197H69.4657V19.8197H68.9657ZM68.9657 15.4039H69.4657V14.9039H68.9657V15.4039ZM72.2884 14.4039V13.9039H71.7884V14.4039H72.2884ZM76.0184 14.4039H76.5184V13.9039H76.0184V14.4039ZM76.0184 20.8197V21.3197H76.5184V20.8197H76.0184ZM72.2884 20.8197H71.7884V21.3197H72.2884V20.8197ZM73.2884 19.8197H72.7884V20.3197H73.2884V19.8197ZM73.2884 15.4039V14.9039H72.7884V15.4039H73.2884ZM75.0184 19.8197V20.3197H75.5184V19.8197H75.0184ZM75.0184 15.4039H75.5184V14.9039H75.0184V15.4039ZM78.341 14.4039V13.9039H77.841V14.4039H78.341ZM82.071 14.4039H82.571V13.9039H82.071V14.4039ZM82.071 20.8197V21.3197H82.571V20.8197H82.071ZM78.341 20.8197H77.841V21.3197H78.341V20.8197ZM79.341 19.8197H78.841V20.3197H79.341V19.8197ZM79.341 15.4039V14.9039H78.841V15.4039H79.341ZM81.071 19.8197V20.3197H81.571V19.8197H81.071ZM81.071 15.4039H81.571V14.9039H81.071V15.4039ZM26 11.2666H25.5V12.2666H26V11.2666ZM83.95 11.2666H26V12.2666H83.95V11.2666ZM84.45 11.2666H83.95V12.2666H84.45V11.2666ZM84.95 12.2666V11.7666H83.95V12.2666H84.95ZM84.95 22.0339V12.2666H83.95V22.0339H84.95ZM84.95 22.5339V22.0339H83.95V22.5339H84.95ZM83.95 23.0339H84.45V22.0339H83.95V23.0339ZM26 23.0339H83.95V22.0339H26V23.0339ZM25.5 23.0339H26V22.0339H25.5V23.0339ZM25 22.0339V22.5339H26V22.0339H25ZM25 12.2666V22.0339H26V12.2666H25ZM25 11.7666V12.2666H26V11.7666H25ZM27 21.5339V12.7666H26V21.5339H27ZM83.45 21.0339H26.5V22.0339H83.45V21.0339ZM82.95 12.7666V21.5339H83.95V12.7666H82.95ZM26.5 13.2666H83.45V12.2666H26.5V13.2666ZM42.5266 13.9039H42.0266V14.9039H42.5266V13.9039ZM45.2566 13.9039H42.5266V14.9039H45.2566V13.9039ZM45.7566 13.9039H45.2566V14.9039H45.7566V13.9039ZM46.2566 14.9039V14.4039H45.2566V14.9039H46.2566ZM46.2566 20.3197V14.9039H45.2566V20.3197H46.2566ZM46.2566 20.8197V20.3197H45.2566V20.8197H46.2566ZM45.2566 21.3197H45.7566V20.3197H45.2566V21.3197ZM42.5266 21.3197H45.2566V20.3197H42.5266V21.3197ZM42.0266 21.3197H42.5266V20.3197H42.0266V21.3197ZM41.5266 20.3197V20.8197H42.5266V20.3197H41.5266ZM41.5266 14.9039V20.3197H42.5266V14.9039H41.5266ZM41.5266 14.4039V14.9039H42.5266V14.4039H41.5266ZM43.5266 19.8197V15.4039H42.5266V19.8197H43.5266ZM44.7566 19.3197H43.0266V20.3197H44.7566V19.3197ZM44.2566 15.4039V19.8197H45.2566V15.4039H44.2566ZM43.0266 15.9039H44.7566V14.9039H43.0266V15.9039ZM48.5777 13.9039H48.0777V14.9039H48.5777V13.9039ZM51.3077 13.9039H48.5777V14.9039H51.3077V13.9039ZM51.8077 13.9039H51.3077V14.9039H51.8077V13.9039ZM52.3077 14.9039V14.4039H51.3077V14.9039H52.3077ZM52.3077 20.3197V14.9039H51.3077V20.3197H52.3077ZM52.3077 20.8197V20.3197H51.3077V20.8197H52.3077ZM51.3077 21.3197H51.8077V20.3197H51.3077V21.3197ZM48.5777 21.3197H51.3077V20.3197H48.5777V21.3197ZM48.0777 21.3197H48.5777V20.3197H48.0777V21.3197ZM47.5777 20.3197V20.8197H48.5777V20.3197H47.5777ZM47.5777 14.9039V20.3197H48.5777V14.9039H47.5777ZM47.5777 14.4039V14.9039H48.5777V14.4039H47.5777ZM49.5777 19.8197V15.4039H48.5777V19.8197H49.5777ZM50.8077 19.3197H49.0777V20.3197H50.8077V19.3197ZM50.3077 15.4039V19.8197H51.3077V15.4039H50.3077ZM49.0777 15.9039H50.8077V14.9039H49.0777V15.9039ZM54.6304 13.9039H54.1304V14.9039H54.6304V13.9039ZM57.3604 13.9039H54.6304V14.9039H57.3604V13.9039ZM57.8604 13.9039H57.3604V14.9039H57.8604V13.9039ZM58.3604 14.9039V14.4039H57.3604V14.9039H58.3604ZM58.3604 20.3197V14.9039H57.3604V20.3197H58.3604ZM58.3604 20.8197V20.3197H57.3604V20.8197H58.3604ZM57.3604 21.3197H57.8604V20.3197H57.3604V21.3197ZM54.6304 21.3197H57.3604V20.3197H54.6304V21.3197ZM54.1304 21.3197H54.6304V20.3197H54.1304V21.3197ZM53.6304 20.3197V20.8197H54.6304V20.3197H53.6304ZM53.6304 14.9039V20.3197H54.6304V14.9039H53.6304ZM53.6304 14.4039V14.9039H54.6304V14.4039H53.6304ZM55.6304 19.8197V15.4039H54.6304V19.8197H55.6304ZM56.8604 19.3197H55.1304V20.3197H56.8604V19.3197ZM56.3604 15.4039V19.8197H57.3604V15.4039H56.3604ZM55.1304 15.9039H56.8604V14.9039H55.1304V15.9039ZM60.683 13.9039H60.183V14.9039H60.683V13.9039ZM63.413 13.9039H60.683V14.9039H63.413V13.9039ZM63.913 13.9039H63.413V14.9039H63.913V13.9039ZM64.413 14.9039V14.4039H63.413V14.9039H64.413ZM64.413 20.3197V14.9039H63.413V20.3197H64.413ZM64.413 20.8197V20.3197H63.413V20.8197H64.413ZM63.413 21.3197H63.913V20.3197H63.413V21.3197ZM60.683 21.3197H63.413V20.3197H60.683V21.3197ZM60.183 21.3197H60.683V20.3197H60.183V21.3197ZM59.683 20.3197V20.8197H60.683V20.3197H59.683ZM59.683 14.9039V20.3197H60.683V14.9039H59.683ZM59.683 14.4039V14.9039H60.683V14.4039H59.683ZM61.683 19.8197V15.4039H60.683V19.8197H61.683ZM62.913 19.3197H61.183V20.3197H62.913V19.3197ZM62.413 15.4039V19.8197H63.413V15.4039H62.413ZM61.183 15.9039H62.913V14.9039H61.183V15.9039ZM66.7372 13.9039H66.2372V14.9039H66.7372V13.9039ZM69.4657 13.9039H66.7372V14.9039H69.4657V13.9039ZM69.9657 13.9039H69.4657V14.9039H69.9657V13.9039ZM70.4657 14.9039V14.4039H69.4657V14.9039H70.4657ZM70.4657 20.3197V14.9039H69.4657V20.3197H70.4657ZM70.4657 20.8197V20.3197H69.4657V20.8197H70.4657ZM69.4657 21.3197H69.9657V20.3197H69.4657V21.3197ZM66.7372 21.3197H69.4657V20.3197H66.7372V21.3197ZM66.2372 21.3197H66.7372V20.3197H66.2372V21.3197ZM65.7372 20.3197V20.8197H66.7372V20.3197H65.7372ZM65.7372 14.9039V20.3197H66.7372V14.9039H65.7372ZM65.7372 14.4039V14.9039H66.7372V14.4039H65.7372ZM67.7372 19.8197V15.4039H66.7372V19.8197H67.7372ZM68.9657 19.3197H67.2372V20.3197H68.9657V19.3197ZM68.4657 15.4039V19.8197H69.4657V15.4039H68.4657ZM67.2372 15.9039H68.9657V14.9039H67.2372V15.9039ZM72.7884 13.9039H72.2884V14.9039H72.7884V13.9039ZM75.5184 13.9039H72.7884V14.9039H75.5184V13.9039ZM76.0184 13.9039H75.5184V14.9039H76.0184V13.9039ZM76.5184 14.9039V14.4039H75.5184V14.9039H76.5184ZM76.5184 20.3197V14.9039H75.5184V20.3197H76.5184ZM76.5184 20.8197V20.3197H75.5184V20.8197H76.5184ZM75.5184 21.3197H76.0184V20.3197H75.5184V21.3197ZM72.7884 21.3197H75.5184V20.3197H72.7884V21.3197ZM72.2884 21.3197H72.7884V20.3197H72.2884V21.3197ZM71.7884 20.3197V20.8197H72.7884V20.3197H71.7884ZM71.7884 14.9039V20.3197H72.7884V14.9039H71.7884ZM71.7884 14.4039V14.9039H72.7884V14.4039H71.7884ZM73.7884 19.8197V15.4039H72.7884V19.8197H73.7884ZM75.0184 19.3197H73.2884V20.3197H75.0184V19.3197ZM74.5184 15.4039V19.8197H75.5184V15.4039H74.5184ZM73.2884 15.9039H75.0184V14.9039H73.2884V15.9039ZM78.841 13.9039H78.341V14.9039H78.841V13.9039ZM81.571 13.9039H78.841V14.9039H81.571V13.9039ZM82.071 13.9039H81.571V14.9039H82.071V13.9039ZM82.571 14.9039V14.4039H81.571V14.9039H82.571ZM82.571 20.3197V14.9039H81.571V20.3197H82.571ZM82.571 20.8197V20.3197H81.571V20.8197H82.571ZM81.571 21.3197H82.071V20.3197H81.571V21.3197ZM78.841 21.3197H81.571V20.3197H78.841V21.3197ZM78.341 21.3197H78.841V20.3197H78.341V21.3197ZM77.841 20.3197V20.8197H78.841V20.3197H77.841ZM77.841 14.9039V20.3197H78.841V14.9039H77.841ZM77.841 14.4039V14.9039H78.841V14.4039H77.841ZM79.841 19.8197V15.4039H78.841V19.8197H79.841ZM81.071 19.3197H79.341V20.3197H81.071V19.3197ZM80.571 15.4039V19.8197H81.571V15.4039H80.571ZM79.341 15.9039H81.071V14.9039H79.341V15.9039Z" fill="white"/>
<rect x="42.5547" y="9.19995" width="41.25" height="1.88907" stroke="white" stroke-width="0.5"/>
<path d="M104.834 11.7666V11.2666H104.334V11.7666H104.834ZM166.141 11.7666H166.641V11.2666H166.141V11.7666ZM166.141 22.5339V23.0339H166.641V22.5339H166.141ZM104.834 22.5339H104.334V23.0339H104.834V22.5339ZM105.834 21.5339H105.334V22.0339H105.834V21.5339ZM105.834 12.7666V12.2666H105.334V12.7666H105.834ZM165.141 21.5339V22.0339H165.641V21.5339H165.141ZM165.141 12.7666H165.641V12.2666H165.141V12.7666ZM107.66 14.4039V13.9039H107.16V14.4039H107.66ZM111.39 14.4039H111.89V13.9039H111.39V14.4039ZM111.39 20.8197V21.3197H111.89V20.8197H111.39ZM107.66 20.8197H107.16V21.3197H107.66V20.8197ZM108.66 19.8197H108.16V20.3197H108.66V19.8197ZM108.66 15.4039V14.9039H108.16V15.4039H108.66ZM110.39 19.8197V20.3197H110.89V19.8197H110.39ZM110.39 15.4039H110.89V14.9039H110.39V15.4039ZM113.713 14.4039V13.9039H113.213V14.4039H113.713ZM117.442 14.4039H117.942V13.9039H117.442V14.4039ZM117.442 20.8197V21.3197H117.942V20.8197H117.442ZM113.713 20.8197H113.213V21.3197H113.713V20.8197ZM114.713 19.8197H114.213V20.3197H114.713V19.8197ZM114.713 15.4039V14.9039H114.213V15.4039H114.713ZM116.442 19.8197V20.3197H116.942V19.8197H116.442ZM116.442 15.4039H116.942V14.9039H116.442V15.4039ZM119.766 14.4039V13.9039H119.266V14.4039H119.766ZM123.496 14.4039H123.996V13.9039H123.496V14.4039ZM123.496 20.8197V21.3197H123.996V20.8197H123.496ZM119.766 20.8197H119.266V21.3197H119.766V20.8197ZM120.766 19.8197H120.266V20.3197H120.766V19.8197ZM120.766 15.4039V14.9039H120.266V15.4039H120.766ZM122.496 19.8197V20.3197H122.996V19.8197H122.496ZM122.496 15.4039H122.996V14.9039H122.496V15.4039ZM125.818 14.4039V13.9039H125.318V14.4039H125.818ZM129.548 14.4039H130.048V13.9039H129.548V14.4039ZM129.548 20.8197V21.3197H130.048V20.8197H129.548ZM125.818 20.8197H125.318V21.3197H125.818V20.8197ZM126.818 19.8197H126.318V20.3197H126.818V19.8197ZM126.818 15.4039V14.9039H126.318V15.4039H126.818ZM128.548 19.8197V20.3197H129.048V19.8197H128.548ZM128.548 15.4039H129.048V14.9039H128.548V15.4039ZM131.871 14.4039V13.9039H131.371V14.4039H131.871ZM135.598 14.4039H136.098V13.9039H135.598V14.4039ZM135.598 20.8197V21.3197H136.098V20.8197H135.598ZM131.871 20.8197H131.371V21.3197H131.871V20.8197ZM132.871 19.8197H132.371V20.3197H132.871V19.8197ZM132.871 15.4039V14.9039H132.371V15.4039H132.871ZM134.598 19.8197V20.3197H135.098V19.8197H134.598ZM134.598 15.4039H135.098V14.9039H134.598V15.4039ZM137.924 14.4039V13.9039H137.424V14.4039H137.924ZM141.654 14.4039H142.154V13.9039H141.654V14.4039ZM141.654 20.8197V21.3197H142.154V20.8197H141.654ZM137.924 20.8197H137.424V21.3197H137.924V20.8197ZM138.924 19.8197H138.424V20.3197H138.924V19.8197ZM138.924 15.4039V14.9039H138.424V15.4039H138.924ZM140.654 19.8197V20.3197H141.154V19.8197H140.654ZM140.654 15.4039H141.154V14.9039H140.654V15.4039ZM143.975 14.4039V13.9039H143.475V14.4039H143.975ZM147.703 14.4039H148.203V13.9039H147.703V14.4039ZM147.703 20.8197V21.3197H148.203V20.8197H147.703ZM143.975 20.8197H143.475V21.3197H143.975V20.8197ZM144.975 19.8197H144.475V20.3197H144.975V19.8197ZM144.975 15.4039V14.9039H144.475V15.4039H144.975ZM146.703 19.8197V20.3197H147.203V19.8197H146.703ZM146.703 15.4039H147.203V14.9039H146.703V15.4039ZM105.334 11.2666H104.834V12.2666H105.334V11.2666ZM165.641 11.2666H105.334V12.2666H165.641V11.2666ZM166.141 11.2666H165.641V12.2666H166.141V11.2666ZM166.641 12.2666V11.7666H165.641V12.2666H166.641ZM166.641 22.0339V12.2666H165.641V22.0339H166.641ZM166.641 22.5339V22.0339H165.641V22.5339H166.641ZM165.641 23.0339H166.141V22.0339H165.641V23.0339ZM105.334 23.0339H165.641V22.0339H105.334V23.0339ZM104.834 23.0339H105.334V22.0339H104.834V23.0339ZM104.334 22.0339V22.5339H105.334V22.0339H104.334ZM104.334 12.2666V22.0339H105.334V12.2666H104.334ZM104.334 11.7666V12.2666H105.334V11.7666H104.334ZM106.334 21.5339V12.7666H105.334V21.5339H106.334ZM165.141 21.0339H105.834V22.0339H165.141V21.0339ZM164.641 12.7666V21.5339H165.641V12.7666H164.641ZM105.834 13.2666H165.141V12.2666H105.834V13.2666ZM108.16 13.9039H107.66V14.9039H108.16V13.9039ZM110.89 13.9039H108.16V14.9039H110.89V13.9039ZM111.39 13.9039H110.89V14.9039H111.39V13.9039ZM111.89 14.9039V14.4039H110.89V14.9039H111.89ZM111.89 20.3197V14.9039H110.89V20.3197H111.89ZM111.89 20.8197V20.3197H110.89V20.8197H111.89ZM110.89 21.3197H111.39V20.3197H110.89V21.3197ZM108.16 21.3197H110.89V20.3197H108.16V21.3197ZM107.66 21.3197H108.16V20.3197H107.66V21.3197ZM107.16 20.3197V20.8197H108.16V20.3197H107.16ZM107.16 14.9039V20.3197H108.16V14.9039H107.16ZM107.16 14.4039V14.9039H108.16V14.4039H107.16ZM109.16 19.8197V15.4039H108.16V19.8197H109.16ZM110.39 19.3197H108.66V20.3197H110.39V19.3197ZM109.89 15.4039V19.8197H110.89V15.4039H109.89ZM108.66 15.9039H110.39V14.9039H108.66V15.9039ZM114.213 13.9039H113.713V14.9039H114.213V13.9039ZM116.942 13.9039H114.213V14.9039H116.942V13.9039ZM117.442 13.9039H116.942V14.9039H117.442V13.9039ZM117.942 14.9039V14.4039H116.942V14.9039H117.942ZM117.942 20.3197V14.9039H116.942V20.3197H117.942ZM117.942 20.8197V20.3197H116.942V20.8197H117.942ZM116.942 21.3197H117.442V20.3197H116.942V21.3197ZM114.213 21.3197H116.942V20.3197H114.213V21.3197ZM113.713 21.3197H114.213V20.3197H113.713V21.3197ZM113.213 20.3197V20.8197H114.213V20.3197H113.213ZM113.213 14.9039V20.3197H114.213V14.9039H113.213ZM113.213 14.4039V14.9039H114.213V14.4039H113.213ZM115.213 19.8197V15.4039H114.213V19.8197H115.213ZM116.442 19.3197H114.713V20.3197H116.442V19.3197ZM115.942 15.4039V19.8197H116.942V15.4039H115.942ZM114.713 15.9039H116.442V14.9039H114.713V15.9039ZM120.266 13.9039H119.766V14.9039H120.266V13.9039ZM122.996 13.9039H120.266V14.9039H122.996V13.9039ZM123.496 13.9039H122.996V14.9039H123.496V13.9039ZM123.996 14.9039V14.4039H122.996V14.9039H123.996ZM123.996 20.3197V14.9039H122.996V20.3197H123.996ZM123.996 20.8197V20.3197H122.996V20.8197H123.996ZM122.996 21.3197H123.496V20.3197H122.996V21.3197ZM120.266 21.3197H122.996V20.3197H120.266V21.3197ZM119.766 21.3197H120.266V20.3197H119.766V21.3197ZM119.266 20.3197V20.8197H120.266V20.3197H119.266ZM119.266 14.9039V20.3197H120.266V14.9039H119.266ZM119.266 14.4039V14.9039H120.266V14.4039H119.266ZM121.266 19.8197V15.4039H120.266V19.8197H121.266ZM122.496 19.3197H120.766V20.3197H122.496V19.3197ZM121.996 15.4039V19.8197H122.996V15.4039H121.996ZM120.766 15.9039H122.496V14.9039H120.766V15.9039ZM126.318 13.9039H125.818V14.9039H126.318V13.9039ZM129.048 13.9039H126.318V14.9039H129.048V13.9039ZM129.548 13.9039H129.048V14.9039H129.548V13.9039ZM130.048 14.9039V14.4039H129.048V14.9039H130.048ZM130.048 20.3197V14.9039H129.048V20.3197H130.048ZM130.048 20.8197V20.3197H129.048V20.8197H130.048ZM129.048 21.3197H129.548V20.3197H129.048V21.3197ZM126.318 21.3197H129.048V20.3197H126.318V21.3197ZM125.818 21.3197H126.318V20.3197H125.818V21.3197ZM125.318 20.3197V20.8197H126.318V20.3197H125.318ZM125.318 14.9039V20.3197H126.318V14.9039H125.318ZM125.318 14.4039V14.9039H126.318V14.4039H125.318ZM127.318 19.8197V15.4039H126.318V19.8197H127.318ZM128.548 19.3197H126.818V20.3197H128.548V19.3197ZM128.048 15.4039V19.8197H129.048V15.4039H128.048ZM126.818 15.9039H128.548V14.9039H126.818V15.9039ZM132.371 13.9039H131.871V14.9039H132.371V13.9039ZM135.098 13.9039H132.371V14.9039H135.098V13.9039ZM135.598 13.9039H135.098V14.9039H135.598V13.9039ZM136.098 14.9039V14.4039H135.098V14.9039H136.098ZM136.098 20.3197V14.9039H135.098V20.3197H136.098ZM136.098 20.8197V20.3197H135.098V20.8197H136.098ZM135.098 21.3197H135.598V20.3197H135.098V21.3197ZM132.371 21.3197H135.098V20.3197H132.371V21.3197ZM131.871 21.3197H132.371V20.3197H131.871V21.3197ZM131.371 20.3197V20.8197H132.371V20.3197H131.371ZM131.371 14.9039V20.3197H132.371V14.9039H131.371ZM131.371 14.4039V14.9039H132.371V14.4039H131.371ZM133.371 19.8197V15.4039H132.371V19.8197H133.371ZM134.598 19.3197H132.871V20.3197H134.598V19.3197ZM134.098 15.4039V19.8197H135.098V15.4039H134.098ZM132.871 15.9039H134.598V14.9039H132.871V15.9039ZM138.424 13.9039H137.924V14.9039H138.424V13.9039ZM141.154 13.9039H138.424V14.9039H141.154V13.9039ZM141.654 13.9039H141.154V14.9039H141.654V13.9039ZM142.154 14.9039V14.4039H141.154V14.9039H142.154ZM142.154 20.3197V14.9039H141.154V20.3197H142.154ZM142.154 20.8197V20.3197H141.154V20.8197H142.154ZM141.154 21.3197H141.654V20.3197H141.154V21.3197ZM138.424 21.3197H141.154V20.3197H138.424V21.3197ZM137.924 21.3197H138.424V20.3197H137.924V21.3197ZM137.424 20.3197V20.8197H138.424V20.3197H137.424ZM137.424 14.9039V20.3197H138.424V14.9039H137.424ZM137.424 14.4039V14.9039H138.424V14.4039H137.424ZM139.424 19.8197V15.4039H138.424V19.8197H139.424ZM140.654 19.3197H138.924V20.3197H140.654V19.3197ZM140.154 15.4039V19.8197H141.154V15.4039H140.154ZM138.924 15.9039H140.654V14.9039H138.924V15.9039ZM144.475 13.9039H143.975V14.9039H144.475V13.9039ZM147.203 13.9039H144.475V14.9039H147.203V13.9039ZM147.703 13.9039H147.203V14.9039H147.703V13.9039ZM148.203 14.9039V14.4039H147.203V14.9039H148.203ZM148.203 20.3197V14.9039H147.203V20.3197H148.203ZM148.203 20.8197V20.3197H147.203V20.8197H148.203ZM147.203 21.3197H147.703V20.3197H147.203V21.3197ZM144.475 21.3197H147.203V20.3197H144.475V21.3197ZM143.975 21.3197H144.475V20.3197H143.975V21.3197ZM143.475 20.3197V20.8197H144.475V20.3197H143.475ZM143.475 14.9039V20.3197H144.475V14.9039H143.475ZM143.475 14.4039V14.9039H144.475V14.4039H143.475ZM145.475 19.8197V15.4039H144.475V19.8197H145.475ZM146.703 19.3197H144.975V20.3197H146.703V19.3197ZM146.203 15.4039V19.8197H147.203V15.4039H146.203ZM144.975 15.9039H146.703V14.9039H144.975V15.9039Z" fill="white"/>
<rect x="105.334" y="9.19995" width="43.25" height="1.88907" stroke="white" stroke-width="0.5"/>
<mask id="path-9-inside-1_3_710" fill="white">
<path fill-rule="evenodd" clip-rule="evenodd" d="M103.015 7.66675H104.015V8.66675V21.5001V22.5001H103.015H86.1094H85.1094L85.1095 21.5001L85.1105 7.66675H103.015ZM86.1095 21.5001H103.015V8.66675H86.1104L86.1095 21.5001ZM95.4101 12.2928C95.4101 11.8554 95.0449 11.4743 94.5636 11.4743C94.0834 11.4743 93.7187 11.8543 93.7187 12.2928C93.7187 12.7345 94.0851 13.1144 94.5636 13.1144C95.0433 13.1144 95.4101 12.7334 95.4101 12.2928ZM96.4101 12.2928C96.4101 11.2885 95.5825 10.4743 94.5636 10.4743C93.5447 10.4743 92.7187 11.2885 92.7187 12.2928C92.7187 13.2987 93.5447 14.1144 94.5636 14.1144C95.5825 14.1144 96.4101 13.2987 96.4101 12.2928Z"/>
</mask>
<path d="M104.015 7.66675H105.015V6.66675H104.015V7.66675ZM104.015 22.5001V23.5001H105.015V22.5001H104.015ZM85.1094 22.5001L84.1094 22.5L84.1093 23.5001H85.1094V22.5001ZM85.1095 21.5001L86.1095 21.5002L85.1095 21.5001ZM85.1105 7.66675V6.66675H84.1106L84.1105 7.66667L85.1105 7.66675ZM103.015 21.5001V22.5001H104.015V21.5001H103.015ZM86.1095 21.5001L85.1095 21.5L85.1094 22.5001H86.1095V21.5001ZM103.015 8.66675H104.015V7.66675H103.015V8.66675ZM86.1104 8.66675V7.66675H85.1105L85.1104 8.66667L86.1104 8.66675ZM104.015 6.66675H103.015V8.66675H104.015V6.66675ZM105.015 8.66675V7.66675H103.015V8.66675H105.015ZM105.015 21.5001V8.66675H103.015V21.5001H105.015ZM105.015 22.5001V21.5001H103.015V22.5001H105.015ZM103.015 23.5001H104.015V21.5001H103.015V23.5001ZM86.1094 23.5001H103.015V21.5001H86.1094V23.5001ZM85.1094 23.5001H86.1094V21.5001H85.1094V23.5001ZM84.1095 21.5L84.1094 22.5L86.1094 22.5002L86.1095 21.5002L84.1095 21.5ZM84.1105 7.66667L84.1095 21.5L86.1095 21.5002L86.1105 7.66682L84.1105 7.66667ZM103.015 6.66675H85.1105V8.66675H103.015V6.66675ZM103.015 20.5001H86.1095V22.5001H103.015V20.5001ZM102.015 8.66675V21.5001H104.015V8.66675H102.015ZM86.1104 9.66675H103.015V7.66675H86.1104V9.66675ZM87.1095 21.5002L87.1104 8.66682L85.1104 8.66667L85.1095 21.5L87.1095 21.5002ZM94.5636 12.4743C94.502 12.4743 94.4101 12.417 94.4101 12.2928H96.4101C96.4101 11.2938 95.5879 10.4743 94.5636 10.4743V12.4743ZM94.7187 12.2928C94.7187 12.4152 94.627 12.4743 94.5636 12.4743V10.4743C93.5398 10.4743 92.7187 11.2934 92.7187 12.2928H94.7187ZM94.5636 12.1144C94.6297 12.1144 94.7187 12.1747 94.7187 12.2928H92.7187C92.7187 13.2944 93.5404 14.1144 94.5636 14.1144V12.1144ZM94.4101 12.2928C94.4101 12.1729 94.4993 12.1144 94.5636 12.1144V14.1144C95.5872 14.1144 96.4101 13.294 96.4101 12.2928H94.4101ZM94.5636 11.4743C95.0449 11.4743 95.4101 11.8554 95.4101 12.2928H97.4101C97.4101 10.7216 96.1201 9.47428 94.5636 9.47428V11.4743ZM93.7187 12.2928C93.7187 11.8543 94.0834 11.4743 94.5636 11.4743V9.47428C93.0061 9.47428 91.7187 10.7227 91.7187 12.2928H93.7187ZM94.5636 13.1144C94.0851 13.1144 93.7187 12.7345 93.7187 12.2928H91.7187C91.7187 13.8628 93.0044 15.1144 94.5636 15.1144V13.1144ZM95.4101 12.2928C95.4101 12.7334 95.0433 13.1144 94.5636 13.1144V15.1144C96.1217 15.1144 97.4101 13.8639 97.4101 12.2928H95.4101Z" fill="white" mask="url(#path-9-inside-1_3_710)"/>
<path d="M85.6113 6.61467V3.56187L94.3488 0.527989L103.518 3.56721V6.61467H85.6113Z" stroke="white"/>
</svg>
