<svg width="191" height="75" viewBox="0 0 191 75" fill="none" xmlns="http://www.w3.org/2000/svg">
<path fill-rule="evenodd" clip-rule="evenodd" d="M0.0793438 35.776C0.0793438 35.646 0.313344 35.62 0.599344 35.62C0.989344 35.62 2.00334 35.75 2.75734 35.75C3.66734 35.75 4.55134 35.646 5.09734 35.646C5.40934 35.646 5.51334 35.724 5.51334 35.802C5.51334 35.854 5.35734 35.958 5.14934 36.01C4.29134 36.192 4.16134 36.504 4.05734 37.466C4.03134 37.83 3.95334 41.21 3.95334 43.732C3.92734 46.228 3.95334 50.154 4.10934 51.064C4.13534 51.324 4.31734 51.428 4.44734 51.454C4.62934 51.48 7.09934 51.454 9.64734 51.454C9.90734 51.454 10.0893 51.376 10.1413 50.544C10.1933 49.79 10.2973 47.242 10.2713 43.732L10.2453 38.09C10.2453 36.478 10.0113 36.244 9.04934 36.01C8.76334 35.958 8.63334 35.854 8.63334 35.776C8.63334 35.646 8.84134 35.62 9.12734 35.62C9.54334 35.62 10.5313 35.75 11.3113 35.75C12.2213 35.75 13.0793 35.646 13.6513 35.646C13.9373 35.646 14.0413 35.724 14.0413 35.802C14.0413 35.854 13.9113 35.958 13.6773 36.01C12.8453 36.192 12.6893 36.504 12.6113 37.466C12.5853 37.83 12.5073 41.392 12.5073 43.732C12.4813 46.228 12.4813 50.102 12.6113 51.012C12.6633 51.272 12.8713 51.454 13.0013 51.454C15.7833 51.454 18.3573 51.428 18.4873 51.402C18.5913 51.376 18.7213 51.168 18.7473 50.96C18.7993 50.544 18.8253 46.566 18.8253 44.044C18.8253 41.782 18.7993 38.844 18.7733 38.246C18.7213 36.452 18.4873 36.192 17.4733 36.036C17.3173 36.01 17.1093 35.906 17.1093 35.776C17.1093 35.698 17.2393 35.646 17.4733 35.646C18.2793 35.646 19.1893 35.776 20.0733 35.776C20.9053 35.776 21.8413 35.646 22.1793 35.646C22.4133 35.646 22.6473 35.672 22.6473 35.776C22.6473 35.906 22.5173 35.984 22.2573 36.062C21.2433 36.27 21.1133 36.66 21.1133 37.96C21.1133 38.584 21.0873 42.536 21.1133 44.304C21.1393 46.072 21.1133 49.296 21.1653 49.842C21.1913 51.22 21.2953 51.428 22.4133 51.662C22.6993 51.74 22.8033 51.818 22.8033 51.922C22.8033 52.026 22.6213 52.104 22.3613 52.104C21.6333 52.104 20.5413 52 19.9173 52H2.78334C2.13334 52 0.937344 52.104 0.547344 52.104C0.287344 52.104 0.0273438 52.026 0.0273438 51.948C0.0273438 51.818 0.261344 51.74 0.521344 51.688C1.45734 51.506 1.53534 51.116 1.58734 50.44C1.63934 49.66 1.74334 47.814 1.74334 43.732L1.71734 38.09C1.69134 36.478 1.48334 36.244 0.495344 36.01C0.209344 35.958 0.0793438 35.854 0.0793438 35.776ZM27.6133 51.454C28.7053 51.454 29.7193 50.934 30.9413 49.01C31.0193 48.932 31.0193 48.672 30.9673 48.516C30.3953 47.138 26.7033 39.754 25.4553 37.284C25.0913 36.634 24.7013 36.166 23.9993 36.062C23.6873 36.036 23.5313 35.932 23.5313 35.828C23.5313 35.698 23.6873 35.646 23.9473 35.646C24.3633 35.646 25.7153 35.75 26.4433 35.75C27.3013 35.75 28.2373 35.646 28.7053 35.646C29.0953 35.646 29.1473 35.75 29.1473 35.828C29.1473 35.932 28.9393 36.062 28.7053 36.088C27.6653 36.296 27.6913 36.66 28.0293 37.388C29.0693 39.754 31.5653 44.59 32.3973 46.15C32.4753 46.28 32.5273 46.202 32.5793 46.124C33.5673 44.33 35.0493 40.95 35.8033 39.052C36.1933 38.064 36.4013 37.388 36.4013 36.998C36.4273 36.452 36.1153 36.244 35.2313 36.036C34.9713 35.984 34.8413 35.88 34.8413 35.802C34.8413 35.698 34.9453 35.62 35.3613 35.62C35.8553 35.62 36.7133 35.75 37.4673 35.75C38.0393 35.75 38.6113 35.646 39.2093 35.646C39.4953 35.646 39.6253 35.75 39.6253 35.828C39.6253 35.906 39.5213 35.984 39.1573 36.088C37.9353 36.374 37.5973 36.79 36.7393 38.584C35.4393 41.626 33.5933 45.5 31.8253 48.646C30.4213 51.168 28.9133 52.936 27.4573 52.936C27.0153 52.936 26.7553 52.832 26.5213 52.702C26.1313 52.416 25.9753 51.792 25.9753 51.402C26.0013 51.272 26.1053 51.142 26.1833 51.168C26.5213 51.272 27.0413 51.454 27.6133 51.454ZM40.3273 35.906C40.3273 35.802 40.5093 35.724 40.7693 35.724C41.2373 35.75 42.6673 35.724 43.2653 35.646C44.0973 35.542 45.1373 35.438 45.9953 35.438C48.9593 35.438 51.2473 36.712 51.2473 39.598C51.2473 40.612 50.6493 41.574 50.1293 41.99C49.6613 42.328 49.2193 42.614 48.7773 42.796C48.6213 42.874 48.6993 42.978 48.8033 43.004C49.8173 43.394 50.4413 43.81 51.0133 44.278C51.8453 44.98 52.3913 46.072 52.3913 47.424C52.3913 49.426 51.2733 50.804 49.4533 51.61C48.9333 51.844 47.8933 52.156 46.2033 52.156C45.7613 52.156 45.1113 52.156 44.0713 52.104C42.9533 52.078 42.4073 52.078 41.8093 52.078H40.5613C40.1973 52.078 40.0153 52 40.0153 51.896C40.0153 51.766 40.1973 51.688 40.4573 51.662C41.4453 51.558 41.8613 51.116 41.9393 50.18C42.0173 49.478 42.0173 45.76 42.0173 42.9C42.0173 41.444 41.9913 38.532 41.9653 37.492C41.9133 36.582 41.7313 36.374 40.7173 36.14C40.4313 36.088 40.3273 35.984 40.3273 35.906ZM49.9473 47.762C49.9473 46.982 49.7913 45.708 48.9073 44.746C47.9453 43.576 47.1913 43.342 45.6833 43.342C45.1633 43.342 44.6433 43.368 44.4093 43.394C44.2533 43.42 44.1753 43.576 44.1493 43.706C44.0713 44.304 44.1493 47.762 44.2273 48.646C44.3313 49.79 44.4093 50.492 44.6173 50.778C44.8773 51.168 45.5793 51.714 46.7753 51.714C47.1653 51.714 47.6593 51.61 48.1013 51.376C49.0113 50.856 49.9473 49.92 49.9473 47.762ZM49.0113 39.702C49.0113 37.206 47.3213 35.906 45.4233 35.906C45.0333 35.906 44.5913 35.958 44.4353 36.01C44.3573 36.036 44.2013 36.322 44.2013 36.4C44.1493 36.894 44.1233 40.716 44.1493 42.458C44.1753 42.588 44.2273 42.796 44.4873 42.822C44.8773 42.874 45.8653 42.874 46.1773 42.822C47.3993 42.666 49.0113 41.626 49.0113 39.702ZM62.3753 35.308C62.4533 35.308 62.5313 35.412 62.5573 35.594C62.6353 36.088 62.8953 36.868 63.2333 37.752C64.9233 42.276 66.5093 46.332 68.0433 49.79C68.6933 51.272 68.9533 51.506 69.6033 51.636C69.9153 51.714 70.0453 51.818 70.0453 51.896C70.0453 52.026 69.7853 52.104 69.5773 52.104C69.0053 52.104 68.5633 52 67.2113 52C66.0933 52 65.1573 52.13 64.5073 52.13C64.2213 52.13 64.0393 52.052 64.0393 51.948C64.0393 51.818 64.2733 51.714 64.5333 51.688C65.4953 51.532 65.7553 51.116 65.7033 50.518C65.6253 50.024 64.7673 47.736 63.9353 45.578C63.8573 45.396 63.6753 45.266 63.5713 45.266C62.5573 45.318 59.4373 45.318 58.8653 45.318C58.7353 45.318 58.5793 45.578 58.5013 45.76C58.2413 46.384 57.5133 48.256 57.1493 49.504C56.8893 50.414 56.8893 50.934 57.1753 51.22C57.4093 51.48 57.7733 51.558 58.2933 51.688C58.5533 51.74 58.6833 51.844 58.6833 51.948C58.6833 52.078 58.4493 52.13 58.1373 52.13C57.6433 52.13 56.6033 52 55.6933 52C55.0433 52 54.5233 52.13 53.8733 52.13C53.5873 52.13 53.4053 52.078 53.4053 51.948C53.4053 51.818 53.6653 51.766 53.9253 51.714C55.0953 51.454 55.3813 51.22 56.3693 49.036C57.1493 47.372 59.4113 41.73 60.8673 37.934C60.9713 37.596 60.9973 37.414 60.9973 37.206C60.9973 37.102 61.0493 36.972 61.1013 36.946C61.4653 36.712 62.0373 36.114 62.1673 35.568C62.2193 35.412 62.2453 35.308 62.3753 35.308ZM63.3373 44.434C63.3633 44.434 63.4153 44.304 63.3633 44.148C62.4013 41.418 61.6213 39.598 61.2833 38.792C61.2053 38.584 61.1533 38.662 61.0753 38.844C60.5293 40.144 59.4373 43.238 59.0733 44.278C59.0473 44.356 59.0473 44.486 59.1513 44.486C59.6713 44.512 60.3213 44.512 61.1793 44.512C62.0893 44.512 63.1033 44.512 63.3373 44.434ZM79.1713 35.308C79.2493 35.308 79.3273 35.412 79.3533 35.594C79.4313 36.088 79.6913 36.868 80.0293 37.752C81.7193 42.276 83.3053 46.332 84.8393 49.79C85.4893 51.272 85.7493 51.506 86.3993 51.636C86.7113 51.714 86.8413 51.818 86.8413 51.896C86.8413 52.026 86.5813 52.104 86.3733 52.104C85.8013 52.104 85.3593 52 84.0073 52C82.8893 52 81.9533 52.13 81.3033 52.13C81.0173 52.13 80.8353 52.052 80.8353 51.948C80.8353 51.818 81.0693 51.714 81.3293 51.688C82.2913 51.532 82.5513 51.116 82.4993 50.518C81.3293 47.294 79.4833 42.38 78.0793 38.792C78.0013 38.584 77.9233 38.662 77.8713 38.844C76.6753 41.86 74.9333 46.254 73.9453 49.504C73.6853 50.414 73.6853 50.934 73.9713 51.22C74.2053 51.48 74.5693 51.558 75.0893 51.688C75.3493 51.74 75.4793 51.844 75.4793 51.948C75.4793 52.078 75.2453 52.13 74.9333 52.13C74.4393 52.13 73.3993 52 72.4893 52C71.8393 52 71.3193 52.13 70.6693 52.13C70.3833 52.13 70.2013 52.078 70.2013 51.948C70.2013 51.818 70.4613 51.766 70.7213 51.714C71.8913 51.454 72.1773 51.22 73.1653 49.036C73.9453 47.372 76.2073 41.73 77.6633 37.934C77.7673 37.596 77.7933 37.414 77.7933 37.206C77.7933 37.102 77.8453 36.972 77.8973 36.946C78.2613 36.712 78.8333 36.114 78.9633 35.568C79.0153 35.412 79.0413 35.308 79.1713 35.308ZM96.6953 35.282C101.297 35.282 105.171 39.208 105.171 44.07C105.171 48.256 102.337 50.804 100.335 51.688C99.2693 52.156 98.0733 52.468 96.8253 52.468C92.0933 52.468 88.2453 48.49 88.2453 43.732C88.2453 41.132 89.1293 38.818 91.6253 36.92C92.9773 35.88 95.0053 35.282 96.6953 35.282ZM96.2793 35.698C94.7713 35.698 93.2373 36.764 92.5093 37.622C91.2873 39.104 90.7153 41.392 90.7153 43.576C90.7153 45.656 91.4953 47.944 92.7693 49.504C94.1733 51.324 95.7853 51.974 97.2673 51.974C98.1773 51.974 99.1653 51.688 100.023 50.882C101.115 49.946 102.675 47.788 102.675 44.07C102.675 41.756 101.999 39.65 100.595 37.856C99.6853 36.738 98.3333 35.698 96.2793 35.698ZM107.251 35.906C107.251 35.802 107.433 35.724 107.693 35.724C108.161 35.75 109.591 35.724 110.189 35.646C111.021 35.542 112.061 35.438 112.919 35.438C115.883 35.438 118.171 36.712 118.171 39.598C118.171 40.612 117.573 41.574 117.053 41.99C116.585 42.328 116.143 42.614 115.701 42.796C115.545 42.874 115.623 42.978 115.727 43.004C116.741 43.394 117.365 43.81 117.937 44.278C118.769 44.98 119.315 46.072 119.315 47.424C119.315 49.426 118.197 50.804 116.377 51.61C115.857 51.844 114.817 52.156 113.127 52.156C112.685 52.156 112.035 52.156 110.995 52.104C109.877 52.078 109.331 52.078 108.733 52.078H107.485C107.121 52.078 106.939 52 106.939 51.896C106.939 51.766 107.121 51.688 107.381 51.662C108.369 51.558 108.785 51.116 108.863 50.18C108.941 49.478 108.941 45.76 108.941 42.9C108.941 41.444 108.915 38.532 108.889 37.492C108.837 36.582 108.655 36.374 107.641 36.14C107.355 36.088 107.251 35.984 107.251 35.906ZM116.871 47.762C116.871 46.982 116.715 45.708 115.831 44.746C114.869 43.576 114.115 43.342 112.607 43.342C112.087 43.342 111.567 43.368 111.333 43.394C111.177 43.42 111.099 43.576 111.073 43.706C110.995 44.304 111.073 47.762 111.151 48.646C111.255 49.79 111.333 50.492 111.541 50.778C111.801 51.168 112.503 51.714 113.699 51.714C114.089 51.714 114.583 51.61 115.025 51.376C115.935 50.856 116.871 49.92 116.871 47.762ZM115.935 39.702C115.935 37.206 114.245 35.906 112.347 35.906C111.957 35.906 111.515 35.958 111.359 36.01C111.281 36.036 111.125 36.322 111.125 36.4C111.073 36.894 111.047 40.716 111.073 42.458C111.099 42.588 111.151 42.796 111.411 42.822C111.801 42.874 112.789 42.874 113.101 42.822C114.323 42.666 115.935 41.626 115.935 39.702ZM130.625 35.282C132.705 35.282 134.811 36.036 135.695 36.504C135.903 36.634 135.981 36.816 135.955 36.972C135.903 37.57 136.033 38.74 136.033 39C136.033 39.26 135.929 39.416 135.877 39.416C135.773 39.416 135.695 39.286 135.643 39.078C135.435 38.194 134.863 37.362 134.395 36.998C133.433 36.14 132.003 35.698 130.443 35.698C128.753 35.698 127.193 36.556 126.127 37.648C124.931 38.948 124.125 41.288 124.125 43.758C124.125 45.994 125.061 48.49 126.465 50.024C127.713 51.376 129.455 51.922 130.833 51.922C132.315 51.922 133.199 51.61 133.875 51.194C134.863 50.596 135.435 49.738 135.851 48.672C135.955 48.36 136.007 48.256 136.111 48.256C136.215 48.256 136.267 48.49 136.267 48.646C136.267 49.062 135.955 50.336 135.903 50.648C135.851 50.83 135.773 51.012 135.617 51.09C134.083 51.948 132.705 52.468 130.573 52.468C127.401 52.468 125.321 51.324 123.761 49.738C122.643 48.594 121.577 46.254 121.577 43.992C121.577 40.898 122.825 38.948 124.489 37.44C125.841 36.218 128.181 35.282 130.625 35.282ZM138.373 35.776C138.373 35.672 138.529 35.62 138.737 35.62C139.361 35.62 140.427 35.75 141.103 35.75C141.883 35.75 142.481 35.672 143.339 35.672C143.651 35.672 143.729 35.75 143.729 35.828C143.729 35.932 143.521 36.01 143.287 36.062C142.247 36.27 142.143 36.634 142.143 38.896C142.143 39.806 142.117 42.614 142.117 43.212C142.117 43.264 142.169 43.394 142.247 43.394C143.599 43.342 144.275 42.952 145.211 41.678C146.043 40.586 146.693 39.442 147.525 38.142C148.799 36.166 149.709 35.36 150.931 35.36C151.555 35.36 152.023 35.672 152.023 36.114C152.023 36.478 151.841 36.894 151.607 37.076C151.555 37.128 151.373 37.18 151.269 37.128C150.983 37.024 150.645 36.92 150.203 36.92C149.319 36.92 148.747 37.31 147.967 38.506C146.589 40.664 145.731 41.86 145.133 42.51C145.081 42.562 145.107 42.64 145.133 42.692C145.731 43.706 148.149 47.268 149.527 48.958C151.503 51.376 152.127 51.558 153.323 51.74C153.661 51.792 153.817 51.922 153.375 52.104C153.167 52.208 152.387 52.234 151.945 52.234C150.307 52.234 149.371 52.026 148.045 50.518C146.927 49.244 145.575 47.164 144.353 45.448C143.339 43.94 143.001 43.784 142.221 43.784C142.169 43.784 142.143 43.914 142.117 43.966C142.117 44.33 142.117 46.15 142.143 47.398C142.143 48.724 142.169 50.206 142.247 50.726C142.299 51.324 142.637 51.506 143.313 51.662C143.703 51.74 143.833 51.818 143.833 51.948C143.833 52.078 143.599 52.13 143.339 52.13C142.741 52.13 142.247 52 140.973 52C140.089 52 139.153 52.13 138.763 52.13C138.425 52.13 138.295 52.052 138.295 51.948C138.295 51.844 138.373 51.766 138.789 51.688C139.517 51.532 139.777 51.22 139.829 50.674C139.907 50.076 139.985 48.464 139.985 42.822C139.985 40.586 139.933 37.882 139.907 37.206C139.829 36.348 139.465 36.192 138.763 36.01C138.555 35.958 138.373 35.88 138.373 35.776ZM154.415 35.75C154.415 35.646 154.571 35.62 154.857 35.62C155.429 35.62 156.209 35.75 157.119 35.75C157.925 35.75 158.887 35.646 159.433 35.646C159.719 35.646 159.849 35.698 159.849 35.802C159.849 35.854 159.693 35.984 159.485 36.036C158.627 36.192 158.393 36.608 158.367 37.57C158.263 39.078 158.263 46.748 158.289 48.412C158.315 48.568 158.367 48.568 158.445 48.49C158.445 48.49 166.427 39.468 167.311 38.402C167.519 38.142 167.597 37.96 167.597 37.7C167.597 36.582 167.441 36.322 166.531 36.088C166.297 36.01 166.037 35.958 166.037 35.828C166.037 35.724 166.245 35.646 166.583 35.646C166.947 35.646 168.065 35.75 168.741 35.75C169.599 35.75 170.665 35.646 171.003 35.646C171.341 35.646 171.471 35.698 171.471 35.802C171.471 35.906 171.367 35.984 170.873 36.114C170.197 36.27 169.989 36.4 169.963 37.778C169.937 39.156 169.963 38.714 169.963 43.264C169.963 46.514 170.093 49.4 170.093 49.738C170.145 50.986 170.145 51.324 171.315 51.636C171.601 51.714 171.731 51.792 171.731 51.922C171.731 52.026 171.497 52.078 171.315 52.078C170.951 52.078 169.391 52 168.819 52C168.325 52 166.921 52.078 166.635 52.078C166.323 52.078 166.141 52.026 166.141 51.896C166.141 51.792 166.245 51.714 166.557 51.662C167.467 51.48 167.675 51.194 167.727 50.206C167.753 49.374 167.675 42.042 167.675 39.078C167.675 38.974 167.571 38.896 167.519 38.974L158.445 49.296C158.445 49.296 158.315 49.426 158.315 49.66C158.315 51.194 158.549 51.402 159.433 51.662C159.693 51.714 159.875 51.766 159.875 51.896C159.875 51.974 159.745 52.078 159.355 52.078C159.173 52.078 157.847 52 156.911 52C156.287 52 155.871 52.104 155.013 52.104C154.415 52.104 154.389 52 154.389 51.896C154.389 51.792 154.597 51.714 154.883 51.636C155.923 51.376 155.975 51.22 156.001 49.452C156.027 48.568 156.079 47.372 156.079 43.602C156.079 40.716 156.053 38.922 156.001 37.934C155.871 36.426 155.845 36.27 154.831 36.036C154.545 35.958 154.415 35.854 154.415 35.75ZM173.629 35.75C173.629 35.646 173.785 35.62 174.071 35.62C174.643 35.62 175.423 35.75 176.333 35.75C177.139 35.75 178.101 35.646 178.647 35.646C178.933 35.646 179.063 35.698 179.063 35.802C179.063 35.854 178.907 35.984 178.699 36.036C177.841 36.192 177.607 36.608 177.581 37.57C177.477 39.078 177.477 46.748 177.503 48.412C177.529 48.568 177.581 48.568 177.659 48.49C177.659 48.49 185.641 39.468 186.525 38.402C186.733 38.142 186.811 37.96 186.811 37.7C186.811 36.582 186.655 36.322 185.745 36.088C185.511 36.01 185.251 35.958 185.251 35.828C185.251 35.724 185.459 35.646 185.797 35.646C186.161 35.646 187.279 35.75 187.955 35.75C188.813 35.75 189.879 35.646 190.217 35.646C190.555 35.646 190.685 35.698 190.685 35.802C190.685 35.906 190.581 35.984 190.087 36.114C189.411 36.27 189.203 36.4 189.177 37.778C189.151 39.156 189.177 38.714 189.177 43.264C189.177 46.514 189.307 49.4 189.307 49.738C189.359 50.986 189.359 51.324 190.529 51.636C190.815 51.714 190.945 51.792 190.945 51.922C190.945 52.026 190.711 52.078 190.529 52.078C190.165 52.078 188.605 52 188.033 52C187.539 52 186.135 52.078 185.849 52.078C185.537 52.078 185.355 52.026 185.355 51.896C185.355 51.792 185.459 51.714 185.771 51.662C186.681 51.48 186.889 51.194 186.941 50.206C186.967 49.374 186.889 42.042 186.889 39.078C186.889 38.974 186.785 38.896 186.733 38.974L177.659 49.296C177.659 49.296 177.529 49.426 177.529 49.66C177.529 51.194 177.763 51.402 178.647 51.662C178.907 51.714 179.089 51.766 179.089 51.896C179.089 51.974 178.959 52.078 178.569 52.078C178.387 52.078 177.061 52 176.125 52C175.501 52 175.085 52.104 174.227 52.104C173.629 52.104 173.603 52 173.603 51.896C173.603 51.792 173.811 51.714 174.097 51.636C175.137 51.376 175.189 51.22 175.215 49.452C175.241 48.568 175.293 47.372 175.293 43.602C175.293 40.716 175.267 38.922 175.215 37.934C175.085 36.426 175.059 36.27 174.045 36.036C173.759 35.958 173.629 35.854 173.629 35.75ZM182.131 35.1C180.805 35.1 179.661 34.372 179.661 33.488C179.661 32.994 179.973 32.63 180.441 32.63C180.883 32.63 181.117 33.202 180.961 33.514C180.883 33.696 180.753 33.93 180.753 34.034C180.753 34.398 181.481 34.632 182.365 34.632C182.885 34.632 183.405 34.45 183.535 34.346C183.795 34.19 183.743 33.982 183.613 33.592C183.483 33.072 183.821 32.682 184.263 32.682C184.575 32.682 184.861 32.968 184.861 33.384C184.861 34.32 183.613 35.1 182.131 35.1Z" fill="black"/>
<path fill-rule="evenodd" clip-rule="evenodd" d="M37.4824 64.824C37.4824 64.68 37.6984 64.632 37.8664 64.632C38.2144 64.632 38.7304 64.668 39.0424 64.668C39.4504 64.668 39.8584 64.632 40.1464 64.632C40.3384 64.632 40.5064 64.692 40.5064 64.836C40.5064 64.932 40.3864 65.04 40.1344 65.076C39.6664 65.172 39.6184 65.256 39.5944 65.688C39.5824 65.964 39.5824 66.48 39.5824 66.828C39.5824 68.076 40.4824 68.256 41.1664 68.256C41.6464 68.256 42.1144 68.196 42.5104 68.028C42.5824 67.992 42.6424 67.884 42.6424 67.8C42.7384 67.464 42.7144 66.096 42.6664 65.688C42.6184 65.304 42.4144 65.184 41.9224 65.076C41.7304 65.04 41.6224 64.932 41.6224 64.824C41.6224 64.728 41.7784 64.632 41.9824 64.632C42.3424 64.632 43.0264 64.668 43.3504 64.668C43.7584 64.668 44.1664 64.62 44.5024 64.62C44.6824 64.62 44.8384 64.692 44.8384 64.836C44.8384 64.932 44.7304 65.028 44.5264 65.064C44.0104 65.196 43.8544 65.292 43.8304 65.58C43.8064 65.856 43.7704 66.9 43.7704 68.52C43.7704 70.332 43.8184 70.752 43.8184 70.896C43.8304 71.364 44.1184 71.46 44.6224 71.592C44.8144 71.64 44.9104 71.736 44.9104 71.82C44.9104 71.976 44.7184 72.036 44.4784 72.036C44.2864 72.036 43.3504 72 42.9664 72C42.6904 72 42.1024 72.036 41.8744 72.036C41.6584 72.036 41.5024 71.952 41.5024 71.832C41.5024 71.7 41.6344 71.616 41.7904 71.58C42.4984 71.4 42.6184 71.352 42.6424 70.596C42.6664 70.224 42.7024 68.952 42.6544 68.568C42.6424 68.508 42.5944 68.448 42.5344 68.472C42.0064 68.748 41.1544 68.928 40.6144 68.928C39.9904 68.928 39.2344 68.796 38.8264 68.244C38.6104 67.968 38.5144 67.536 38.5144 66.996C38.5144 66.996 38.5024 66.228 38.4904 65.664C38.4904 65.28 38.2504 65.184 37.7704 65.064C37.5784 65.028 37.4824 64.92 37.4824 64.824ZM50.7104 64.452C50.8304 64.452 50.8904 64.788 51.1664 65.592C51.7784 67.332 52.7984 69.936 53.0744 70.668C53.3264 71.292 53.4104 71.352 54.0704 71.58C54.3344 71.664 54.4304 71.796 54.4304 71.928C54.4304 72 54.3104 72.06 54.1424 72.06C53.5064 72.06 53.0504 72 52.4624 72C51.9224 72 51.9224 72.024 51.5384 72.024C51.3104 72.024 51.2024 71.952 51.2024 71.868C51.2024 71.772 51.2624 71.64 51.4784 71.58C52.0424 71.412 52.0904 71.328 51.9704 70.896C51.8864 70.56 51.5744 69.756 51.4304 69.396C51.4064 69.324 51.2624 69.228 51.1184 69.228C50.8784 69.216 49.4384 69.216 49.0664 69.252C49.0064 69.252 48.8984 69.36 48.8744 69.42C48.7064 69.912 48.3824 70.824 48.3824 71.076C48.3824 71.232 48.4064 71.4 48.9824 71.58C49.1384 71.628 49.2464 71.676 49.2464 71.772C49.2584 71.892 49.1144 72.036 48.8384 72.036C48.7064 72.036 48.1904 72 47.8424 72C47.4344 72 47.2184 72.06 46.7624 72.06C46.5464 72.06 46.3664 72.012 46.3544 71.88C46.3544 71.76 46.4624 71.64 46.7144 71.58C47.3144 71.424 47.5184 71.172 47.6384 70.908C48.0104 70.116 49.2704 66.948 49.8584 65.388C49.8944 65.292 49.9304 65.148 49.9424 65.052C49.9424 65.016 50.0024 64.932 50.0264 64.92C50.1584 64.824 50.3384 64.692 50.4584 64.584C50.5304 64.512 50.6624 64.452 50.7104 64.452ZM51.0944 68.604C51.1304 68.604 51.1664 68.532 51.1424 68.484C50.9984 67.884 50.3504 66.288 50.2664 66.096C50.2304 66.012 50.1344 66.036 50.1104 66.096C49.8464 66.744 49.4984 67.692 49.2344 68.484C49.2224 68.532 49.2344 68.592 49.3184 68.604C49.5344 68.628 50.8784 68.64 51.0944 68.604ZM60.2424 64.452C60.8064 64.452 61.3224 64.572 61.7184 64.68C62.0184 64.764 62.4024 64.896 62.4984 64.896C62.5584 64.896 62.6784 65.016 62.6784 65.088C62.6784 65.304 62.7384 66.024 62.7384 66.324C62.7384 66.66 62.6064 66.792 62.4624 66.792C62.3424 66.792 62.2704 66.612 62.2224 66.444C62.1144 65.94 61.8744 65.556 61.3944 65.292C61.0224 65.076 60.4824 64.968 59.9784 64.968C59.4024 64.968 58.6344 65.244 58.1784 65.676C57.5304 66.276 57.1704 67.308 57.1704 68.16C57.1704 68.94 57.5064 69.996 57.8784 70.452C58.4904 71.22 59.4504 71.652 60.2424 71.652C60.5904 71.652 61.1664 71.496 61.5264 71.328C61.6344 71.268 61.9704 70.956 62.1864 70.56C62.3784 70.176 62.4744 70.02 62.5944 70.02C62.7264 70.02 62.8104 70.2 62.8104 70.428C62.8104 70.536 62.6064 71.304 62.5344 71.556C62.5104 71.628 62.3544 71.784 62.3184 71.808C61.9464 71.988 60.8184 72.216 60.0864 72.216C58.7904 72.216 57.5784 71.808 56.8224 70.968C56.2944 70.392 55.8624 69.48 55.8624 68.412C55.8624 67.044 56.4624 65.952 57.5184 65.22C58.0584 64.848 58.9344 64.452 60.2424 64.452ZM68.9824 64.452C71.2024 64.452 72.9784 66.06 72.9784 68.304C72.9784 69.576 72.3064 70.968 70.9864 71.712C70.4704 72 69.7504 72.216 68.9824 72.216C66.7384 72.216 64.9984 70.476 64.9984 68.364C64.9984 67.428 65.3704 66.42 66.0784 65.7C66.8104 64.968 67.9144 64.452 68.9824 64.452ZM68.7664 64.956C68.1904 64.956 67.5544 65.304 67.1944 65.652C66.6784 66.192 66.3064 67.02 66.3064 68.22C66.3064 69.9 67.4224 71.7 69.2584 71.7C69.7984 71.7 70.3384 71.52 70.7344 71.148C71.2144 70.692 71.6584 69.816 71.6584 68.352C71.6584 66.648 70.5424 64.956 68.7664 64.956ZM80.6744 66.372C80.6744 66.816 80.5304 67.128 80.3024 67.368C80.2064 67.488 79.8584 67.704 79.6184 67.8C79.5944 67.812 79.6304 67.932 79.6904 67.956C80.5424 68.22 81.2504 68.88 81.2504 69.78C81.2504 70.956 80.4704 71.532 79.7744 71.796C79.2824 71.988 78.6704 72.072 78.1424 72.072C77.3864 72.072 76.7504 72.024 76.2704 72.012C75.8624 72 75.6464 72.036 75.4184 72.036C75.2504 72.036 75.0224 71.964 75.0224 71.832C75.0224 71.652 75.1664 71.592 75.4784 71.52C75.9584 71.412 76.2104 71.388 76.2704 70.74C76.2944 70.524 76.3184 70.476 76.3184 67.836C76.3184 67.188 76.3304 66.072 76.2944 65.712C76.2584 65.304 76.1504 65.196 75.4904 65.112C75.3584 65.1 75.1904 65.004 75.1904 64.86C75.1904 64.74 75.3584 64.668 75.6584 64.668H76.2704C76.7024 64.668 77.4464 64.584 78.2504 64.584C79.1264 64.584 79.7144 64.812 80.0264 65.064C80.4464 65.388 80.6744 65.88 80.6744 66.372ZM79.5704 66.468C79.5704 65.748 79.1024 65.064 77.8784 65.064C77.7344 65.064 77.5424 65.1 77.4944 65.124C77.4464 65.148 77.3984 65.196 77.3864 65.316C77.3504 66.12 77.3384 67.476 77.3864 67.716C77.3984 67.788 77.5544 67.836 77.7104 67.836C78.3344 67.836 78.8624 67.728 79.0304 67.644C79.1504 67.572 79.5704 67.224 79.5704 66.468ZM80.0144 69.9C80.0144 68.772 79.1144 68.292 78.0944 68.292C77.9144 68.292 77.5904 68.328 77.5304 68.352C77.5064 68.364 77.4104 68.472 77.3744 68.64C77.3384 68.88 77.3384 70.5 77.4224 70.884C77.5184 71.316 78.2024 71.604 78.4184 71.604C79.0184 71.604 79.6424 71.136 79.7624 70.896C79.8944 70.608 80.0144 70.272 80.0144 69.9ZM87.6144 64.452C89.8344 64.452 91.6104 66.06 91.6104 68.304C91.6104 69.576 90.9384 70.968 89.6184 71.712C89.1024 72 88.3824 72.216 87.6144 72.216C85.3704 72.216 83.6304 70.476 83.6304 68.364C83.6304 67.428 84.0024 66.42 84.7104 65.7C85.4424 64.968 86.5464 64.452 87.6144 64.452ZM87.3984 64.956C86.8224 64.956 86.1864 65.304 85.8264 65.652C85.3104 66.192 84.9384 67.02 84.9384 68.22C84.9384 69.9 86.0544 71.7 87.8904 71.7C88.4304 71.7 88.9704 71.52 89.3664 71.148C89.8464 70.692 90.2904 69.816 90.2904 68.352C90.2904 66.648 89.1744 64.956 87.3984 64.956ZM93.8464 64.812C93.8464 64.704 94.0024 64.62 94.1824 64.62C94.4944 64.62 95.0464 64.668 95.3584 64.668C95.8264 64.668 96.3664 64.632 96.6544 64.632C96.9064 64.632 97.0144 64.74 97.0144 64.836C97.0144 64.98 96.8464 65.052 96.6304 65.088C96.1624 65.184 96.1024 65.34 96.0784 65.784C96.0424 66.396 96.0424 68.244 96.0304 69.696C96.0304 69.78 96.1144 69.792 96.1384 69.768C96.5104 69.456 99.8224 66.528 100.158 66.108C100.194 66.06 100.242 65.988 100.242 65.916C100.17 65.4 100.386 65.316 99.4984 65.1C99.3184 65.052 99.1624 64.932 99.1624 64.836C99.1624 64.692 99.3904 64.632 99.5584 64.632C99.7144 64.632 100.614 64.668 100.902 64.668C101.298 64.668 101.898 64.62 102.042 64.62C102.306 64.62 102.414 64.716 102.414 64.812C102.414 64.908 102.354 64.992 102.102 65.04C101.562 65.172 101.346 65.316 101.346 65.604C101.334 66.18 101.346 66.396 101.346 66.804C101.346 68.208 101.37 70.668 101.382 70.812C101.394 71.232 101.502 71.4 102.198 71.568C102.39 71.616 102.462 71.748 102.462 71.832C102.462 71.988 102.27 72.036 102.03 72.036C101.838 72.036 100.938 72 100.602 72C100.314 72 99.6544 72.036 99.4264 72.036C99.2224 72.036 99.0904 71.952 99.0904 71.832C99.0904 71.7 99.1984 71.64 99.3544 71.604C100.086 71.424 100.206 71.34 100.218 70.584C100.254 69.336 100.278 68.304 100.278 66.936C100.278 66.888 100.194 66.828 100.146 66.876L96.1624 70.5C96.1264 70.536 96.0904 70.632 96.0904 70.656C96.0424 71.184 96.1144 71.352 96.7744 71.532C96.9064 71.568 97.1464 71.676 97.1464 71.82C97.1464 71.988 96.8104 72.036 96.6424 72.036C96.5224 72.036 95.8024 72 95.3944 72C95.1184 72 94.6264 72.06 94.2424 72.06C93.9784 72.06 93.8344 71.988 93.8344 71.832C93.8344 71.724 94.0384 71.64 94.1824 71.604C94.7464 71.448 94.9024 71.352 94.9384 70.848C94.9624 70.464 94.9744 69.72 94.9744 68.088C94.9744 66.852 94.9864 66.024 94.9264 65.616C94.8784 65.28 94.6024 65.208 94.2064 65.088C93.9424 65.004 93.8464 64.932 93.8464 64.812ZM98.2864 63.672C99.1144 63.672 99.3664 63.48 99.3664 63.312C99.3784 63.276 99.1744 63.048 99.1504 62.964C99.0784 62.7 99.3544 62.364 99.7504 62.364C100.038 62.364 100.254 62.616 100.254 62.94C100.254 63.48 99.5584 64.236 98.1904 64.236C96.9664 64.236 96.3184 63.504 96.3184 62.988C96.3184 62.652 96.5944 62.364 96.9304 62.364C97.3504 62.364 97.5304 62.772 97.4704 62.976C97.4464 63.048 97.2424 63.312 97.2424 63.36C97.2424 63.552 97.6624 63.672 98.2864 63.672ZM109.634 72C109.262 72 108.494 72.072 108.338 72.072C108.146 72.072 107.942 72 107.942 71.856C107.942 71.76 108.038 71.652 108.29 71.592C108.83 71.472 108.974 71.328 109.01 71.016C109.046 70.692 109.082 69.9 109.082 68.088C109.082 66.696 109.034 65.88 109.034 65.7C109.022 65.352 108.83 65.22 108.266 65.064C108.098 65.028 107.954 64.956 107.954 64.836C107.954 64.692 108.098 64.62 108.314 64.62C108.518 64.62 109.31 64.668 109.646 64.668C109.934 64.668 110.462 64.632 110.702 64.632C110.906 64.632 111.074 64.728 111.074 64.848C111.074 64.992 110.93 65.04 110.798 65.064C110.21 65.196 110.21 65.184 110.174 66C110.162 66.216 110.162 67.092 110.174 68.136C110.174 69.396 110.186 71.052 110.21 71.16C110.222 71.256 110.33 71.388 110.486 71.412L113.942 71.4C114.038 71.376 114.194 71.28 114.206 71.148C114.218 70.896 114.23 70.188 114.23 69.936C114.23 68.844 114.266 66.24 114.254 65.916C114.242 65.364 114.134 65.256 113.522 65.112C113.282 65.064 113.138 64.968 113.138 64.824C113.138 64.68 113.33 64.632 113.51 64.632C113.594 64.632 114.302 64.668 114.698 64.668C114.974 64.668 115.706 64.62 116.078 64.62C116.33 64.62 116.462 64.68 116.462 64.836C116.462 64.944 116.294 65.028 116.15 65.052C115.598 65.16 115.406 65.244 115.394 65.808C115.382 66.264 115.322 69.288 115.334 69.912C115.334 70.188 115.358 70.728 115.382 71.16C115.382 71.208 115.418 71.4 115.562 71.4C115.79 71.424 116.174 71.436 116.426 71.424C116.438 71.424 116.57 71.508 116.534 71.652C116.438 72.084 116.246 73.044 116.138 73.752C116.126 74.016 115.922 74.28 115.754 74.28C115.598 74.28 115.478 74.088 115.502 73.74C115.514 73.548 115.514 73.452 115.514 73.308C115.514 72.384 115.358 72 114.542 72H109.634ZM120.438 64.668H121.674C122.742 64.668 123.102 64.62 123.39 64.62C123.51 64.62 123.606 64.632 123.666 64.728C123.738 64.848 123.858 65.7 123.858 65.964C123.858 66.084 123.75 66.252 123.654 66.252C123.51 66.252 123.402 66.096 123.138 65.58C122.97 65.244 122.766 65.184 122.706 65.184C122.022 65.184 121.086 65.208 120.918 65.208C120.882 65.208 120.798 65.364 120.786 65.424C120.75 65.76 120.738 66.852 120.738 67.68C120.738 67.776 120.786 68.016 120.894 68.016C121.002 68.016 121.482 68.028 121.674 68.016C122.466 67.98 122.61 67.848 122.742 67.5C122.838 67.248 122.91 67.152 123.03 67.152C123.186 67.152 123.246 67.32 123.222 67.632C123.21 67.764 123.186 67.992 123.186 68.208C123.186 68.472 123.186 68.82 123.21 69.012C123.234 69.324 123.09 69.408 123.018 69.408C122.934 69.408 122.814 69.348 122.73 69.108C122.61 68.76 122.514 68.64 122.262 68.616C121.77 68.58 121.434 68.58 120.894 68.58C120.822 68.58 120.738 68.784 120.738 68.88C120.738 69.996 120.762 70.392 120.774 70.656C120.798 71.004 120.87 71.244 120.918 71.28C121.026 71.376 121.374 71.52 122.298 71.52C122.79 71.52 122.934 71.508 123.21 71.424C123.534 71.328 123.726 71.1 123.99 70.716C124.182 70.392 124.266 70.248 124.41 70.248C124.59 70.248 124.59 70.56 124.542 70.788C124.47 71.136 124.218 71.712 124.17 71.82C124.098 71.988 123.822 72.06 123.774 72.06C123.282 72.06 122.946 72 120.762 72C120.006 72 119.226 72.06 118.71 72.06C118.41 72.06 118.266 72.012 118.266 71.916C118.266 71.772 118.41 71.652 118.662 71.592C119.43 71.412 119.562 71.304 119.598 70.848C119.634 70.524 119.646 70.224 119.646 69.624C119.646 67.776 119.622 65.856 119.586 65.64C119.55 65.268 119.31 65.172 118.83 65.052C118.626 65.004 118.506 64.884 118.506 64.8C118.506 64.656 118.674 64.608 118.83 64.608C119.034 64.608 119.646 64.668 120.438 64.668ZM128.59 67.692C128.59 67.752 128.686 67.848 128.782 67.848C129.958 67.848 131.89 67.824 132.61 67.86C132.646 67.86 132.766 67.752 132.766 67.692C132.766 67.368 132.766 65.796 132.718 65.544C132.718 65.34 132.322 65.196 132.058 65.124C131.662 65.016 131.578 64.932 131.578 64.848C131.578 64.728 131.686 64.632 131.938 64.632C132.43 64.632 132.922 64.668 133.378 64.668C133.846 64.668 134.35 64.62 134.59 64.62C134.83 64.62 134.926 64.716 134.926 64.824C134.926 64.932 134.83 65.004 134.518 65.076C134.026 65.184 133.918 65.352 133.906 65.64C133.882 66.084 133.858 67.152 133.858 68.268C133.858 69.3 133.858 70.32 133.906 70.788C133.966 71.364 134.11 71.412 134.65 71.556C134.914 71.616 135.034 71.736 135.034 71.844C135.034 71.976 134.914 72.036 134.686 72.036C134.458 72.036 133.882 72 133.438 72C132.814 72 132.358 72.036 131.998 72.036C131.71 72.036 131.578 71.952 131.578 71.856C131.578 71.736 131.686 71.628 131.962 71.556C132.586 71.412 132.67 71.28 132.718 70.764C132.766 70.392 132.802 69.396 132.766 68.94C132.742 68.52 132.646 68.496 132.634 68.496C130.834 68.496 128.962 68.496 128.734 68.532C128.65 68.532 128.59 68.652 128.59 68.688C128.59 70.296 128.602 70.716 128.626 70.896C128.686 71.28 128.83 71.4 129.526 71.604C129.67 71.64 129.802 71.76 129.802 71.856C129.802 71.988 129.694 72.036 129.394 72.036C129.046 72.036 128.71 72 128.194 72C127.81 72 127.114 72.06 126.754 72.06C126.49 72.06 126.37 72.012 126.37 71.88C126.37 71.748 126.502 71.652 126.73 71.592C127.342 71.436 127.438 71.268 127.462 70.752C127.498 70.224 127.498 68.748 127.498 67.02C127.498 66.12 127.474 65.688 127.426 65.52C127.378 65.316 127.282 65.22 126.622 65.04C126.49 65.004 126.358 64.932 126.358 64.8C126.358 64.692 126.514 64.62 126.742 64.62C127.438 64.62 127.87 64.668 128.194 64.668C128.566 64.668 128.734 64.632 129.154 64.632C129.346 64.632 129.478 64.704 129.478 64.836C129.478 64.932 129.322 65.028 129.178 65.064C128.782 65.184 128.59 65.316 128.59 65.76C128.59 66.132 128.602 66.924 128.59 67.692ZM138.926 64.668H143.006C143.678 64.668 143.894 64.632 144.002 64.524C144.134 64.416 144.218 64.332 144.29 64.332C144.326 64.332 144.518 64.476 144.518 64.56C144.518 64.644 144.374 65.34 144.374 66.144C144.374 66.312 144.254 66.48 144.122 66.48C143.99 66.48 143.918 66.312 143.894 66.204C143.726 65.448 143.486 65.328 143.162 65.292C142.982 65.268 142.43 65.244 141.41 65.244C141.362 65.244 141.266 65.328 141.254 65.4C141.218 65.724 141.194 67.176 141.194 67.932C141.194 68.664 141.194 69.768 141.242 70.452C141.302 71.316 141.506 71.34 142.106 71.58C142.322 71.664 142.454 71.712 142.454 71.856C142.454 71.952 142.334 72.06 142.094 72.06C141.974 72.06 141.098 72 140.378 72C139.67 72 139.37 72.036 139.046 72.036C138.794 72.036 138.674 71.94 138.674 71.808C138.674 71.712 138.794 71.628 139.01 71.568C139.862 71.34 140.066 71.304 140.066 70.488C140.066 70.236 140.102 68.988 140.102 67.092V65.52C140.102 65.376 140.018 65.244 139.982 65.244C139.682 65.244 138.422 65.232 138.266 65.232C138.086 65.232 137.762 65.376 137.486 66.12C137.414 66.324 137.306 66.456 137.21 66.456C137.018 66.456 136.97 66.288 136.982 66C137.006 65.628 137.102 65.1 137.066 64.536C137.054 64.428 137.27 64.32 137.318 64.32C137.354 64.32 137.426 64.356 137.498 64.428C137.678 64.584 137.81 64.632 138.158 64.644C138.65 64.668 138.542 64.668 138.926 64.668ZM150.966 67.02C150.966 66.48 150.798 65.976 150.558 65.688C150.222 65.28 149.634 65.076 148.998 65.076C148.866 65.076 148.734 65.112 148.686 65.16C148.65 65.196 148.602 65.268 148.602 65.328C148.59 65.568 148.554 66.396 148.554 68.016V70.488C148.554 71.316 148.626 71.424 149.454 71.616C149.622 71.652 149.718 71.724 149.718 71.856C149.718 71.976 149.538 72.048 149.394 72.048C149.034 72.048 148.782 72 148.29 72C147.858 72 147.042 72.072 146.646 72.072C146.478 72.072 146.274 72 146.274 71.88C146.274 71.748 146.358 71.688 146.622 71.616C147.27 71.436 147.27 71.328 147.366 70.692C147.402 70.416 147.474 69.348 147.474 67.212C147.474 66.276 147.474 65.844 147.438 65.568C147.414 65.292 147.15 65.22 146.706 65.1C146.514 65.052 146.382 64.932 146.382 64.812C146.382 64.668 146.478 64.632 146.682 64.632C146.958 64.632 147.702 64.668 147.858 64.668C148.266 64.668 148.77 64.596 149.358 64.596C150.402 64.596 151.122 64.92 151.53 65.34C151.878 65.724 152.118 66.348 152.118 66.924C152.118 67.716 151.746 68.256 151.434 68.556C150.942 69.036 150.174 69.216 149.766 69.216C149.682 69.216 149.478 69.228 149.346 69.132C149.286 69.096 149.154 68.976 149.154 68.916C149.154 68.82 149.238 68.772 149.286 68.76C149.334 68.76 149.49 68.736 149.55 68.724C150.162 68.712 150.966 68.196 150.966 67.02Z" fill="black"/>
<path d="M165.641 11.8511H150.445V8.71083L157.864 6.1333L165.637 8.71083L165.641 11.8511Z" stroke="black"/>
<path d="M41.1961 11.8511H26L26.003 8.71083L33.4246 6.1333L41.1961 8.71083V11.8511Z" stroke="black"/>
<path d="M25.5 11.7667V11.2667H25V11.7667H25.5ZM84.45 11.7667H84.95V11.2667H84.45V11.7667ZM84.45 22.5341V23.0341H84.95V22.5341H84.45ZM25.5 22.5341H25V23.0341H25.5V22.5341ZM26.5 21.5341H26V22.0341H26.5V21.5341ZM26.5 12.7667V12.2667H26V12.7667H26.5ZM83.45 21.5341V22.0341H83.95V21.5341H83.45ZM83.45 12.7667H83.95V12.2667H83.45V12.7667ZM42.0266 14.4041V13.9041H41.5266V14.4041H42.0266ZM45.7566 14.4041H46.2566V13.9041H45.7566V14.4041ZM45.7566 20.8198V21.3198H46.2566V20.8198H45.7566ZM42.0266 20.8198H41.5266V21.3198H42.0266V20.8198ZM43.0266 19.8198H42.5266V20.3198H43.0266V19.8198ZM43.0266 15.4041V14.9041H42.5266V15.4041H43.0266ZM44.7566 19.8198V20.3198H45.2566V19.8198H44.7566ZM44.7566 15.4041H45.2566V14.9041H44.7566V15.4041ZM48.0777 14.4041V13.9041H47.5777V14.4041H48.0777ZM51.8077 14.4041H52.3077V13.9041H51.8077V14.4041ZM51.8077 20.8198V21.3198H52.3077V20.8198H51.8077ZM48.0777 20.8198H47.5777V21.3198H48.0777V20.8198ZM49.0777 19.8198H48.5777V20.3198H49.0777V19.8198ZM49.0777 15.4041V14.9041H48.5777V15.4041H49.0777ZM50.8077 19.8198V20.3198H51.3077V19.8198H50.8077ZM50.8077 15.4041H51.3077V14.9041H50.8077V15.4041ZM54.1304 14.4041V13.9041H53.6304V14.4041H54.1304ZM57.8604 14.4041H58.3604V13.9041H57.8604V14.4041ZM57.8604 20.8198V21.3198H58.3604V20.8198H57.8604ZM54.1304 20.8198H53.6304V21.3198H54.1304V20.8198ZM55.1304 19.8198H54.6304V20.3198H55.1304V19.8198ZM55.1304 15.4041V14.9041H54.6304V15.4041H55.1304ZM56.8604 19.8198V20.3198H57.3604V19.8198H56.8604ZM56.8604 15.4041H57.3604V14.9041H56.8604V15.4041ZM60.183 14.4041V13.9041H59.683V14.4041H60.183ZM63.913 14.4041H64.413V13.9041H63.913V14.4041ZM63.913 20.8198V21.3198H64.413V20.8198H63.913ZM60.183 20.8198H59.683V21.3198H60.183V20.8198ZM61.183 19.8198H60.683V20.3198H61.183V19.8198ZM61.183 15.4041V14.9041H60.683V15.4041H61.183ZM62.913 19.8198V20.3198H63.413V19.8198H62.913ZM62.913 15.4041H63.413V14.9041H62.913V15.4041ZM66.2372 14.4041V13.9041H65.7372V14.4041H66.2372ZM69.9657 14.4041H70.4657V13.9041H69.9657V14.4041ZM69.9657 20.8198V21.3198H70.4657V20.8198H69.9657ZM66.2372 20.8198H65.7372V21.3198H66.2372V20.8198ZM67.2372 19.8198H66.7372V20.3198H67.2372V19.8198ZM67.2372 15.4041V14.9041H66.7372V15.4041H67.2372ZM68.9657 19.8198V20.3198H69.4657V19.8198H68.9657ZM68.9657 15.4041H69.4657V14.9041H68.9657V15.4041ZM72.2884 14.4041V13.9041H71.7884V14.4041H72.2884ZM76.0184 14.4041H76.5184V13.9041H76.0184V14.4041ZM76.0184 20.8198V21.3198H76.5184V20.8198H76.0184ZM72.2884 20.8198H71.7884V21.3198H72.2884V20.8198ZM73.2884 19.8198H72.7884V20.3198H73.2884V19.8198ZM73.2884 15.4041V14.9041H72.7884V15.4041H73.2884ZM75.0184 19.8198V20.3198H75.5184V19.8198H75.0184ZM75.0184 15.4041H75.5184V14.9041H75.0184V15.4041ZM78.341 14.4041V13.9041H77.841V14.4041H78.341ZM82.071 14.4041H82.571V13.9041H82.071V14.4041ZM82.071 20.8198V21.3198H82.571V20.8198H82.071ZM78.341 20.8198H77.841V21.3198H78.341V20.8198ZM79.341 19.8198H78.841V20.3198H79.341V19.8198ZM79.341 15.4041V14.9041H78.841V15.4041H79.341ZM81.071 19.8198V20.3198H81.571V19.8198H81.071ZM81.071 15.4041H81.571V14.9041H81.071V15.4041ZM26 11.2667H25.5V12.2667H26V11.2667ZM83.95 11.2667H26V12.2667H83.95V11.2667ZM84.45 11.2667H83.95V12.2667H84.45V11.2667ZM84.95 12.2667V11.7667H83.95V12.2667H84.95ZM84.95 22.0341V12.2667H83.95V22.0341H84.95ZM84.95 22.5341V22.0341H83.95V22.5341H84.95ZM83.95 23.0341H84.45V22.0341H83.95V23.0341ZM26 23.0341H83.95V22.0341H26V23.0341ZM25.5 23.0341H26V22.0341H25.5V23.0341ZM25 22.0341V22.5341H26V22.0341H25ZM25 12.2667V22.0341H26V12.2667H25ZM25 11.7667V12.2667H26V11.7667H25ZM27 21.5341V12.7667H26V21.5341H27ZM83.45 21.0341H26.5V22.0341H83.45V21.0341ZM82.95 12.7667V21.5341H83.95V12.7667H82.95ZM26.5 13.2667H83.45V12.2667H26.5V13.2667ZM42.5266 13.9041H42.0266V14.9041H42.5266V13.9041ZM45.2566 13.9041H42.5266V14.9041H45.2566V13.9041ZM45.7566 13.9041H45.2566V14.9041H45.7566V13.9041ZM46.2566 14.9041V14.4041H45.2566V14.9041H46.2566ZM46.2566 20.3198V14.9041H45.2566V20.3198H46.2566ZM46.2566 20.8198V20.3198H45.2566V20.8198H46.2566ZM45.2566 21.3198H45.7566V20.3198H45.2566V21.3198ZM42.5266 21.3198H45.2566V20.3198H42.5266V21.3198ZM42.0266 21.3198H42.5266V20.3198H42.0266V21.3198ZM41.5266 20.3198V20.8198H42.5266V20.3198H41.5266ZM41.5266 14.9041V20.3198H42.5266V14.9041H41.5266ZM41.5266 14.4041V14.9041H42.5266V14.4041H41.5266ZM43.5266 19.8198V15.4041H42.5266V19.8198H43.5266ZM44.7566 19.3198H43.0266V20.3198H44.7566V19.3198ZM44.2566 15.4041V19.8198H45.2566V15.4041H44.2566ZM43.0266 15.9041H44.7566V14.9041H43.0266V15.9041ZM48.5777 13.9041H48.0777V14.9041H48.5777V13.9041ZM51.3077 13.9041H48.5777V14.9041H51.3077V13.9041ZM51.8077 13.9041H51.3077V14.9041H51.8077V13.9041ZM52.3077 14.9041V14.4041H51.3077V14.9041H52.3077ZM52.3077 20.3198V14.9041H51.3077V20.3198H52.3077ZM52.3077 20.8198V20.3198H51.3077V20.8198H52.3077ZM51.3077 21.3198H51.8077V20.3198H51.3077V21.3198ZM48.5777 21.3198H51.3077V20.3198H48.5777V21.3198ZM48.0777 21.3198H48.5777V20.3198H48.0777V21.3198ZM47.5777 20.3198V20.8198H48.5777V20.3198H47.5777ZM47.5777 14.9041V20.3198H48.5777V14.9041H47.5777ZM47.5777 14.4041V14.9041H48.5777V14.4041H47.5777ZM49.5777 19.8198V15.4041H48.5777V19.8198H49.5777ZM50.8077 19.3198H49.0777V20.3198H50.8077V19.3198ZM50.3077 15.4041V19.8198H51.3077V15.4041H50.3077ZM49.0777 15.9041H50.8077V14.9041H49.0777V15.9041ZM54.6304 13.9041H54.1304V14.9041H54.6304V13.9041ZM57.3604 13.9041H54.6304V14.9041H57.3604V13.9041ZM57.8604 13.9041H57.3604V14.9041H57.8604V13.9041ZM58.3604 14.9041V14.4041H57.3604V14.9041H58.3604ZM58.3604 20.3198V14.9041H57.3604V20.3198H58.3604ZM58.3604 20.8198V20.3198H57.3604V20.8198H58.3604ZM57.3604 21.3198H57.8604V20.3198H57.3604V21.3198ZM54.6304 21.3198H57.3604V20.3198H54.6304V21.3198ZM54.1304 21.3198H54.6304V20.3198H54.1304V21.3198ZM53.6304 20.3198V20.8198H54.6304V20.3198H53.6304ZM53.6304 14.9041V20.3198H54.6304V14.9041H53.6304ZM53.6304 14.4041V14.9041H54.6304V14.4041H53.6304ZM55.6304 19.8198V15.4041H54.6304V19.8198H55.6304ZM56.8604 19.3198H55.1304V20.3198H56.8604V19.3198ZM56.3604 15.4041V19.8198H57.3604V15.4041H56.3604ZM55.1304 15.9041H56.8604V14.9041H55.1304V15.9041ZM60.683 13.9041H60.183V14.9041H60.683V13.9041ZM63.413 13.9041H60.683V14.9041H63.413V13.9041ZM63.913 13.9041H63.413V14.9041H63.913V13.9041ZM64.413 14.9041V14.4041H63.413V14.9041H64.413ZM64.413 20.3198V14.9041H63.413V20.3198H64.413ZM64.413 20.8198V20.3198H63.413V20.8198H64.413ZM63.413 21.3198H63.913V20.3198H63.413V21.3198ZM60.683 21.3198H63.413V20.3198H60.683V21.3198ZM60.183 21.3198H60.683V20.3198H60.183V21.3198ZM59.683 20.3198V20.8198H60.683V20.3198H59.683ZM59.683 14.9041V20.3198H60.683V14.9041H59.683ZM59.683 14.4041V14.9041H60.683V14.4041H59.683ZM61.683 19.8198V15.4041H60.683V19.8198H61.683ZM62.913 19.3198H61.183V20.3198H62.913V19.3198ZM62.413 15.4041V19.8198H63.413V15.4041H62.413ZM61.183 15.9041H62.913V14.9041H61.183V15.9041ZM66.7372 13.9041H66.2372V14.9041H66.7372V13.9041ZM69.4657 13.9041H66.7372V14.9041H69.4657V13.9041ZM69.9657 13.9041H69.4657V14.9041H69.9657V13.9041ZM70.4657 14.9041V14.4041H69.4657V14.9041H70.4657ZM70.4657 20.3198V14.9041H69.4657V20.3198H70.4657ZM70.4657 20.8198V20.3198H69.4657V20.8198H70.4657ZM69.4657 21.3198H69.9657V20.3198H69.4657V21.3198ZM66.7372 21.3198H69.4657V20.3198H66.7372V21.3198ZM66.2372 21.3198H66.7372V20.3198H66.2372V21.3198ZM65.7372 20.3198V20.8198H66.7372V20.3198H65.7372ZM65.7372 14.9041V20.3198H66.7372V14.9041H65.7372ZM65.7372 14.4041V14.9041H66.7372V14.4041H65.7372ZM67.7372 19.8198V15.4041H66.7372V19.8198H67.7372ZM68.9657 19.3198H67.2372V20.3198H68.9657V19.3198ZM68.4657 15.4041V19.8198H69.4657V15.4041H68.4657ZM67.2372 15.9041H68.9657V14.9041H67.2372V15.9041ZM72.7884 13.9041H72.2884V14.9041H72.7884V13.9041ZM75.5184 13.9041H72.7884V14.9041H75.5184V13.9041ZM76.0184 13.9041H75.5184V14.9041H76.0184V13.9041ZM76.5184 14.9041V14.4041H75.5184V14.9041H76.5184ZM76.5184 20.3198V14.9041H75.5184V20.3198H76.5184ZM76.5184 20.8198V20.3198H75.5184V20.8198H76.5184ZM75.5184 21.3198H76.0184V20.3198H75.5184V21.3198ZM72.7884 21.3198H75.5184V20.3198H72.7884V21.3198ZM72.2884 21.3198H72.7884V20.3198H72.2884V21.3198ZM71.7884 20.3198V20.8198H72.7884V20.3198H71.7884ZM71.7884 14.9041V20.3198H72.7884V14.9041H71.7884ZM71.7884 14.4041V14.9041H72.7884V14.4041H71.7884ZM73.7884 19.8198V15.4041H72.7884V19.8198H73.7884ZM75.0184 19.3198H73.2884V20.3198H75.0184V19.3198ZM74.5184 15.4041V19.8198H75.5184V15.4041H74.5184ZM73.2884 15.9041H75.0184V14.9041H73.2884V15.9041ZM78.841 13.9041H78.341V14.9041H78.841V13.9041ZM81.571 13.9041H78.841V14.9041H81.571V13.9041ZM82.071 13.9041H81.571V14.9041H82.071V13.9041ZM82.571 14.9041V14.4041H81.571V14.9041H82.571ZM82.571 20.3198V14.9041H81.571V20.3198H82.571ZM82.571 20.8198V20.3198H81.571V20.8198H82.571ZM81.571 21.3198H82.071V20.3198H81.571V21.3198ZM78.841 21.3198H81.571V20.3198H78.841V21.3198ZM78.341 21.3198H78.841V20.3198H78.341V21.3198ZM77.841 20.3198V20.8198H78.841V20.3198H77.841ZM77.841 14.9041V20.3198H78.841V14.9041H77.841ZM77.841 14.4041V14.9041H78.841V14.4041H77.841ZM79.841 19.8198V15.4041H78.841V19.8198H79.841ZM81.071 19.3198H79.341V20.3198H81.071V19.3198ZM80.571 15.4041V19.8198H81.571V15.4041H80.571ZM79.341 15.9041H81.071V14.9041H79.341V15.9041Z" fill="black"/>
<rect x="42.5547" y="9.19995" width="41.25" height="1.88907" stroke="black" stroke-width="0.5"/>
<path d="M104.834 11.7667V11.2667H104.334V11.7667H104.834ZM166.141 11.7667H166.641V11.2667H166.141V11.7667ZM166.141 22.5341V23.0341H166.641V22.5341H166.141ZM104.834 22.5341H104.334V23.0341H104.834V22.5341ZM105.834 21.5341H105.334V22.0341H105.834V21.5341ZM105.834 12.7667V12.2667H105.334V12.7667H105.834ZM165.141 21.5341V22.0341H165.641V21.5341H165.141ZM165.141 12.7667H165.641V12.2667H165.141V12.7667ZM107.66 14.4041V13.9041H107.16V14.4041H107.66ZM111.39 14.4041H111.89V13.9041H111.39V14.4041ZM111.39 20.8198V21.3198H111.89V20.8198H111.39ZM107.66 20.8198H107.16V21.3198H107.66V20.8198ZM108.66 19.8198H108.16V20.3198H108.66V19.8198ZM108.66 15.4041V14.9041H108.16V15.4041H108.66ZM110.39 19.8198V20.3198H110.89V19.8198H110.39ZM110.39 15.4041H110.89V14.9041H110.39V15.4041ZM113.713 14.4041V13.9041H113.213V14.4041H113.713ZM117.442 14.4041H117.942V13.9041H117.442V14.4041ZM117.442 20.8198V21.3198H117.942V20.8198H117.442ZM113.713 20.8198H113.213V21.3198H113.713V20.8198ZM114.713 19.8198H114.213V20.3198H114.713V19.8198ZM114.713 15.4041V14.9041H114.213V15.4041H114.713ZM116.442 19.8198V20.3198H116.942V19.8198H116.442ZM116.442 15.4041H116.942V14.9041H116.442V15.4041ZM119.766 14.4041V13.9041H119.266V14.4041H119.766ZM123.496 14.4041H123.996V13.9041H123.496V14.4041ZM123.496 20.8198V21.3198H123.996V20.8198H123.496ZM119.766 20.8198H119.266V21.3198H119.766V20.8198ZM120.766 19.8198H120.266V20.3198H120.766V19.8198ZM120.766 15.4041V14.9041H120.266V15.4041H120.766ZM122.496 19.8198V20.3198H122.996V19.8198H122.496ZM122.496 15.4041H122.996V14.9041H122.496V15.4041ZM125.818 14.4041V13.9041H125.318V14.4041H125.818ZM129.548 14.4041H130.048V13.9041H129.548V14.4041ZM129.548 20.8198V21.3198H130.048V20.8198H129.548ZM125.818 20.8198H125.318V21.3198H125.818V20.8198ZM126.818 19.8198H126.318V20.3198H126.818V19.8198ZM126.818 15.4041V14.9041H126.318V15.4041H126.818ZM128.548 19.8198V20.3198H129.048V19.8198H128.548ZM128.548 15.4041H129.048V14.9041H128.548V15.4041ZM131.871 14.4041V13.9041H131.371V14.4041H131.871ZM135.598 14.4041H136.098V13.9041H135.598V14.4041ZM135.598 20.8198V21.3198H136.098V20.8198H135.598ZM131.871 20.8198H131.371V21.3198H131.871V20.8198ZM132.871 19.8198H132.371V20.3198H132.871V19.8198ZM132.871 15.4041V14.9041H132.371V15.4041H132.871ZM134.598 19.8198V20.3198H135.098V19.8198H134.598ZM134.598 15.4041H135.098V14.9041H134.598V15.4041ZM137.924 14.4041V13.9041H137.424V14.4041H137.924ZM141.654 14.4041H142.154V13.9041H141.654V14.4041ZM141.654 20.8198V21.3198H142.154V20.8198H141.654ZM137.924 20.8198H137.424V21.3198H137.924V20.8198ZM138.924 19.8198H138.424V20.3198H138.924V19.8198ZM138.924 15.4041V14.9041H138.424V15.4041H138.924ZM140.654 19.8198V20.3198H141.154V19.8198H140.654ZM140.654 15.4041H141.154V14.9041H140.654V15.4041ZM143.975 14.4041V13.9041H143.475V14.4041H143.975ZM147.703 14.4041H148.203V13.9041H147.703V14.4041ZM147.703 20.8198V21.3198H148.203V20.8198H147.703ZM143.975 20.8198H143.475V21.3198H143.975V20.8198ZM144.975 19.8198H144.475V20.3198H144.975V19.8198ZM144.975 15.4041V14.9041H144.475V15.4041H144.975ZM146.703 19.8198V20.3198H147.203V19.8198H146.703ZM146.703 15.4041H147.203V14.9041H146.703V15.4041ZM105.334 11.2667H104.834V12.2667H105.334V11.2667ZM165.641 11.2667H105.334V12.2667H165.641V11.2667ZM166.141 11.2667H165.641V12.2667H166.141V11.2667ZM166.641 12.2667V11.7667H165.641V12.2667H166.641ZM166.641 22.0341V12.2667H165.641V22.0341H166.641ZM166.641 22.5341V22.0341H165.641V22.5341H166.641ZM165.641 23.0341H166.141V22.0341H165.641V23.0341ZM105.334 23.0341H165.641V22.0341H105.334V23.0341ZM104.834 23.0341H105.334V22.0341H104.834V23.0341ZM104.334 22.0341V22.5341H105.334V22.0341H104.334ZM104.334 12.2667V22.0341H105.334V12.2667H104.334ZM104.334 11.7667V12.2667H105.334V11.7667H104.334ZM106.334 21.5341V12.7667H105.334V21.5341H106.334ZM165.141 21.0341H105.834V22.0341H165.141V21.0341ZM164.641 12.7667V21.5341H165.641V12.7667H164.641ZM105.834 13.2667H165.141V12.2667H105.834V13.2667ZM108.16 13.9041H107.66V14.9041H108.16V13.9041ZM110.89 13.9041H108.16V14.9041H110.89V13.9041ZM111.39 13.9041H110.89V14.9041H111.39V13.9041ZM111.89 14.9041V14.4041H110.89V14.9041H111.89ZM111.89 20.3198V14.9041H110.89V20.3198H111.89ZM111.89 20.8198V20.3198H110.89V20.8198H111.89ZM110.89 21.3198H111.39V20.3198H110.89V21.3198ZM108.16 21.3198H110.89V20.3198H108.16V21.3198ZM107.66 21.3198H108.16V20.3198H107.66V21.3198ZM107.16 20.3198V20.8198H108.16V20.3198H107.16ZM107.16 14.9041V20.3198H108.16V14.9041H107.16ZM107.16 14.4041V14.9041H108.16V14.4041H107.16ZM109.16 19.8198V15.4041H108.16V19.8198H109.16ZM110.39 19.3198H108.66V20.3198H110.39V19.3198ZM109.89 15.4041V19.8198H110.89V15.4041H109.89ZM108.66 15.9041H110.39V14.9041H108.66V15.9041ZM114.213 13.9041H113.713V14.9041H114.213V13.9041ZM116.942 13.9041H114.213V14.9041H116.942V13.9041ZM117.442 13.9041H116.942V14.9041H117.442V13.9041ZM117.942 14.9041V14.4041H116.942V14.9041H117.942ZM117.942 20.3198V14.9041H116.942V20.3198H117.942ZM117.942 20.8198V20.3198H116.942V20.8198H117.942ZM116.942 21.3198H117.442V20.3198H116.942V21.3198ZM114.213 21.3198H116.942V20.3198H114.213V21.3198ZM113.713 21.3198H114.213V20.3198H113.713V21.3198ZM113.213 20.3198V20.8198H114.213V20.3198H113.213ZM113.213 14.9041V20.3198H114.213V14.9041H113.213ZM113.213 14.4041V14.9041H114.213V14.4041H113.213ZM115.213 19.8198V15.4041H114.213V19.8198H115.213ZM116.442 19.3198H114.713V20.3198H116.442V19.3198ZM115.942 15.4041V19.8198H116.942V15.4041H115.942ZM114.713 15.9041H116.442V14.9041H114.713V15.9041ZM120.266 13.9041H119.766V14.9041H120.266V13.9041ZM122.996 13.9041H120.266V14.9041H122.996V13.9041ZM123.496 13.9041H122.996V14.9041H123.496V13.9041ZM123.996 14.9041V14.4041H122.996V14.9041H123.996ZM123.996 20.3198V14.9041H122.996V20.3198H123.996ZM123.996 20.8198V20.3198H122.996V20.8198H123.996ZM122.996 21.3198H123.496V20.3198H122.996V21.3198ZM120.266 21.3198H122.996V20.3198H120.266V21.3198ZM119.766 21.3198H120.266V20.3198H119.766V21.3198ZM119.266 20.3198V20.8198H120.266V20.3198H119.266ZM119.266 14.9041V20.3198H120.266V14.9041H119.266ZM119.266 14.4041V14.9041H120.266V14.4041H119.266ZM121.266 19.8198V15.4041H120.266V19.8198H121.266ZM122.496 19.3198H120.766V20.3198H122.496V19.3198ZM121.996 15.4041V19.8198H122.996V15.4041H121.996ZM120.766 15.9041H122.496V14.9041H120.766V15.9041ZM126.318 13.9041H125.818V14.9041H126.318V13.9041ZM129.048 13.9041H126.318V14.9041H129.048V13.9041ZM129.548 13.9041H129.048V14.9041H129.548V13.9041ZM130.048 14.9041V14.4041H129.048V14.9041H130.048ZM130.048 20.3198V14.9041H129.048V20.3198H130.048ZM130.048 20.8198V20.3198H129.048V20.8198H130.048ZM129.048 21.3198H129.548V20.3198H129.048V21.3198ZM126.318 21.3198H129.048V20.3198H126.318V21.3198ZM125.818 21.3198H126.318V20.3198H125.818V21.3198ZM125.318 20.3198V20.8198H126.318V20.3198H125.318ZM125.318 14.9041V20.3198H126.318V14.9041H125.318ZM125.318 14.4041V14.9041H126.318V14.4041H125.318ZM127.318 19.8198V15.4041H126.318V19.8198H127.318ZM128.548 19.3198H126.818V20.3198H128.548V19.3198ZM128.048 15.4041V19.8198H129.048V15.4041H128.048ZM126.818 15.9041H128.548V14.9041H126.818V15.9041ZM132.371 13.9041H131.871V14.9041H132.371V13.9041ZM135.098 13.9041H132.371V14.9041H135.098V13.9041ZM135.598 13.9041H135.098V14.9041H135.598V13.9041ZM136.098 14.9041V14.4041H135.098V14.9041H136.098ZM136.098 20.3198V14.9041H135.098V20.3198H136.098ZM136.098 20.8198V20.3198H135.098V20.8198H136.098ZM135.098 21.3198H135.598V20.3198H135.098V21.3198ZM132.371 21.3198H135.098V20.3198H132.371V21.3198ZM131.871 21.3198H132.371V20.3198H131.871V21.3198ZM131.371 20.3198V20.8198H132.371V20.3198H131.371ZM131.371 14.9041V20.3198H132.371V14.9041H131.371ZM131.371 14.4041V14.9041H132.371V14.4041H131.371ZM133.371 19.8198V15.4041H132.371V19.8198H133.371ZM134.598 19.3198H132.871V20.3198H134.598V19.3198ZM134.098 15.4041V19.8198H135.098V15.4041H134.098ZM132.871 15.9041H134.598V14.9041H132.871V15.9041ZM138.424 13.9041H137.924V14.9041H138.424V13.9041ZM141.154 13.9041H138.424V14.9041H141.154V13.9041ZM141.654 13.9041H141.154V14.9041H141.654V13.9041ZM142.154 14.9041V14.4041H141.154V14.9041H142.154ZM142.154 20.3198V14.9041H141.154V20.3198H142.154ZM142.154 20.8198V20.3198H141.154V20.8198H142.154ZM141.154 21.3198H141.654V20.3198H141.154V21.3198ZM138.424 21.3198H141.154V20.3198H138.424V21.3198ZM137.924 21.3198H138.424V20.3198H137.924V21.3198ZM137.424 20.3198V20.8198H138.424V20.3198H137.424ZM137.424 14.9041V20.3198H138.424V14.9041H137.424ZM137.424 14.4041V14.9041H138.424V14.4041H137.424ZM139.424 19.8198V15.4041H138.424V19.8198H139.424ZM140.654 19.3198H138.924V20.3198H140.654V19.3198ZM140.154 15.4041V19.8198H141.154V15.4041H140.154ZM138.924 15.9041H140.654V14.9041H138.924V15.9041ZM144.475 13.9041H143.975V14.9041H144.475V13.9041ZM147.203 13.9041H144.475V14.9041H147.203V13.9041ZM147.703 13.9041H147.203V14.9041H147.703V13.9041ZM148.203 14.9041V14.4041H147.203V14.9041H148.203ZM148.203 20.3198V14.9041H147.203V20.3198H148.203ZM148.203 20.8198V20.3198H147.203V20.8198H148.203ZM147.203 21.3198H147.703V20.3198H147.203V21.3198ZM144.475 21.3198H147.203V20.3198H144.475V21.3198ZM143.975 21.3198H144.475V20.3198H143.975V21.3198ZM143.475 20.3198V20.8198H144.475V20.3198H143.475ZM143.475 14.9041V20.3198H144.475V14.9041H143.475ZM143.475 14.4041V14.9041H144.475V14.4041H143.475ZM145.475 19.8198V15.4041H144.475V19.8198H145.475ZM146.703 19.3198H144.975V20.3198H146.703V19.3198ZM146.203 15.4041V19.8198H147.203V15.4041H146.203ZM144.975 15.9041H146.703V14.9041H144.975V15.9041Z" fill="black"/>
<rect x="105.334" y="9.19995" width="43.25" height="1.88907" stroke="black" stroke-width="0.5"/>
<mask id="path-9-inside-1_4_1288" fill="white">
<path fill-rule="evenodd" clip-rule="evenodd" d="M103.015 7.66663H104.015V8.66663V21.5V22.5H103.015H86.1094H85.1094L85.1095 21.5L85.1105 7.66663H103.015ZM86.1095 21.5H103.015V8.66663H86.1104L86.1095 21.5ZM95.4101 12.2927C95.4101 11.8552 95.0449 11.4742 94.5636 11.4742C94.0834 11.4742 93.7187 11.8542 93.7187 12.2927C93.7187 12.7344 94.0851 13.1143 94.5636 13.1143C95.0433 13.1143 95.4101 12.7333 95.4101 12.2927ZM96.4101 12.2927C96.4101 11.2884 95.5825 10.4742 94.5636 10.4742C93.5447 10.4742 92.7187 11.2884 92.7187 12.2927C92.7187 13.2986 93.5447 14.1143 94.5636 14.1143C95.5825 14.1143 96.4101 13.2986 96.4101 12.2927Z"/>
</mask>
<path d="M104.015 7.66663H105.015V6.66663H104.015V7.66663ZM104.015 22.5V23.5H105.015V22.5H104.015ZM85.1094 22.5L84.1094 22.4999L84.1093 23.5H85.1094V22.5ZM85.1095 21.5L86.1095 21.5L85.1095 21.5ZM85.1105 7.66663V6.66663H84.1106L84.1105 7.66655L85.1105 7.66663ZM103.015 21.5V22.5H104.015V21.5H103.015ZM86.1095 21.5L85.1095 21.4999L85.1094 22.5H86.1095V21.5ZM103.015 8.66663H104.015V7.66663H103.015V8.66663ZM86.1104 8.66663V7.66663H85.1105L85.1104 8.66655L86.1104 8.66663ZM104.015 6.66663H103.015V8.66663H104.015V6.66663ZM105.015 8.66663V7.66663H103.015V8.66663H105.015ZM105.015 21.5V8.66663H103.015V21.5H105.015ZM105.015 22.5V21.5H103.015V22.5H105.015ZM103.015 23.5H104.015V21.5H103.015V23.5ZM86.1094 23.5H103.015V21.5H86.1094V23.5ZM85.1094 23.5H86.1094V21.5H85.1094V23.5ZM84.1095 21.4999L84.1094 22.4999L86.1094 22.5L86.1095 21.5L84.1095 21.4999ZM84.1105 7.66655L84.1095 21.4999L86.1095 21.5L86.1105 7.6667L84.1105 7.66655ZM103.015 6.66663H85.1105V8.66663H103.015V6.66663ZM103.015 20.5H86.1095V22.5H103.015V20.5ZM102.015 8.66663V21.5H104.015V8.66663H102.015ZM86.1104 9.66663H103.015V7.66663H86.1104V9.66663ZM87.1095 21.5L87.1104 8.6667L85.1104 8.66655L85.1095 21.4999L87.1095 21.5ZM94.5636 12.4742C94.502 12.4742 94.4101 12.4168 94.4101 12.2927H96.4101C96.4101 11.2936 95.5879 10.4742 94.5636 10.4742V12.4742ZM94.7187 12.2927C94.7187 12.4151 94.627 12.4742 94.5636 12.4742V10.4742C93.5398 10.4742 92.7187 11.2933 92.7187 12.2927H94.7187ZM94.5636 12.1143C94.6297 12.1143 94.7187 12.1745 94.7187 12.2927H92.7187C92.7187 13.2943 93.5404 14.1143 94.5636 14.1143V12.1143ZM94.4101 12.2927C94.4101 12.1727 94.4993 12.1143 94.5636 12.1143V14.1143C95.5872 14.1143 96.4101 13.2939 96.4101 12.2927H94.4101ZM94.5636 11.4742C95.0449 11.4742 95.4101 11.8552 95.4101 12.2927H97.4101C97.4101 10.7215 96.1201 9.47416 94.5636 9.47416V11.4742ZM93.7187 12.2927C93.7187 11.8542 94.0834 11.4742 94.5636 11.4742V9.47416C93.0061 9.47416 91.7187 10.7226 91.7187 12.2927H93.7187ZM94.5636 13.1143C94.0851 13.1143 93.7187 12.7344 93.7187 12.2927H91.7187C91.7187 13.8627 93.0044 15.1143 94.5636 15.1143V13.1143ZM95.4101 12.2927C95.4101 12.7333 95.0433 13.1143 94.5636 13.1143V15.1143C96.1217 15.1143 97.4101 13.8638 97.4101 12.2927H95.4101Z" fill="black" mask="url(#path-9-inside-1_4_1288)"/>
<path d="M85.6113 6.61467V3.56187L94.3488 0.527989L103.518 3.56721V6.61467H85.6113Z" stroke="black"/>
</svg>
