<svg width="60" height="38" viewBox="0 0 60 38" fill="none" xmlns="http://www.w3.org/2000/svg">
<path fill-rule="evenodd" clip-rule="evenodd" d="M30.405 0.133322C30.2012 -0.0176449 29.9088 -0.0491299 29.689 0.0840761C29.3877 0.231006 29.1824 0.504684 29.014 0.785628C28.7801 1.16171 28.5315 1.52822 28.2829 1.89475L28.2829 1.89478C27.9632 2.36617 27.6435 2.8376 27.3549 3.32946C26.7894 4.25464 26.3271 5.24036 25.9429 6.25353C25.6578 7.02613 25.4444 7.83424 25.4154 8.66093C25.3099 10.4959 25.6812 12.3681 26.5744 13.9803C27.2888 15.1799 28.1305 16.3158 29.1509 17.2725C28.6347 17.6624 28.1168 18.0491 27.5731 18.4011C27.2476 18.0955 26.9277 17.7838 26.6077 17.4721L26.6077 17.4721L26.6077 17.472L26.6077 17.472L26.6077 17.472L26.6077 17.472L26.6076 17.472C26.0022 16.8821 25.3967 16.2922 24.7533 15.7435C23.6451 14.7577 22.4506 13.8681 21.2022 13.0688C19.4553 11.9313 17.4578 11.1345 15.3718 10.9545C13.7513 10.8205 12.0124 11.0457 10.6649 12.025C10.0117 12.4666 9.54778 13.1584 9.33434 13.9141C9.13057 14.7739 9.15393 15.7192 9.55745 16.5193C10.0786 17.5518 10.855 18.4286 11.6693 19.2375C12.792 20.3661 14.278 21.0402 15.7801 21.5004C18.1094 22.2843 20.6634 22.277 23.0289 21.6538C24.5923 21.2945 26.0581 20.6067 27.4491 19.8196C27.9694 20.2821 28.5074 20.7245 29.0503 21.1613C28.1393 21.8483 27.201 22.499 26.2434 23.1182C24.8717 23.9594 23.4486 24.7183 21.9819 25.3803C20.3364 26.144 18.5959 26.6655 16.861 27.1814C16.728 27.2327 16.6014 27.175 16.4782 27.1187C16.4328 27.098 16.3878 27.0775 16.3431 27.0627C14.6701 26.3478 12.9793 25.6775 11.2887 25.0073L11.2886 25.0073L11.2885 25.0072C10.9461 24.8715 10.6037 24.7357 10.2614 24.5996C9.61714 24.3448 8.98325 24.0649 8.34942 23.7849L8.34934 23.7849C7.38254 23.3579 6.41586 22.9309 5.41275 22.5935C4.60491 22.2988 3.75197 22.1034 2.88855 22.1034C2.46329 22.0986 2.02514 22.0937 1.62001 22.2463C1.01756 22.4344 0.517392 22.8906 0.241938 23.4565C-0.056874 23.9699 -0.0890909 24.6384 0.202472 25.1623C0.574577 25.8833 1.19475 26.4346 1.81654 26.9376C2.91835 27.7376 4.22555 28.1905 5.53034 28.5345C7.13313 28.9728 8.79471 29.2126 10.4579 29.1892C12.5311 29.2191 14.6131 28.968 16.6113 28.4117C18.939 29.3079 21.2151 30.3291 23.4816 31.3681C25.1126 32.1181 26.7629 32.8245 28.4204 33.5123C26.0219 34.3414 23.5678 35.0034 21.0975 35.5823C19.2128 36.0198 17.3016 36.3589 15.3718 36.5074C13.2165 36.6641 11.0555 36.4429 8.926 36.1143C8.23656 36.0134 7.55356 35.8454 6.906 35.5831C6.60638 35.4604 6.26891 35.4353 5.95157 35.4959C5.70028 35.5516 5.60685 35.8737 5.7478 36.0771C5.90486 36.2927 6.10621 36.4913 6.35912 36.5882C7.12668 36.9063 7.93694 37.1202 8.75927 37.2348C10.5731 37.5166 12.4086 37.7023 14.2466 37.6708C15.9734 37.6595 17.6898 37.4132 19.3868 37.1073C21.5582 36.6762 23.7079 36.1369 25.8342 35.5177C27.2413 35.1164 28.6323 34.6587 29.9991 34.1331C32.7625 35.1891 35.6225 35.9706 38.4979 36.6528C40.4268 37.1065 42.384 37.4601 44.3613 37.6151C46.2927 37.7499 48.2346 37.6466 50.1523 37.3906C50.2699 37.3741 50.3878 37.358 50.5056 37.3418C51.2716 37.2371 52.0402 37.132 52.778 36.8941C52.8448 36.8724 52.9128 36.8512 52.9814 36.83C53.4417 36.6871 53.9268 36.5366 54.2149 36.1256C54.3977 35.9439 54.3534 35.5774 54.0852 35.5072C53.759 35.4305 53.4062 35.4531 53.0961 35.5831C52.0254 36.0209 50.8727 36.1615 49.7308 36.3008L49.7307 36.3008L49.7306 36.3008C49.5567 36.322 49.383 36.3432 49.21 36.3654C47.1747 36.6116 45.1088 36.6358 43.0767 36.3468C40.8134 36.0642 38.5905 35.5322 36.3852 34.959C34.7672 34.5231 33.1539 34.0629 31.5688 33.5139C33.3905 32.7816 35.179 31.9722 36.9674 31.1628C39.0865 30.2037 41.2056 29.2447 43.3795 28.4142C45.4027 28.9672 47.5049 29.2263 49.6014 29.1892C51.5964 29.2166 53.577 28.842 55.4737 28.2446C56.6207 27.8636 57.7724 27.3719 58.6632 26.5315C59.2069 26.0471 59.732 25.4844 59.9519 24.774C60.1323 24.0442 59.7836 23.2886 59.2697 22.7816C58.7623 22.2818 58.0318 22.0711 57.3327 22.1026C55.775 22.0512 54.3175 22.6569 52.9026 23.2448C52.784 23.2941 52.6657 23.3433 52.5476 23.3919C51.0463 24.0668 49.5257 24.6981 47.9922 25.2947C46.8035 25.7499 45.6288 26.24 44.4543 26.7299L44.4538 26.7302L44.4533 26.7304L44.4528 26.7306L44.4523 26.7308L44.4518 26.731L44.4513 26.7312C44.0582 26.8952 43.6652 27.0591 43.2716 27.2218C43.0503 27.1543 42.8288 27.0875 42.6072 27.0207C41.4955 26.6857 40.383 26.3504 39.3025 25.9236C36.3184 24.7264 33.4954 23.1231 30.9494 21.1532C31.5044 20.7286 32.0384 20.2749 32.5579 19.8066C33.3383 20.2854 34.1679 20.6793 35.0128 21.0297C37.6554 22.0744 40.6226 22.4514 43.3997 21.7418C44.8003 21.3575 46.2009 20.8682 47.3986 20.0246C48.2354 19.4264 48.9321 18.6586 49.5772 17.8634C50.1652 17.0876 50.7556 16.2149 50.7813 15.2058C50.8667 14.1232 50.4769 12.976 49.6401 12.2656C48.4368 11.2314 46.8018 10.8802 45.2513 10.9222C43.1991 10.9682 41.1984 11.6472 39.4346 12.6757C38.2063 13.4071 37.0425 14.2443 35.9374 15.1509C35.0069 15.9064 34.1456 16.7403 33.2847 17.5738L33.2846 17.5739L33.2846 17.574L33.2845 17.574L33.2844 17.5741L33.2844 17.5742L33.2843 17.5742L33.2842 17.5743C32.9999 17.8496 32.7157 18.1248 32.429 18.3971C32.0018 18.1335 31.5993 17.8341 31.1971 17.5348C31.0806 17.4481 30.9642 17.3615 30.8472 17.2757C31.6413 16.5411 32.3066 15.6805 32.9203 14.7908C33.9029 13.3716 34.4877 11.6746 34.573 9.94778C34.6294 9.13159 34.6141 8.30168 34.4305 7.50163C34.2034 6.49492 33.7918 5.54229 33.3488 4.6147C32.8092 3.49586 32.1098 2.46824 31.413 1.44442L31.413 1.44432L31.4129 1.4443L31.3224 1.31119C31.2407 1.19637 31.1664 1.07414 31.0919 0.951627L31.0919 0.951613L31.0918 0.951593C30.9038 0.64252 30.7147 0.331617 30.405 0.133322ZM29.2595 2.46968C29.5113 2.09387 29.7631 1.71815 30.0039 1.33621C30.2375 1.73995 30.5016 2.12408 30.7658 2.50825C30.9871 2.83005 31.2084 3.15187 31.4118 3.48527C32.156 4.66636 32.7898 5.92899 33.199 7.26671C33.4406 8.08451 33.5421 8.94672 33.4599 9.79681C33.3738 11.2936 32.9139 12.7798 32.0722 14.0247C31.4689 14.9273 30.7948 15.7862 30.0015 16.5306C29.4618 16.0163 28.9584 15.4625 28.5203 14.8578C27.6472 13.7583 26.9819 12.4803 26.7073 11.095C26.5212 10.0866 26.4302 9.04198 26.6195 8.02638C26.7911 7.05842 27.1809 6.14778 27.5973 5.26296C28.0509 4.27325 28.6554 3.3712 29.2595 2.46968ZM12.2258 12.4496C11.5791 12.7443 10.8912 13.1237 10.5836 13.8027C10.2517 14.5155 10.234 15.3963 10.615 16.0946C11.07 16.9665 11.7345 17.7068 12.4256 18.3979C13.0562 19.0381 13.8318 19.516 14.6501 19.8777C16.2473 20.5647 17.9693 21.0055 19.7154 20.991C22.1196 20.9167 24.4867 20.2063 26.5696 19.0082C26.3876 18.8328 26.2063 18.6565 26.025 18.4802L26.025 18.4801C25.3839 17.8566 24.7424 17.2328 24.0687 16.6444C22.8421 15.5667 21.5284 14.5882 20.1351 13.7381C18.4324 12.7152 16.4825 12.0629 14.4874 12.0331C13.7215 12.067 12.9434 12.1638 12.2258 12.4496ZM40.1522 13.5678C41.337 12.9163 42.6071 12.3939 43.949 12.1864C45.1958 11.9418 46.5102 11.9927 47.7119 12.423C48.3756 12.7128 49.0771 13.0947 49.4041 13.7785C49.7416 14.484 49.7738 15.3608 49.4017 16.0599C49.0884 16.6815 48.651 17.2297 48.1943 17.7496L48.1609 17.7857L48.1608 17.7857L48.1608 17.7857C47.7707 18.2059 47.3773 18.6297 46.9153 18.9711C46.1107 19.5838 45.1716 19.9923 44.2172 20.3088C42.7118 20.8392 41.0953 21.0895 39.5022 20.9506C37.8857 20.7794 36.2805 20.396 34.805 19.7033C34.3354 19.4934 33.8788 19.2577 33.4301 19.0074C33.6479 18.7988 33.8644 18.5888 34.0809 18.3787C34.8601 17.6229 35.6396 16.8667 36.4779 16.1762C37.6312 15.2106 38.8571 14.3315 40.1522 13.5678ZM29.9958 18.0475C29.4868 18.4415 28.9713 18.8298 28.4325 19.1826C28.5236 19.2591 28.6145 19.3359 28.7054 19.4128L28.7055 19.4129L28.7057 19.413L28.7057 19.4131C29.1298 19.7718 29.5544 20.1308 30.0047 20.4565C30.5395 20.0513 31.0566 19.621 31.564 19.1818C31.1328 18.9013 30.7215 18.5922 30.3106 18.2834C30.2057 18.2046 30.1009 18.1258 29.9958 18.0475ZM23.1071 26.1117C24.7413 25.3214 26.3424 24.4519 27.8397 23.4218C28.0375 23.281 28.2362 23.1416 28.4348 23.0022L28.435 23.0021C28.9622 22.6322 29.4894 22.2623 29.9982 21.8677C30.8721 22.5273 31.7678 23.1594 32.6779 23.7689C34.0697 24.6779 35.5387 25.4626 37.0368 26.1812C38.5172 26.89 40.0692 27.4317 41.635 27.9169C40.9982 28.1298 40.383 28.3996 39.768 28.6693L39.768 28.6693C39.4619 28.8035 39.156 28.9377 38.8474 29.0649C38.5121 29.2171 38.1769 29.3696 37.8417 29.5221C35.2502 30.7012 32.6585 31.8804 30.0055 32.9141C27.3931 31.9029 24.8432 30.7436 22.2937 29.5845L22.2936 29.5844L22.2923 29.5838C21.9073 29.4088 21.5222 29.2337 21.137 29.0592C20.8582 28.9424 20.5808 28.8215 20.3034 28.7004L20.303 28.7003C19.6638 28.4214 19.0243 28.1424 18.3655 27.9144C19.9844 27.4212 21.5824 26.8504 23.1071 26.1117ZM2.15884 23.2716C1.62162 23.3645 1.16576 23.8529 1.12307 24.3978C1.21994 24.8023 1.51443 25.111 1.79505 25.4052C1.82474 25.4363 1.85426 25.4673 1.88339 25.4982C3.0585 26.6736 4.70961 27.1604 6.27696 27.556C8.79552 28.1962 11.4405 28.2132 13.9993 27.8151C14.1026 27.8001 14.2055 27.7807 14.3085 27.7613C14.5309 27.7195 14.7536 27.6776 14.9804 27.6787C14.7054 27.6202 14.4486 27.5082 14.192 27.3961L14.1919 27.3961C14.0907 27.352 13.9896 27.3078 13.8874 27.267C13.1266 26.951 12.36 26.6496 11.5933 26.3482L11.5933 26.3481L11.5931 26.3481C10.4402 25.8948 9.28729 25.4415 8.1544 24.9387C7.90088 24.8302 7.64787 24.7189 7.3946 24.6075L7.39425 24.6073L7.39424 24.6073C6.21537 24.0888 5.0309 23.5677 3.76405 23.3152C3.23569 23.2288 2.68881 23.161 2.15884 23.2716ZM52.5838 24.6174C53.7541 24.1022 54.9287 23.5851 56.1841 23.3249C56.7664 23.2248 57.3761 23.1473 57.9577 23.2991C58.4023 23.4153 58.7381 23.8012 58.8589 24.2372C58.9163 24.4389 58.8039 24.6289 58.7027 24.7999C58.6918 24.8184 58.6809 24.8367 58.6705 24.8547C57.8666 26.0011 56.5836 26.6825 55.2845 27.1152C53.8089 27.5851 52.2843 27.9274 50.7371 28.0339C48.8532 28.172 46.958 28.0065 45.1039 27.6658C45.3739 27.5821 45.6333 27.4703 45.8928 27.3585C45.9987 27.3128 46.1047 27.2672 46.2114 27.2234C46.8959 26.9431 47.5844 26.6722 48.2729 26.4014C49.4266 25.9476 50.5803 25.4937 51.7156 24.9952C52.0055 24.872 52.2945 24.7448 52.5838 24.6174Z" fill="#C39D63"/>
</svg>
